G04 #@! TF.GenerationSoftware,KiCad,Pcbnew,(6.0.9)*
G04 #@! TF.CreationDate,2023-08-24T11:24:56+02:00*
G04 #@! TF.ProjectId,reflow_oven,7265666c-6f77-45f6-9f76-656e2e6b6963,rev?*
G04 #@! TF.SameCoordinates,Original*
G04 #@! TF.FileFunction,Profile,NP*
%FSLAX46Y46*%
G04 Gerber Fmt 4.6, Leading zero omitted, Abs format (unit mm)*
G04 Created by KiCad (PCBNEW (6.0.9)) date 2023-08-24 11:24:56*
%MOMM*%
%LPD*%
G01*
G04 APERTURE LIST*
G04 #@! TA.AperFunction,Profile*
%ADD10C,0.300000*%
G04 #@! TD*
G04 #@! TA.AperFunction,Profile*
%ADD11C,0.100000*%
G04 #@! TD*
G04 APERTURE END LIST*
D10*
X166113865Y-216458800D02*
G75*
G03*
X166113865Y-216458800I-1600000J0D01*
G01*
D11*
X185486865Y-177473800D02*
G75*
G03*
X185486865Y-176203800I35J635000D01*
G01*
X229555865Y-187633800D02*
G75*
G03*
X229555865Y-186363800I35J635000D01*
G01*
X187645865Y-180013800D02*
G75*
G03*
X187645865Y-181283800I35J-635000D01*
G01*
X177358865Y-140643800D02*
X177358865Y-173028800D01*
X140655865Y-115243800D02*
G75*
G03*
X140655865Y-116513800I35J-635000D01*
G01*
X138097865Y-218998800D02*
X138097865Y-91236800D01*
D10*
X264081865Y-93014800D02*
G75*
G03*
X264081865Y-93014800I-1600000J0D01*
G01*
D11*
X178628865Y-119434800D02*
X178628865Y-135944800D01*
X206060865Y-181283800D02*
G75*
G03*
X206060865Y-180013800I35J635000D01*
G01*
X284147865Y-91236800D02*
X284147865Y-218998800D01*
X234000865Y-180013800D02*
G75*
G03*
X234000865Y-181283800I35J-635000D01*
G01*
D10*
X187881865Y-125018800D02*
G75*
G03*
X187881865Y-125018800I-1600000J0D01*
G01*
X282369865Y-180898800D02*
G75*
G03*
X282369865Y-180898800I-1600000J0D01*
G01*
D11*
X206060865Y-180013800D02*
X187645865Y-180013800D01*
X252415865Y-180013800D02*
X234000865Y-180013800D01*
X280845865Y-222300800D02*
X141399865Y-222300800D01*
X275910865Y-186363800D02*
X259400865Y-186363800D01*
X173040865Y-115243800D02*
X140655865Y-115243800D01*
X252415865Y-181283800D02*
G75*
G03*
X252415865Y-180013800I35J635000D01*
G01*
X259400865Y-186363800D02*
G75*
G03*
X259400865Y-187633800I35J-635000D01*
G01*
X213045865Y-186363800D02*
G75*
G03*
X213045865Y-187633800I35J-635000D01*
G01*
X229555865Y-186363800D02*
X213045865Y-186363800D01*
X284147900Y-91236800D02*
G75*
G03*
X280845865Y-87934800I-3302000J0D01*
G01*
X275910865Y-187633800D02*
X259400865Y-187633800D01*
X180660865Y-176203800D02*
G75*
G03*
X180660865Y-177473800I35J-635000D01*
G01*
X180660865Y-176203800D02*
X185486865Y-176203800D01*
X141399865Y-87934765D02*
G75*
G03*
X138097865Y-91236800I35J-3302035D01*
G01*
X178628865Y-119434800D02*
G75*
G03*
X177358865Y-119434800I-635000J0D01*
G01*
X252415865Y-181283800D02*
X234000865Y-181283800D01*
X178628865Y-140643800D02*
X178628865Y-173028800D01*
X173040865Y-116513800D02*
X140655865Y-116513800D01*
X185486865Y-177473800D02*
X180660865Y-177473800D01*
D10*
X249857865Y-133654800D02*
G75*
G03*
X249857865Y-133654800I-1600000J0D01*
G01*
D11*
X177358865Y-173028800D02*
G75*
G03*
X178628865Y-173028800I635000J0D01*
G01*
X178628865Y-140643800D02*
G75*
G03*
X177358865Y-140643800I-635000J0D01*
G01*
X229555865Y-187633800D02*
X213045865Y-187633800D01*
X177358865Y-135944800D02*
G75*
G03*
X178628865Y-135944800I635000J0D01*
G01*
X275910865Y-187633800D02*
G75*
G03*
X275910865Y-186363800I35J635000D01*
G01*
X141399865Y-87934800D02*
X280845865Y-87934800D01*
X138097900Y-218998800D02*
G75*
G03*
X141399865Y-222300800I3302000J0D01*
G01*
X280845865Y-222300765D02*
G75*
G03*
X284147865Y-218998800I35J3301965D01*
G01*
D10*
X175689865Y-176834800D02*
G75*
G03*
X175689865Y-176834800I-1600000J0D01*
G01*
X179753865Y-96062800D02*
G75*
G03*
X179753865Y-96062800I-1600000J0D01*
G01*
D11*
X173040865Y-116513800D02*
G75*
G03*
X173040865Y-115243800I35J635000D01*
G01*
X206060865Y-181283800D02*
X187645865Y-181283800D01*
X177358865Y-119434800D02*
X177358865Y-135944800D01*
M02*
