G04 #@! TF.GenerationSoftware,KiCad,Pcbnew,(6.0.9)*
G04 #@! TF.CreationDate,2023-08-24T11:24:56+02:00*
G04 #@! TF.ProjectId,reflow_oven,7265666c-6f77-45f6-9f76-656e2e6b6963,rev?*
G04 #@! TF.SameCoordinates,Original*
G04 #@! TF.FileFunction,Paste,Top*
G04 #@! TF.FilePolarity,Positive*
%FSLAX46Y46*%
G04 Gerber Fmt 4.6, Leading zero omitted, Abs format (unit mm)*
G04 Created by KiCad (PCBNEW (6.0.9)) date 2023-08-24 11:24:56*
%MOMM*%
%LPD*%
G01*
G04 APERTURE LIST*
G04 Aperture macros list*
%AMRoundRect*
0 Rectangle with rounded corners*
0 $1 Rounding radius*
0 $2 $3 $4 $5 $6 $7 $8 $9 X,Y pos of 4 corners*
0 Add a 4 corners polygon primitive as box body*
4,1,4,$2,$3,$4,$5,$6,$7,$8,$9,$2,$3,0*
0 Add four circle primitives for the rounded corners*
1,1,$1+$1,$2,$3*
1,1,$1+$1,$4,$5*
1,1,$1+$1,$6,$7*
1,1,$1+$1,$8,$9*
0 Add four rect primitives between the rounded corners*
20,1,$1+$1,$2,$3,$4,$5,0*
20,1,$1+$1,$4,$5,$6,$7,0*
20,1,$1+$1,$6,$7,$8,$9,0*
20,1,$1+$1,$8,$9,$2,$3,0*%
%AMRotRect*
0 Rectangle, with rotation*
0 The origin of the aperture is its center*
0 $1 length*
0 $2 width*
0 $3 Rotation angle, in degrees counterclockwise*
0 Add horizontal line*
21,1,$1,$2,0,0,$3*%
G04 Aperture macros list end*
%ADD10RoundRect,0.200000X0.275000X-0.200000X0.275000X0.200000X-0.275000X0.200000X-0.275000X-0.200000X0*%
%ADD11R,0.900000X1.200000*%
%ADD12RoundRect,0.225000X0.225000X0.250000X-0.225000X0.250000X-0.225000X-0.250000X0.225000X-0.250000X0*%
%ADD13RoundRect,0.200000X-0.053033X0.335876X-0.335876X0.053033X0.053033X-0.335876X0.335876X-0.053033X0*%
%ADD14RoundRect,0.225000X-0.225000X-0.250000X0.225000X-0.250000X0.225000X0.250000X-0.225000X0.250000X0*%
%ADD15RoundRect,0.200000X0.335876X0.053033X0.053033X0.335876X-0.335876X-0.053033X-0.053033X-0.335876X0*%
%ADD16R,1.100000X1.100000*%
%ADD17RoundRect,0.200000X0.200000X0.275000X-0.200000X0.275000X-0.200000X-0.275000X0.200000X-0.275000X0*%
%ADD18RoundRect,0.150000X0.587500X0.150000X-0.587500X0.150000X-0.587500X-0.150000X0.587500X-0.150000X0*%
%ADD19RoundRect,0.200000X-0.275000X0.200000X-0.275000X-0.200000X0.275000X-0.200000X0.275000X0.200000X0*%
%ADD20RoundRect,0.250001X0.624999X-0.462499X0.624999X0.462499X-0.624999X0.462499X-0.624999X-0.462499X0*%
%ADD21RoundRect,0.250000X0.625000X-0.400000X0.625000X0.400000X-0.625000X0.400000X-0.625000X-0.400000X0*%
%ADD22RoundRect,0.200000X0.053033X-0.335876X0.335876X-0.053033X-0.053033X0.335876X-0.335876X0.053033X0*%
%ADD23RoundRect,0.225000X-0.225000X0.225000X-0.225000X-0.225000X0.225000X-0.225000X0.225000X0.225000X0*%
%ADD24RoundRect,0.062500X-0.062500X0.337500X-0.062500X-0.337500X0.062500X-0.337500X0.062500X0.337500X0*%
%ADD25RoundRect,0.062500X-0.337500X0.062500X-0.337500X-0.062500X0.337500X-0.062500X0.337500X0.062500X0*%
%ADD26RoundRect,0.250000X0.250000X0.475000X-0.250000X0.475000X-0.250000X-0.475000X0.250000X-0.475000X0*%
%ADD27RoundRect,0.225000X0.250000X-0.225000X0.250000X0.225000X-0.250000X0.225000X-0.250000X-0.225000X0*%
%ADD28RoundRect,0.250000X0.400000X0.625000X-0.400000X0.625000X-0.400000X-0.625000X0.400000X-0.625000X0*%
%ADD29RoundRect,0.225000X-0.250000X0.225000X-0.250000X-0.225000X0.250000X-0.225000X0.250000X0.225000X0*%
%ADD30RoundRect,0.150000X-0.587500X-0.150000X0.587500X-0.150000X0.587500X0.150000X-0.587500X0.150000X0*%
%ADD31RoundRect,0.150000X0.150000X-0.587500X0.150000X0.587500X-0.150000X0.587500X-0.150000X-0.587500X0*%
%ADD32RoundRect,0.250000X0.450000X-0.350000X0.450000X0.350000X-0.450000X0.350000X-0.450000X-0.350000X0*%
%ADD33RoundRect,0.250000X-0.250000X-0.475000X0.250000X-0.475000X0.250000X0.475000X-0.250000X0.475000X0*%
%ADD34RoundRect,0.225000X0.017678X-0.335876X0.335876X-0.017678X-0.017678X0.335876X-0.335876X0.017678X0*%
%ADD35R,0.700000X0.600000*%
%ADD36RoundRect,0.225000X0.335876X0.017678X0.017678X0.335876X-0.335876X-0.017678X-0.017678X-0.335876X0*%
%ADD37RoundRect,0.200000X-0.335876X-0.053033X-0.053033X-0.335876X0.335876X0.053033X0.053033X0.335876X0*%
%ADD38RoundRect,0.150000X0.150000X-0.512500X0.150000X0.512500X-0.150000X0.512500X-0.150000X-0.512500X0*%
%ADD39R,1.200000X1.200000*%
%ADD40R,1.500000X1.600000*%
%ADD41R,0.800000X1.200000*%
%ADD42RoundRect,0.250001X0.462499X0.624999X-0.462499X0.624999X-0.462499X-0.624999X0.462499X-0.624999X0*%
%ADD43RoundRect,0.250000X-0.475000X0.250000X-0.475000X-0.250000X0.475000X-0.250000X0.475000X0.250000X0*%
%ADD44RoundRect,0.250000X-0.625000X0.400000X-0.625000X-0.400000X0.625000X-0.400000X0.625000X0.400000X0*%
%ADD45RoundRect,0.200000X-0.200000X-0.275000X0.200000X-0.275000X0.200000X0.275000X-0.200000X0.275000X0*%
%ADD46RoundRect,0.237500X-0.237500X0.250000X-0.237500X-0.250000X0.237500X-0.250000X0.237500X0.250000X0*%
%ADD47RoundRect,0.075000X-0.415425X-0.521491X0.521491X0.415425X0.415425X0.521491X-0.521491X-0.415425X0*%
%ADD48RoundRect,0.075000X0.415425X-0.521491X0.521491X-0.415425X-0.415425X0.521491X-0.521491X0.415425X0*%
%ADD49R,2.000000X1.500000*%
%ADD50R,2.000000X3.800000*%
%ADD51R,0.600000X0.700000*%
%ADD52RoundRect,0.218750X-0.218750X-0.256250X0.218750X-0.256250X0.218750X0.256250X-0.218750X0.256250X0*%
%ADD53RoundRect,0.250000X0.512652X0.159099X0.159099X0.512652X-0.512652X-0.159099X-0.159099X-0.512652X0*%
%ADD54R,1.525000X0.650000*%
%ADD55RotRect,1.400000X1.200000X225.000000*%
%ADD56RoundRect,0.250000X0.350000X0.450000X-0.350000X0.450000X-0.350000X-0.450000X0.350000X-0.450000X0*%
%ADD57RoundRect,0.250000X-0.350000X-0.450000X0.350000X-0.450000X0.350000X0.450000X-0.350000X0.450000X0*%
%ADD58RoundRect,0.250000X-0.450000X0.350000X-0.450000X-0.350000X0.450000X-0.350000X0.450000X0.350000X0*%
%ADD59RoundRect,0.225000X-0.017678X0.335876X-0.335876X0.017678X0.017678X-0.335876X0.335876X-0.017678X0*%
%ADD60R,0.600000X1.160000*%
%ADD61R,0.300000X1.160000*%
%ADD62R,0.900000X1.000000*%
%ADD63RoundRect,0.237500X-0.344715X0.008839X0.008839X-0.344715X0.344715X-0.008839X-0.008839X0.344715X0*%
%ADD64RoundRect,0.237500X-0.250000X-0.237500X0.250000X-0.237500X0.250000X0.237500X-0.250000X0.237500X0*%
%ADD65RoundRect,0.250000X0.475000X-0.250000X0.475000X0.250000X-0.475000X0.250000X-0.475000X-0.250000X0*%
G04 APERTURE END LIST*
D10*
X186662665Y-107251000D03*
X186662665Y-105601000D03*
D11*
X181479865Y-185982800D03*
X184779865Y-185982800D03*
D10*
X270685865Y-158609800D03*
X270685865Y-156959800D03*
D12*
X271206865Y-125272800D03*
X269656865Y-125272800D03*
D13*
X217381220Y-146522645D03*
X216214494Y-147689371D03*
D14*
X228940665Y-141528800D03*
X230490665Y-141528800D03*
D10*
X205719865Y-154358800D03*
X205719865Y-152708800D03*
D15*
X219199228Y-133044363D03*
X218032502Y-131877637D03*
D16*
X270558865Y-100758800D03*
X270558865Y-103558800D03*
D17*
X202626065Y-125984000D03*
X200976065Y-125984000D03*
D10*
X270685865Y-150481800D03*
X270685865Y-148831800D03*
D14*
X201959865Y-150993800D03*
X203509865Y-150993800D03*
D18*
X197836365Y-149590800D03*
X197836365Y-147690800D03*
X195961365Y-148640800D03*
D19*
X242262865Y-153994800D03*
X242262865Y-155644800D03*
D10*
X251102465Y-114261400D03*
X251102465Y-112611400D03*
D16*
X155750865Y-95684800D03*
X155750865Y-92884800D03*
D20*
X168323865Y-98439300D03*
X168323865Y-95464300D03*
D21*
X241930865Y-215472800D03*
X241930865Y-212372800D03*
D19*
X219268865Y-170933800D03*
X219268865Y-172583800D03*
D10*
X207247065Y-140804400D03*
X207247065Y-139154400D03*
D22*
X222096502Y-129869363D03*
X223263228Y-128702637D03*
D23*
X191056865Y-105483800D03*
X189936865Y-106603800D03*
X189936865Y-107723800D03*
X192176865Y-105483800D03*
X191056865Y-107723800D03*
X192176865Y-106603800D03*
X191056865Y-106603800D03*
X189936865Y-105483800D03*
X192176865Y-107723800D03*
D24*
X192556865Y-104153800D03*
X192056865Y-104153800D03*
X191556865Y-104153800D03*
X191056865Y-104153800D03*
X190556865Y-104153800D03*
X190056865Y-104153800D03*
X189556865Y-104153800D03*
D25*
X188606865Y-105103800D03*
X188606865Y-105603800D03*
X188606865Y-106103800D03*
X188606865Y-106603800D03*
X188606865Y-107103800D03*
X188606865Y-107603800D03*
X188606865Y-108103800D03*
D24*
X189556865Y-109053800D03*
X190056865Y-109053800D03*
X190556865Y-109053800D03*
X191056865Y-109053800D03*
X191556865Y-109053800D03*
X192056865Y-109053800D03*
X192556865Y-109053800D03*
D25*
X193506865Y-108103800D03*
X193506865Y-107603800D03*
X193506865Y-107103800D03*
X193506865Y-106603800D03*
X193506865Y-106103800D03*
X193506865Y-105603800D03*
X193506865Y-105103800D03*
D10*
X192326865Y-100443800D03*
X192326865Y-98793800D03*
D26*
X165082865Y-100761800D03*
X163182865Y-100761800D03*
D22*
X220978902Y-128777163D03*
X222145628Y-127610437D03*
D27*
X219268865Y-168977800D03*
X219268865Y-167427800D03*
D28*
X240686865Y-201984800D03*
X237586865Y-201984800D03*
D29*
X244145865Y-161473800D03*
X244145865Y-163023800D03*
D21*
X195646865Y-208868800D03*
X195646865Y-205768800D03*
D30*
X270256365Y-116702800D03*
X270256365Y-118602800D03*
X272131365Y-117652800D03*
D19*
X251956865Y-163709800D03*
X251956865Y-165359800D03*
D31*
X221366865Y-169394300D03*
X223266865Y-169394300D03*
X222316865Y-167519300D03*
D21*
X241930865Y-208868800D03*
X241930865Y-205768800D03*
D26*
X197986865Y-165280800D03*
X196086865Y-165280800D03*
D18*
X244191365Y-149590800D03*
X244191365Y-147690800D03*
X242316365Y-148640800D03*
D10*
X252003865Y-154374800D03*
X252003865Y-152724800D03*
D19*
X265478865Y-116827800D03*
X265478865Y-118477800D03*
D32*
X181549865Y-193459800D03*
X181549865Y-191459800D03*
D29*
X197861865Y-161457800D03*
X197861865Y-163007800D03*
D33*
X188938465Y-139623800D03*
X190838465Y-139623800D03*
D12*
X223345865Y-172520800D03*
X221795865Y-172520800D03*
D17*
X203882865Y-131927600D03*
X202232865Y-131927600D03*
X261018365Y-103682800D03*
X259368365Y-103682800D03*
D34*
X223833657Y-133506216D03*
X224929673Y-132410200D03*
D35*
X184325865Y-91044800D03*
X184325865Y-92444800D03*
D36*
X215379273Y-140959208D03*
X214283257Y-139863192D03*
D10*
X245970865Y-155644800D03*
X245970865Y-153994800D03*
X189278865Y-100443800D03*
X189278865Y-98793800D03*
D37*
X215695702Y-134189037D03*
X216862428Y-135355763D03*
D16*
X150368000Y-99234800D03*
X150368000Y-102034800D03*
D38*
X248021865Y-162878300D03*
X248971865Y-162878300D03*
X249921865Y-162878300D03*
X249921865Y-160603300D03*
X248021865Y-160603300D03*
D27*
X186662665Y-103848200D03*
X186662665Y-102298200D03*
D19*
X267637865Y-96507800D03*
X267637865Y-98157800D03*
D30*
X263065865Y-101716800D03*
X263065865Y-103616800D03*
X264940865Y-102666800D03*
D39*
X239139865Y-164455800D03*
D40*
X235889865Y-163455800D03*
D39*
X239139865Y-162455800D03*
D12*
X269826865Y-172520800D03*
X268276865Y-172520800D03*
D19*
X251964865Y-156280800D03*
X251964865Y-157930800D03*
D41*
X181845865Y-179963800D03*
X184385865Y-179963800D03*
X184385865Y-173663800D03*
X183115865Y-173663800D03*
X181845865Y-173663800D03*
D30*
X211328365Y-104180600D03*
X211328365Y-106080600D03*
X213203365Y-105130600D03*
D42*
X218630165Y-103803700D03*
X215655165Y-103803700D03*
D19*
X263065865Y-126733800D03*
X263065865Y-128383800D03*
D30*
X270256365Y-108447800D03*
X270256365Y-110347800D03*
X272131365Y-109397800D03*
D43*
X272971865Y-148706800D03*
X272971865Y-150606800D03*
D27*
X265749865Y-168977800D03*
X265749865Y-167427800D03*
D33*
X235981865Y-158375800D03*
X237881865Y-158375800D03*
D28*
X194402865Y-201984800D03*
X191302865Y-201984800D03*
D31*
X267847865Y-169394300D03*
X269747865Y-169394300D03*
X268797865Y-167519300D03*
D44*
X236850865Y-195100800D03*
X236850865Y-198200800D03*
D29*
X244192865Y-154044800D03*
X244192865Y-155594800D03*
D26*
X156192865Y-98221800D03*
X154292865Y-98221800D03*
D45*
X164196865Y-90855800D03*
X165846865Y-90855800D03*
D46*
X189990065Y-141632300D03*
X189990065Y-143457300D03*
D47*
X217029989Y-141613188D03*
X217383543Y-141966742D03*
X217737096Y-142320295D03*
X218090650Y-142673849D03*
X218444203Y-143027402D03*
X218797756Y-143380955D03*
X219151310Y-143734509D03*
X219504863Y-144088062D03*
X219858416Y-144441615D03*
X220211970Y-144795169D03*
X220565523Y-145148722D03*
X220919077Y-145502276D03*
D48*
X222916653Y-145502276D03*
X223270207Y-145148722D03*
X223623760Y-144795169D03*
X223977314Y-144441615D03*
X224330867Y-144088062D03*
X224684420Y-143734509D03*
X225037974Y-143380955D03*
X225391527Y-143027402D03*
X225745080Y-142673849D03*
X226098634Y-142320295D03*
X226452187Y-141966742D03*
X226805741Y-141613188D03*
D47*
X226805741Y-139615612D03*
X226452187Y-139262058D03*
X226098634Y-138908505D03*
X225745080Y-138554951D03*
X225391527Y-138201398D03*
X225037974Y-137847845D03*
X224684420Y-137494291D03*
X224330867Y-137140738D03*
X223977314Y-136787185D03*
X223623760Y-136433631D03*
X223270207Y-136080078D03*
X222916653Y-135726524D03*
D48*
X220919077Y-135726524D03*
X220565523Y-136080078D03*
X220211970Y-136433631D03*
X219858416Y-136787185D03*
X219504863Y-137140738D03*
X219151310Y-137494291D03*
X218797756Y-137847845D03*
X218444203Y-138201398D03*
X218090650Y-138554951D03*
X217737096Y-138908505D03*
X217383543Y-139262058D03*
X217029989Y-139615612D03*
D49*
X158954363Y-93381800D03*
D50*
X165254363Y-95681800D03*
D49*
X158954363Y-95681800D03*
X158954363Y-97981800D03*
D10*
X184884665Y-107251000D03*
X184884665Y-105601000D03*
X205672865Y-161787800D03*
X205672865Y-160137800D03*
D19*
X205680865Y-156264800D03*
X205680865Y-157914800D03*
D17*
X263763865Y-116890800D03*
X262113865Y-116890800D03*
D51*
X188070865Y-102158800D03*
X189470865Y-102158800D03*
D38*
X201737865Y-162862300D03*
X202687865Y-162862300D03*
X203637865Y-162862300D03*
X203637865Y-160587300D03*
X201737865Y-160587300D03*
D12*
X224166065Y-109093000D03*
X222616065Y-109093000D03*
D36*
X215099873Y-138393808D03*
X214003857Y-137297792D03*
D52*
X267358365Y-112064800D03*
X268933365Y-112064800D03*
D13*
X228013028Y-134011237D03*
X226846302Y-135177963D03*
X229156865Y-135153400D03*
X227990139Y-136320126D03*
D53*
X219109816Y-130110151D03*
X217766314Y-128766649D03*
D10*
X199686865Y-155628800D03*
X199686865Y-153978800D03*
D32*
X173040865Y-197142800D03*
X173040865Y-195142800D03*
D54*
X229659065Y-107086400D03*
X229659065Y-105816400D03*
X229659065Y-104546400D03*
X229659065Y-103276400D03*
X224235065Y-103276400D03*
X224235065Y-104546400D03*
X224235065Y-105816400D03*
X224235065Y-107086400D03*
D19*
X196083865Y-161407800D03*
X196083865Y-163057800D03*
D26*
X244270865Y-165296800D03*
X242370865Y-165296800D03*
D43*
X272971865Y-156834800D03*
X272971865Y-158734800D03*
D55*
X214728642Y-144340942D03*
X213173007Y-145896577D03*
X214375088Y-147098658D03*
X215930723Y-145543023D03*
D45*
X195692865Y-107162600D03*
X197342865Y-107162600D03*
D38*
X248068865Y-155449300D03*
X249018865Y-155449300D03*
X249968865Y-155449300D03*
X249968865Y-153174300D03*
X248068865Y-153174300D03*
D19*
X195978865Y-153978800D03*
X195978865Y-155628800D03*
X205128465Y-125971800D03*
X205128465Y-127621800D03*
D54*
X270857865Y-139623800D03*
X270857865Y-138353800D03*
X270857865Y-137083800D03*
X270857865Y-135813800D03*
X265433865Y-135813800D03*
X265433865Y-137083800D03*
X265433865Y-138353800D03*
X265433865Y-139623800D03*
D38*
X201784865Y-155433300D03*
X202734865Y-155433300D03*
X203684865Y-155433300D03*
X203684865Y-153158300D03*
X201784865Y-153158300D03*
D10*
X253032865Y-114286800D03*
X253032865Y-112636800D03*
D14*
X219517265Y-147929600D03*
X221067265Y-147929600D03*
D56*
X249146865Y-165296800D03*
X247146865Y-165296800D03*
D12*
X271206865Y-133908800D03*
X269656865Y-133908800D03*
D13*
X230299865Y-136296400D03*
X229133139Y-137463126D03*
D57*
X175850865Y-193348800D03*
X177850865Y-193348800D03*
D17*
X261018365Y-101650800D03*
X259368365Y-101650800D03*
D58*
X221257465Y-104130600D03*
X221257465Y-106130600D03*
D21*
X195646865Y-215472800D03*
X195646865Y-212372800D03*
D10*
X251956865Y-161803800D03*
X251956865Y-160153800D03*
D52*
X267358365Y-120319800D03*
X268933365Y-120319800D03*
D10*
X245923865Y-163073800D03*
X245923865Y-161423800D03*
D16*
X150368000Y-92453000D03*
X150368000Y-95253000D03*
D19*
X263065865Y-135369800D03*
X263065865Y-137019800D03*
D12*
X199324865Y-140690600D03*
X197774865Y-140690600D03*
D37*
X214552702Y-135332037D03*
X215719428Y-136498763D03*
D59*
X213677473Y-142911192D03*
X212581457Y-144007208D03*
D19*
X242367865Y-161423800D03*
X242367865Y-163073800D03*
D60*
X194256865Y-95016800D03*
X193456865Y-95016800D03*
D61*
X192306865Y-95016800D03*
X191306865Y-95016800D03*
X190806865Y-95016800D03*
X189806865Y-95016800D03*
D60*
X188656865Y-95016800D03*
X187856865Y-95016800D03*
X187856865Y-95016800D03*
X188656865Y-95016800D03*
D61*
X189306865Y-95016800D03*
X190306865Y-95016800D03*
X191806865Y-95016800D03*
X192806865Y-95016800D03*
D60*
X193456865Y-95016800D03*
X194256865Y-95016800D03*
D54*
X270857865Y-130987800D03*
X270857865Y-129717800D03*
X270857865Y-128447800D03*
X270857865Y-127177800D03*
X265433865Y-127177800D03*
X265433865Y-128447800D03*
X265433865Y-129717800D03*
X265433865Y-130987800D03*
D44*
X190566865Y-195100800D03*
X190566865Y-198200800D03*
D52*
X159789365Y-90855800D03*
X161364365Y-90855800D03*
D45*
X207707065Y-125984000D03*
X209357065Y-125984000D03*
D19*
X265749865Y-170933800D03*
X265749865Y-172583800D03*
D10*
X199639865Y-163057800D03*
X199639865Y-161407800D03*
D14*
X248196865Y-158375800D03*
X249746865Y-158375800D03*
D13*
X231442865Y-137439400D03*
X230276139Y-138606126D03*
D19*
X205672865Y-163693800D03*
X205672865Y-165343800D03*
D22*
X223620502Y-131444163D03*
X224787228Y-130277437D03*
D10*
X183157465Y-160845000D03*
X183157465Y-159195000D03*
D62*
X201198865Y-138696800D03*
X205298865Y-138696800D03*
X201198865Y-140296800D03*
X205298865Y-140296800D03*
D56*
X176834865Y-199698800D03*
X174834865Y-199698800D03*
D63*
X220129630Y-131663365D03*
X221420100Y-132953835D03*
D51*
X193534865Y-102158800D03*
X192134865Y-102158800D03*
D14*
X201912865Y-158359800D03*
X203462865Y-158359800D03*
D22*
X225703302Y-134034963D03*
X226870028Y-132868237D03*
D33*
X189697865Y-158359800D03*
X191597865Y-158359800D03*
D64*
X168300365Y-93268800D03*
X170125365Y-93268800D03*
D16*
X156255865Y-100888800D03*
X159055865Y-100888800D03*
D56*
X202862865Y-165280800D03*
X200862865Y-165280800D03*
D65*
X184325865Y-104023200D03*
X184325865Y-102123200D03*
D45*
X195692865Y-105511600D03*
X197342865Y-105511600D03*
D29*
X267256865Y-108622800D03*
X267256865Y-110172800D03*
D14*
X248243865Y-151009800D03*
X249793865Y-151009800D03*
D29*
X267256865Y-116877800D03*
X267256865Y-118427800D03*
D14*
X182340865Y-171479800D03*
X183890865Y-171479800D03*
D34*
X214054657Y-149874608D03*
X215150673Y-148778592D03*
D39*
X192855865Y-164439800D03*
D40*
X189605865Y-163439800D03*
D39*
X192855865Y-162439800D03*
D19*
X265478865Y-108572800D03*
X265478865Y-110222800D03*
D17*
X263763865Y-108635800D03*
X262113865Y-108635800D03*
D10*
X183106665Y-107251000D03*
X183106665Y-105601000D03*
D29*
X197908865Y-154028800D03*
X197908865Y-155578800D03*
D37*
X216864102Y-133046037D03*
X218030828Y-134212763D03*
D45*
X270622865Y-120319800D03*
X272272865Y-120319800D03*
X270622865Y-112064800D03*
X272272865Y-112064800D03*
D42*
X218630165Y-106400600D03*
X215655165Y-106400600D03*
M02*
