M48
; DRILL file {KiCad (6.0.9)} date Thu Aug 24 09:05:46 2023
; FORMAT={-:-/ absolute / metric / decimal}
; #@! TF.CreationDate,2023-08-24T09:05:46+02:00
; #@! TF.GenerationSoftware,Kicad,Pcbnew,(6.0.9)
; #@! TF.FileFunction,Plated,1,2,PTH
FMAT,2
METRIC
; #@! TA.AperFunction,Plated,PTH,ViaDrill
T1C0.200
; #@! TA.AperFunction,Plated,PTH,ViaDrill
T2C0.400
; #@! TA.AperFunction,Plated,PTH,ComponentDrill
T3C0.500
; #@! TA.AperFunction,Plated,PTH,ComponentDrill
T4C0.600
; #@! TA.AperFunction,Plated,PTH,ViaDrill
T5C0.650
; #@! TA.AperFunction,Plated,PTH,ComponentDrill
T6C0.780
; #@! TA.AperFunction,Plated,PTH,ComponentDrill
T7C0.800
; #@! TA.AperFunction,Plated,PTH,ComponentDrill
T8C1.000
; #@! TA.AperFunction,Plated,PTH,ComponentDrill
T9C1.100
; #@! TA.AperFunction,Plated,PTH,ComponentDrill
T10C1.150
; #@! TA.AperFunction,Plated,PTH,ComponentDrill
T11C1.300
; #@! TA.AperFunction,Plated,PTH,ComponentDrill
T12C1.500
; #@! TA.AperFunction,Plated,PTH,ComponentDrill
T13C1.520
; #@! TA.AperFunction,Plated,PTH,ComponentDrill
T14C1.600
; #@! TA.AperFunction,Plated,PTH,ComponentDrill
T15C2.000
; #@! TA.AperFunction,Plated,PTH,ComponentDrill
T16C3.200
%
G90
G05
T1
X171.118Y-93.269
X171.118Y-93.777
X171.118Y-94.285
X171.626Y-93.269
X171.626Y-93.777
X171.626Y-94.285
X172.134Y-93.269
X172.134Y-93.777
X172.134Y-94.285
X181.024Y-173.025
X182.04Y-170.358
X183.157Y-157.836
X185.748Y-106.9
X187.628Y-103.683
X187.882Y-98.095
X188.009Y-140.64
X188.009Y-141.148
X188.009Y-141.656
X188.517Y-140.64
X188.517Y-141.148
X188.517Y-141.656
X188.898Y-104.318
X189.025Y-140.64
X189.025Y-141.148
X189.025Y-141.656
X189.787Y-103.302
X190.307Y-96.19
X191.307Y-95.932
X200.937Y-135.204
X205.789Y-134.188
X205.789Y-148.641
X206.373Y-126.949
X208.329Y-140.767
X213.282Y-131.242
X213.851Y-129.804
X216.0Y-131.978
X216.076Y-138.735
X216.203Y-125.146
X216.376Y-140.959
X216.383Y-137.665
X216.482Y-142.799
X216.609Y-137.084
X217.552Y-137.284
X217.764Y-135.105
X217.905Y-130.912
X218.26Y-130.531
X218.26Y-131.267
X218.289Y-135.788
X218.371Y-133.44
X218.616Y-130.912
X218.896Y-133.811
X219.034Y-140.609
X219.276Y-139.996
X219.378Y-130.734
X219.454Y-135.687
X219.759Y-130.353
X219.759Y-131.115
X220.128Y-134.909
X220.14Y-130.734
X220.292Y-150.216
X221.13Y-133.858
X221.281Y-162.635
X221.359Y-135.28
X221.439Y-139.7
X221.511Y-134.264
X221.562Y-133.502
X221.647Y-140.792
X221.808Y-130.549
X221.892Y-133.909
X221.892Y-134.62
X221.959Y-140.223
X222.197Y-133.502
X222.223Y-134.29
X222.324Y-152.959
X222.486Y-132.013
X222.553Y-133.858
X222.656Y-141.213
X222.697Y-140.513
X223.285Y-140.309
X223.388Y-139.557
X225.22Y-109.017
X225.249Y-140.789
X225.299Y-136.244
X225.728Y-107.112
X225.829Y-111.785
X226.161Y-133.29
X226.21Y-111.261
X226.453Y-136.168
X226.622Y-136.743
X226.959Y-137.27
X227.891Y-141.613
X228.547Y-121.387
X228.547Y-127.483
X228.804Y-132.591
X229.106Y-112.827
X229.716Y-133.452
X230.24Y-133.045
X231.047Y-133.741
X231.138Y-113.767
X231.138Y-132.715
X231.663Y-113.47
X232.332Y-133.909
X233.018Y-116.764
X233.662Y-117.288
X233.856Y-135.052
X235.71Y-116.239
X239.198Y-118.804
X239.545Y-117.962
X247.661Y-116.167
X248.156Y-117.272
X248.254Y-114.79
X248.283Y-106.35
X248.334Y-112.573
X249.833Y-112.573
X250.29Y-100.432
X250.493Y-115.24
X253.033Y-112.497
X260.069Y-139.192
X263.015Y-129.692
X263.066Y-125.654
X263.066Y-134.29
X266.876Y-127.203
X266.927Y-136.347
X267.587Y-137.871
X267.654Y-130.099
X272.337Y-125.273
X272.337Y-133.909
X272.591Y-127.178
X272.591Y-135.814
T2
X192.555Y-143.891
X192.606Y-144.704
X193.419Y-144.704
X193.47Y-143.891
X193.851Y-161.468
X199.185Y-149.657
X200.836Y-156.896
X202.29Y-164.007
X204.138Y-149.784
X204.519Y-159.182
X205.662Y-166.548
X206.805Y-159.055
X218.108Y-166.802
X220.775Y-170.739
X220.939Y-143.307
X221.257Y-149.149
X221.41Y-173.787
X237.793Y-163.119
X239.726Y-154.82
X241.984Y-149.911
X245.794Y-149.657
X247.318Y-156.896
X248.591Y-164.012
X249.096Y-152.07
X250.874Y-159.055
X251.89Y-166.548
X253.16Y-159.055
X265.733Y-155.88
X265.733Y-164.643
X266.749Y-166.548
X266.876Y-169.977
X268.273Y-173.787
X271.829Y-159.944
X273.988Y-151.816
T3
X212.442Y-196.426
X212.442Y-197.686
X213.192Y-195.396
X213.192Y-198.716
X214.392Y-195.006
X214.392Y-199.106
X215.722Y-195.006
X215.722Y-199.106
X217.062Y-195.006
X217.062Y-199.106
X218.392Y-195.006
X218.392Y-199.106
X219.592Y-195.396
X219.592Y-198.716
X220.342Y-196.426
X220.342Y-197.686
X222.442Y-196.426
X222.442Y-197.686
X223.192Y-195.396
X223.192Y-198.716
X224.392Y-195.006
X224.392Y-199.106
X225.722Y-195.006
X225.722Y-199.106
X227.062Y-195.006
X227.062Y-199.106
X228.392Y-195.006
X228.392Y-199.106
X229.592Y-195.396
X229.592Y-198.716
X230.342Y-196.426
X230.342Y-197.686
X258.879Y-196.426
X258.879Y-197.686
X259.629Y-195.396
X259.629Y-198.716
X260.829Y-195.006
X260.829Y-199.106
X262.159Y-195.006
X262.159Y-199.106
X263.499Y-195.006
X263.499Y-199.106
X264.829Y-195.006
X264.829Y-199.106
X266.029Y-195.396
X266.029Y-198.716
X266.779Y-196.426
X266.779Y-197.686
X268.879Y-196.426
X268.879Y-197.686
X269.629Y-195.396
X269.629Y-198.716
X270.829Y-195.006
X270.829Y-199.106
X272.159Y-195.006
X272.159Y-199.106
X273.499Y-195.006
X273.499Y-199.106
X274.829Y-195.006
X274.829Y-199.106
X276.029Y-195.396
X276.029Y-198.716
X276.779Y-196.426
X276.779Y-197.686
T5
X161.72Y-97.841
X181.659Y-105.334
X182.548Y-103.937
T6
X175.139Y-204.261
X175.139Y-209.361
X183.389Y-204.261
X183.389Y-209.361
T7
X152.696Y-159.055
X167.696Y-159.055
X219.482Y-175.656
X221.392Y-175.656
X223.302Y-175.656
X265.919Y-175.656
X267.829Y-175.656
X269.739Y-175.656
T8
X156.446Y-166.675
X162.232Y-204.017
X163.946Y-166.675
X166.546Y-181.975
X166.546Y-189.475
X166.832Y-204.017
X190.567Y-175.553
X190.567Y-185.553
X197.534Y-123.241
X199.951Y-215.447
X200.074Y-123.241
X202.614Y-123.241
X203.267Y-175.553
X203.267Y-185.553
X204.551Y-215.447
X205.154Y-123.241
X207.694Y-123.241
X210.234Y-123.241
X211.542Y-98.908
X212.927Y-96.068
X214.312Y-98.908
X215.697Y-96.068
X217.082Y-98.908
X218.467Y-96.068
X219.852Y-98.908
X221.237Y-96.068
X222.622Y-98.908
X236.851Y-175.553
X236.851Y-185.553
X246.235Y-215.447
X249.551Y-175.553
X249.551Y-185.553
X250.835Y-215.447
T9
X143.751Y-92.507
X143.751Y-95.047
X143.751Y-99.365
X143.751Y-101.905
X278.052Y-93.142
X278.052Y-95.682
X278.052Y-100.889
X278.052Y-103.429
X278.052Y-109.398
X278.052Y-111.938
X278.052Y-117.653
X278.052Y-120.193
X278.052Y-127.813
X278.052Y-130.353
X278.052Y-136.449
X278.052Y-138.989
X278.052Y-148.133
X278.052Y-150.673
X278.052Y-156.769
X278.052Y-159.309
T10
X239.698Y-94.031
X239.698Y-96.571
X239.698Y-99.111
X239.698Y-101.651
X239.698Y-104.191
X242.238Y-94.031
X242.238Y-96.571
X242.238Y-99.111
X242.238Y-101.651
X242.238Y-104.191
X251.001Y-94.082
X251.001Y-96.622
X251.001Y-99.162
X251.001Y-101.702
X251.001Y-104.242
X253.541Y-94.082
X253.541Y-96.622
X253.541Y-99.162
X253.541Y-101.702
X253.541Y-104.242
T11
X144.956Y-213.557
X150.036Y-213.557
X155.116Y-213.557
T12
X144.394Y-149.841
X145.394Y-109.341
X156.894Y-149.841
X168.394Y-109.341
X169.394Y-149.841
T13
X212.665Y-215.447
X217.745Y-215.447
X225.365Y-215.472
X230.445Y-215.472
X259.076Y-215.447
X264.156Y-215.447
X271.776Y-215.472
X276.856Y-215.472
T14
X155.116Y-174.425
X155.116Y-197.025
T16
X204.582Y-97.488
X229.582Y-97.488
T4
X186.737Y-89.867G85X186.737Y-90.667
G05
X186.737Y-93.887G85X186.737Y-94.987
G05
X195.377Y-89.867G85X195.377Y-90.667
G05
X195.377Y-93.887G85X195.377Y-94.987
G05
T15
X218.392Y-197.056G85X214.392Y-197.056
G05
X228.392Y-197.056G85X224.392Y-197.056
G05
X264.829Y-197.056G85X260.829Y-197.056
G05
X274.829Y-197.056G85X270.829Y-197.056
G05
T0
M30
