M48
; DRILL file {KiCad (6.0.9)} date Thu Aug 24 09:05:46 2023
; FORMAT={-:-/ absolute / metric / decimal}
; #@! TF.CreationDate,2023-08-24T09:05:46+02:00
; #@! TF.GenerationSoftware,Kicad,Pcbnew,(6.0.9)
; #@! TF.FileFunction,NonPlated,1,2,NPTH
FMAT,2
METRIC
; #@! TA.AperFunction,NonPlated,NPTH,ComponentDrill
T1C0.600
; #@! TA.AperFunction,NonPlated,NPTH,ComponentDrill
T2C1.100
%
G90
G05
T1
X188.167Y-93.957
X193.947Y-93.957
T2
X141.211Y-92.507
X141.211Y-95.047
X141.211Y-99.365
X141.211Y-101.905
X280.592Y-93.142
X280.592Y-95.682
X280.592Y-100.889
X280.592Y-103.429
X280.592Y-109.398
X280.592Y-111.938
X280.592Y-117.653
X280.592Y-120.193
X280.592Y-127.813
X280.592Y-130.353
X280.592Y-136.449
X280.592Y-138.989
X280.592Y-148.133
X280.592Y-150.673
X280.592Y-156.769
X280.592Y-159.309
T0
M30
