%TF.GenerationSoftware,KiCad,Pcbnew,(6.0.9)*%
%TF.CreationDate,2023-08-24T11:25:01+02:00*%
%TF.ProjectId,reflow_oven,7265666c-6f77-45f6-9f76-656e2e6b6963,rev?*%
%TF.SameCoordinates,Original*%
%TF.FileFunction,Drillmap*%
%TF.FilePolarity,Positive*%
%FSLAX45Y45*%
G04 Gerber Fmt 4.5, Leading zero omitted, Abs format (unit mm)*
G04 Created by KiCad (PCBNEW (6.0.9)) date 2023-08-24 11:25:01*
%MOMM*%
%LPD*%
G01*
G04 APERTURE LIST*
%ADD10C,0.300000*%
%ADD11C,0.100000*%
%ADD12C,0.200000*%
%ADD13C,0.020000*%
%ADD14C,0.040000*%
%ADD15C,0.050000*%
%ADD16C,0.060000*%
%ADD17C,0.065000*%
%ADD18C,0.078000*%
%ADD19C,0.080000*%
%ADD20C,0.110000*%
%ADD21C,0.115000*%
%ADD22C,0.130000*%
%ADD23C,0.150000*%
%ADD24C,0.152000*%
%ADD25C,0.160000*%
%ADD26C,0.320000*%
G04 APERTURE END LIST*
D10*
X16611386Y-21645880D02*
G75*
G03*
X16611386Y-21645880I-160000J0D01*
G01*
D11*
X18548687Y-17747380D02*
G75*
G03*
X18548687Y-17620380I4J63500D01*
G01*
X22955586Y-18763380D02*
G75*
G03*
X22955586Y-18636380I4J63500D01*
G01*
X18764587Y-18001380D02*
G75*
G03*
X18764587Y-18128380I4J-63500D01*
G01*
X17735887Y-14064380D02*
X17735887Y-17302880D01*
X14065586Y-11524380D02*
G75*
G03*
X14065586Y-11651380I4J-63500D01*
G01*
X13809786Y-21899880D02*
X13809786Y-9123680D01*
D10*
X26408186Y-9301480D02*
G75*
G03*
X26408186Y-9301480I-160000J0D01*
G01*
D11*
X17862887Y-11943480D02*
X17862887Y-13594480D01*
X20606087Y-18128380D02*
G75*
G03*
X20606087Y-18001380I4J63500D01*
G01*
X28414786Y-9123680D02*
X28414786Y-21899880D01*
X23400086Y-18001380D02*
G75*
G03*
X23400086Y-18128380I4J-63500D01*
G01*
D10*
X18788187Y-12501880D02*
G75*
G03*
X18788187Y-12501880I-160000J0D01*
G01*
X28236986Y-18089880D02*
G75*
G03*
X28236986Y-18089880I-160000J0D01*
G01*
D11*
X20606087Y-18001380D02*
X18764587Y-18001380D01*
X25241586Y-18001380D02*
X23400086Y-18001380D01*
X28084586Y-22230080D02*
X14139986Y-22230080D01*
X27591086Y-18636380D02*
X25940086Y-18636380D01*
X17304087Y-11524380D02*
X14065586Y-11524380D01*
X25241586Y-18128380D02*
G75*
G03*
X25241586Y-18001380I4J63500D01*
G01*
X25940086Y-18636380D02*
G75*
G03*
X25940086Y-18763380I4J-63500D01*
G01*
X21304587Y-18636380D02*
G75*
G03*
X21304587Y-18763380I4J-63500D01*
G01*
X22955586Y-18636380D02*
X21304587Y-18636380D01*
X28414790Y-9123680D02*
G75*
G03*
X28084586Y-8793480I-330200J0D01*
G01*
X27591086Y-18763380D02*
X25940086Y-18763380D01*
X18066087Y-17620380D02*
G75*
G03*
X18066087Y-17747380I4J-63500D01*
G01*
X18066087Y-17620380D02*
X18548687Y-17620380D01*
X14139986Y-8793477D02*
G75*
G03*
X13809786Y-9123680I4J-330204D01*
G01*
X17862887Y-11943480D02*
G75*
G03*
X17735887Y-11943480I-63500J0D01*
G01*
X25241586Y-18128380D02*
X23400086Y-18128380D01*
X17862887Y-14064380D02*
X17862887Y-17302880D01*
X17304087Y-11651380D02*
X14065586Y-11651380D01*
X18548687Y-17747380D02*
X18066087Y-17747380D01*
D10*
X24985786Y-13365480D02*
G75*
G03*
X24985786Y-13365480I-160000J0D01*
G01*
D11*
X17735887Y-17302880D02*
G75*
G03*
X17862887Y-17302880I63500J0D01*
G01*
X17862887Y-14064380D02*
G75*
G03*
X17735887Y-14064380I-63500J0D01*
G01*
X22955586Y-18763380D02*
X21304587Y-18763380D01*
X17735887Y-13594480D02*
G75*
G03*
X17862887Y-13594480I63500J0D01*
G01*
X27591086Y-18763380D02*
G75*
G03*
X27591086Y-18636380I4J63500D01*
G01*
X14139986Y-8793480D02*
X28084586Y-8793480D01*
X13809790Y-21899880D02*
G75*
G03*
X14139986Y-22230080I330200J0D01*
G01*
X28084586Y-22230077D02*
G75*
G03*
X28414786Y-21899880I4J330197D01*
G01*
D10*
X17568987Y-17683480D02*
G75*
G03*
X17568987Y-17683480I-160000J0D01*
G01*
X17975387Y-9606280D02*
G75*
G03*
X17975387Y-9606280I-160000J0D01*
G01*
D11*
X17304087Y-11651380D02*
G75*
G03*
X17304087Y-11524380I4J63500D01*
G01*
X20606087Y-18128380D02*
X18764587Y-18128380D01*
X17735887Y-11943480D02*
X17735887Y-13594480D01*
D12*
D13*
X17101787Y-9316880D02*
X17121787Y-9336880D01*
X17121787Y-9316880D02*
X17101787Y-9336880D01*
X17101787Y-9367680D02*
X17121787Y-9387680D01*
X17121787Y-9367680D02*
X17101787Y-9387680D01*
X17101787Y-9418480D02*
X17121787Y-9438480D01*
X17121787Y-9418480D02*
X17101787Y-9438480D01*
X17152587Y-9316880D02*
X17172587Y-9336880D01*
X17172587Y-9316880D02*
X17152587Y-9336880D01*
X17152587Y-9367680D02*
X17172587Y-9387680D01*
X17172587Y-9367680D02*
X17152587Y-9387680D01*
X17152587Y-9418480D02*
X17172587Y-9438480D01*
X17172587Y-9418480D02*
X17152587Y-9438480D01*
X17203387Y-9316880D02*
X17223387Y-9336880D01*
X17223387Y-9316880D02*
X17203387Y-9336880D01*
X17203387Y-9367680D02*
X17223387Y-9387680D01*
X17223387Y-9367680D02*
X17203387Y-9387680D01*
X17203387Y-9418480D02*
X17223387Y-9438480D01*
X17223387Y-9418480D02*
X17203387Y-9438480D01*
X18092387Y-17292480D02*
X18112387Y-17312480D01*
X18112387Y-17292480D02*
X18092387Y-17312480D01*
X18193987Y-17025780D02*
X18213987Y-17045780D01*
X18213987Y-17025780D02*
X18193987Y-17045780D01*
X18305747Y-15773560D02*
X18325747Y-15793560D01*
X18325747Y-15773560D02*
X18305747Y-15793560D01*
X18564827Y-10679970D02*
X18584827Y-10699970D01*
X18584827Y-10679970D02*
X18564827Y-10699970D01*
X18752787Y-10358280D02*
X18772787Y-10378280D01*
X18772787Y-10358280D02*
X18752787Y-10378280D01*
X18778187Y-9799490D02*
X18798187Y-9819490D01*
X18798187Y-9799490D02*
X18778187Y-9819490D01*
X18790887Y-14053980D02*
X18810887Y-14073980D01*
X18810887Y-14053980D02*
X18790887Y-14073980D01*
X18790887Y-14104780D02*
X18810887Y-14124780D01*
X18810887Y-14104780D02*
X18790887Y-14124780D01*
X18790887Y-14155580D02*
X18810887Y-14175580D01*
X18810887Y-14155580D02*
X18790887Y-14175580D01*
X18841687Y-14053980D02*
X18861687Y-14073980D01*
X18861687Y-14053980D02*
X18841687Y-14073980D01*
X18841687Y-14104780D02*
X18861687Y-14124780D01*
X18861687Y-14104780D02*
X18841687Y-14124780D01*
X18841687Y-14155580D02*
X18861687Y-14175580D01*
X18861687Y-14155580D02*
X18841687Y-14175580D01*
X18879787Y-10421780D02*
X18899787Y-10441780D01*
X18899787Y-10421780D02*
X18879787Y-10441780D01*
X18892487Y-14053980D02*
X18912487Y-14073980D01*
X18912487Y-14053980D02*
X18892487Y-14073980D01*
X18892487Y-14104780D02*
X18912487Y-14124780D01*
X18912487Y-14104780D02*
X18892487Y-14124780D01*
X18892487Y-14155580D02*
X18912487Y-14175580D01*
X18912487Y-14155580D02*
X18892487Y-14175580D01*
X18968687Y-10320180D02*
X18988687Y-10340180D01*
X18988687Y-10320180D02*
X18968687Y-10340180D01*
X19020737Y-9608980D02*
X19040737Y-9628980D01*
X19040737Y-9608980D02*
X19020737Y-9628980D01*
X19120687Y-9583180D02*
X19140687Y-9603180D01*
X19140687Y-9583180D02*
X19120687Y-9603180D01*
X20083747Y-13510420D02*
X20103747Y-13530420D01*
X20103747Y-13510420D02*
X20083747Y-13530420D01*
X20568887Y-13408820D02*
X20588887Y-13428820D01*
X20588887Y-13408820D02*
X20568887Y-13428820D01*
X20568887Y-14854080D02*
X20588887Y-14874080D01*
X20588887Y-14854080D02*
X20568887Y-14874080D01*
X20627307Y-12684920D02*
X20647307Y-12704920D01*
X20647307Y-12684920D02*
X20627307Y-12704920D01*
X20822887Y-14066680D02*
X20842887Y-14086680D01*
X20842887Y-14066680D02*
X20822887Y-14086680D01*
X21318187Y-13114180D02*
X21338187Y-13134180D01*
X21338187Y-13114180D02*
X21318187Y-13134180D01*
X21375079Y-12970412D02*
X21395079Y-12990412D01*
X21395079Y-12970412D02*
X21375079Y-12990412D01*
X21589967Y-13187840D02*
X21609967Y-13207840D01*
X21609967Y-13187840D02*
X21589967Y-13207840D01*
X21597587Y-13863480D02*
X21617587Y-13883480D01*
X21617587Y-13863480D02*
X21597587Y-13883480D01*
X21610287Y-12504580D02*
X21630287Y-12524580D01*
X21630287Y-12504580D02*
X21610287Y-12524580D01*
X21627601Y-14085921D02*
X21647601Y-14105921D01*
X21647601Y-14085921D02*
X21627601Y-14105921D01*
X21628324Y-13756542D02*
X21648324Y-13776542D01*
X21648324Y-13756542D02*
X21628324Y-13776542D01*
X21638227Y-14269880D02*
X21658227Y-14289880D01*
X21658227Y-14269880D02*
X21638227Y-14289880D01*
X21650927Y-13698380D02*
X21670927Y-13718380D01*
X21670927Y-13698380D02*
X21650927Y-13718380D01*
X21745164Y-13718442D02*
X21765164Y-13738442D01*
X21765164Y-13718442D02*
X21745164Y-13738442D01*
X21766419Y-13500481D02*
X21786419Y-13520481D01*
X21786419Y-13500481D02*
X21766419Y-13520481D01*
X21780467Y-13081160D02*
X21800467Y-13101160D01*
X21800467Y-13081160D02*
X21780467Y-13101160D01*
X21816027Y-13043060D02*
X21836027Y-13063060D01*
X21836027Y-13043060D02*
X21816027Y-13063060D01*
X21816027Y-13116720D02*
X21836027Y-13136720D01*
X21836027Y-13116720D02*
X21816027Y-13136720D01*
X21818869Y-13568840D02*
X21838869Y-13588840D01*
X21838869Y-13568840D02*
X21818869Y-13588840D01*
X21827112Y-13333960D02*
X21847112Y-13353960D01*
X21847112Y-13333960D02*
X21827112Y-13353960D01*
X21851587Y-13081160D02*
X21871587Y-13101160D01*
X21871587Y-13081160D02*
X21851587Y-13101160D01*
X21879562Y-13371098D02*
X21899562Y-13391098D01*
X21899562Y-13371098D02*
X21879562Y-13391098D01*
X21893444Y-14050878D02*
X21913444Y-14070878D01*
X21913444Y-14050878D02*
X21893444Y-14070878D01*
X21917576Y-13989590D02*
X21937576Y-14009590D01*
X21937576Y-13989590D02*
X21917576Y-14009590D01*
X21927787Y-13063380D02*
X21947787Y-13083380D01*
X21947787Y-13063380D02*
X21927787Y-13083380D01*
X21935407Y-13558680D02*
X21955407Y-13578680D01*
X21955407Y-13558680D02*
X21935407Y-13578680D01*
X21965887Y-13025280D02*
X21985887Y-13045280D01*
X21985887Y-13025280D02*
X21965887Y-13045280D01*
X21965887Y-13101480D02*
X21985887Y-13121480D01*
X21985887Y-13101480D02*
X21965887Y-13121480D01*
X22002837Y-13480927D02*
X22022837Y-13500927D01*
X22022837Y-13480927D02*
X22002837Y-13500927D01*
X22003987Y-13063380D02*
X22023987Y-13083380D01*
X22023987Y-13063380D02*
X22003987Y-13083380D01*
X22019227Y-15011560D02*
X22039227Y-15031560D01*
X22039227Y-15011560D02*
X22019227Y-15031560D01*
X22103047Y-13375800D02*
X22123047Y-13395800D01*
X22123047Y-13375800D02*
X22103047Y-13395800D01*
X22118117Y-16253450D02*
X22138117Y-16273450D01*
X22138117Y-16253450D02*
X22118117Y-16273450D01*
X22125907Y-13518040D02*
X22145907Y-13538040D01*
X22145907Y-13518040D02*
X22125907Y-13538040D01*
X22133899Y-13960000D02*
X22153899Y-13980000D01*
X22153899Y-13960000D02*
X22133899Y-13980000D01*
X22141147Y-13416440D02*
X22161147Y-13436440D01*
X22161147Y-13416440D02*
X22141147Y-13436440D01*
X22146227Y-13340240D02*
X22166227Y-13360240D01*
X22166227Y-13340240D02*
X22146227Y-13360240D01*
X22154737Y-14069220D02*
X22174737Y-14089220D01*
X22174737Y-14069220D02*
X22154737Y-14089220D01*
X22170776Y-13044922D02*
X22190776Y-13064922D01*
X22190776Y-13044922D02*
X22170776Y-13064922D01*
X22179247Y-13380880D02*
X22199247Y-13400880D01*
X22199247Y-13380880D02*
X22179247Y-13400880D01*
X22179247Y-13452000D02*
X22199247Y-13472000D01*
X22199247Y-13452000D02*
X22179247Y-13472000D01*
X22185937Y-14012286D02*
X22205937Y-14032286D01*
X22205937Y-14012286D02*
X22185937Y-14032286D01*
X22209727Y-13340240D02*
X22229727Y-13360240D01*
X22229727Y-13340240D02*
X22209727Y-13360240D01*
X22212267Y-13418980D02*
X22232267Y-13438980D01*
X22232267Y-13418980D02*
X22212267Y-13438980D01*
X22222427Y-15285880D02*
X22242427Y-15305880D01*
X22242427Y-15285880D02*
X22222427Y-15305880D01*
X22238557Y-13191270D02*
X22258557Y-13211270D01*
X22258557Y-13191270D02*
X22238557Y-13211270D01*
X22245287Y-13375800D02*
X22265287Y-13395800D01*
X22265287Y-13375800D02*
X22245287Y-13395800D01*
X22255574Y-14111325D02*
X22275574Y-14131325D01*
X22275574Y-14111325D02*
X22255574Y-14131325D01*
X22259687Y-14041280D02*
X22279687Y-14061280D01*
X22279687Y-14041280D02*
X22259687Y-14061280D01*
X22318523Y-14020912D02*
X22338523Y-14040912D01*
X22338523Y-14020912D02*
X22318523Y-14040912D01*
X22328849Y-13945655D02*
X22348849Y-13965655D01*
X22348849Y-13945655D02*
X22328849Y-13965655D01*
X22511986Y-10891680D02*
X22531986Y-10911680D01*
X22531986Y-10891680D02*
X22511986Y-10911680D01*
X22514854Y-14068892D02*
X22534854Y-14088892D01*
X22534854Y-14068892D02*
X22514854Y-14088892D01*
X22519941Y-13614361D02*
X22539941Y-13634361D01*
X22539941Y-13614361D02*
X22519941Y-13634361D01*
X22562786Y-10701180D02*
X22582786Y-10721180D01*
X22582786Y-10701180D02*
X22562786Y-10721180D01*
X22572946Y-11168540D02*
X22592946Y-11188540D01*
X22592946Y-11168540D02*
X22572946Y-11188540D01*
X22606102Y-13318990D02*
X22626102Y-13338990D01*
X22626102Y-13318990D02*
X22606102Y-13338990D01*
X22611046Y-11116090D02*
X22631046Y-11136090D01*
X22631046Y-11116090D02*
X22611046Y-11136090D01*
X22635303Y-13606803D02*
X22655303Y-13626803D01*
X22655303Y-13606803D02*
X22635303Y-13626803D01*
X22652236Y-13664312D02*
X22672236Y-13684312D01*
X22672236Y-13664312D02*
X22652236Y-13684312D01*
X22685895Y-13716962D02*
X22705895Y-13736962D01*
X22705895Y-13716962D02*
X22685895Y-13736962D01*
X22779108Y-14151319D02*
X22799108Y-14171319D01*
X22799108Y-14151319D02*
X22779108Y-14171319D01*
X22844726Y-12128660D02*
X22864726Y-12148660D01*
X22864726Y-12128660D02*
X22844726Y-12148660D01*
X22844726Y-12738260D02*
X22864726Y-12758260D01*
X22864726Y-12738260D02*
X22844726Y-12758260D01*
X22870384Y-13249058D02*
X22890384Y-13269058D01*
X22890384Y-13249058D02*
X22870384Y-13269058D01*
X22900606Y-11272680D02*
X22920606Y-11292680D01*
X22920606Y-11272680D02*
X22900606Y-11292680D01*
X22961566Y-13335160D02*
X22981566Y-13355160D01*
X22981566Y-13335160D02*
X22961566Y-13355160D01*
X23014016Y-13294520D02*
X23034016Y-13314520D01*
X23034016Y-13294520D02*
X23014016Y-13314520D01*
X23094659Y-13364112D02*
X23114659Y-13384112D01*
X23114659Y-13364112D02*
X23094659Y-13384112D01*
X23103806Y-11366660D02*
X23123806Y-11386660D01*
X23123806Y-11366660D02*
X23103806Y-11386660D01*
X23103806Y-13261500D02*
X23123806Y-13281500D01*
X23123806Y-13261500D02*
X23103806Y-13281500D01*
X23156306Y-11337020D02*
X23176306Y-11357020D01*
X23176306Y-11337020D02*
X23156306Y-11357020D01*
X23223186Y-13380880D02*
X23243186Y-13400880D01*
X23243186Y-13380880D02*
X23223186Y-13400880D01*
X23291766Y-11666380D02*
X23311766Y-11686380D01*
X23311766Y-11666380D02*
X23291766Y-11686380D01*
X23356156Y-11718830D02*
X23376156Y-11738830D01*
X23376156Y-11718830D02*
X23356156Y-11738830D01*
X23375586Y-13495180D02*
X23395586Y-13515180D01*
X23395586Y-13495180D02*
X23375586Y-13515180D01*
X23561006Y-11613930D02*
X23581006Y-11633930D01*
X23581006Y-11613930D02*
X23561006Y-11633930D01*
X23909789Y-11870383D02*
X23929789Y-11890383D01*
X23929789Y-11870383D02*
X23909789Y-11890383D01*
X23944546Y-11786183D02*
X23964546Y-11806183D01*
X23964546Y-11786183D02*
X23944546Y-11806183D01*
X24756076Y-11606690D02*
X24776076Y-11626690D01*
X24776076Y-11606690D02*
X24756076Y-11626690D01*
X24805606Y-11717180D02*
X24825606Y-11737180D01*
X24825606Y-11717180D02*
X24805606Y-11737180D01*
X24815427Y-11468975D02*
X24835427Y-11488975D01*
X24835427Y-11468975D02*
X24815427Y-11488975D01*
X24818306Y-10624980D02*
X24838306Y-10644980D01*
X24838306Y-10624980D02*
X24818306Y-10644980D01*
X24823386Y-11247280D02*
X24843386Y-11267280D01*
X24843386Y-11247280D02*
X24823386Y-11267280D01*
X24973336Y-11247280D02*
X24993336Y-11267280D01*
X24993336Y-11247280D02*
X24973336Y-11267280D01*
X25018966Y-10033160D02*
X25038966Y-10053160D01*
X25038966Y-10033160D02*
X25018966Y-10053160D01*
X25039286Y-11513980D02*
X25059286Y-11533980D01*
X25059286Y-11513980D02*
X25039286Y-11533980D01*
X25293286Y-11239670D02*
X25313286Y-11259670D01*
X25313286Y-11239670D02*
X25293286Y-11259670D01*
X25996866Y-13909200D02*
X26016866Y-13929200D01*
X26016866Y-13909200D02*
X25996866Y-13929200D01*
X26291506Y-12959240D02*
X26311506Y-12979240D01*
X26311506Y-12959240D02*
X26291506Y-12979240D01*
X26296586Y-12555380D02*
X26316586Y-12575380D01*
X26316586Y-12555380D02*
X26296586Y-12575380D01*
X26296586Y-13418980D02*
X26316586Y-13438980D01*
X26316586Y-13418980D02*
X26296586Y-13438980D01*
X26677586Y-12710320D02*
X26697586Y-12730320D01*
X26697586Y-12710320D02*
X26677586Y-12730320D01*
X26682666Y-13624720D02*
X26702666Y-13644720D01*
X26702666Y-13624720D02*
X26682666Y-13644720D01*
X26748706Y-13777120D02*
X26768706Y-13797120D01*
X26768706Y-13777120D02*
X26748706Y-13797120D01*
X26755436Y-12999880D02*
X26775436Y-13019880D01*
X26775436Y-12999880D02*
X26755436Y-13019880D01*
X27223686Y-12517280D02*
X27243686Y-12537280D01*
X27243686Y-12517280D02*
X27223686Y-12537280D01*
X27223686Y-13380880D02*
X27243686Y-13400880D01*
X27243686Y-13380880D02*
X27223686Y-13400880D01*
X27249086Y-12707780D02*
X27269086Y-12727780D01*
X27269086Y-12707780D02*
X27249086Y-12727780D01*
X27249086Y-13571380D02*
X27269086Y-13591380D01*
X27269086Y-13571380D02*
X27249086Y-13591380D01*
D14*
X19275547Y-14389100D02*
G75*
G03*
X19275547Y-14389100I-20000J0D01*
G01*
X19280627Y-14470380D02*
G75*
G03*
X19280627Y-14470380I-20000J0D01*
G01*
X19361907Y-14470380D02*
G75*
G03*
X19361907Y-14470380I-20000J0D01*
G01*
X19366987Y-14389100D02*
G75*
G03*
X19366987Y-14389100I-20000J0D01*
G01*
X19405087Y-16146780D02*
G75*
G03*
X19405087Y-16146780I-20000J0D01*
G01*
X19938487Y-14965680D02*
G75*
G03*
X19938487Y-14965680I-20000J0D01*
G01*
X20103587Y-15689580D02*
G75*
G03*
X20103587Y-15689580I-20000J0D01*
G01*
X20249016Y-16400718D02*
G75*
G03*
X20249016Y-16400718I-20000J0D01*
G01*
X20433787Y-14978380D02*
G75*
G03*
X20433787Y-14978380I-20000J0D01*
G01*
X20471887Y-15918180D02*
G75*
G03*
X20471887Y-15918180I-20000J0D01*
G01*
X20586187Y-16654780D02*
G75*
G03*
X20586187Y-16654780I-20000J0D01*
G01*
X20700487Y-15905480D02*
G75*
G03*
X20700487Y-15905480I-20000J0D01*
G01*
X21830787Y-16680180D02*
G75*
G03*
X21830787Y-16680180I-20000J0D01*
G01*
X22097487Y-17073880D02*
G75*
G03*
X22097487Y-17073880I-20000J0D01*
G01*
X22113937Y-14330680D02*
G75*
G03*
X22113937Y-14330680I-20000J0D01*
G01*
X22145747Y-14914880D02*
G75*
G03*
X22145747Y-14914880I-20000J0D01*
G01*
X22160987Y-17378680D02*
G75*
G03*
X22160987Y-17378680I-20000J0D01*
G01*
X23799286Y-16311880D02*
G75*
G03*
X23799286Y-16311880I-20000J0D01*
G01*
X23992586Y-15481980D02*
G75*
G03*
X23992586Y-15481980I-20000J0D01*
G01*
X24218386Y-14991080D02*
G75*
G03*
X24218386Y-14991080I-20000J0D01*
G01*
X24599386Y-14965680D02*
G75*
G03*
X24599386Y-14965680I-20000J0D01*
G01*
X24751786Y-15689580D02*
G75*
G03*
X24751786Y-15689580I-20000J0D01*
G01*
X24879086Y-16401224D02*
G75*
G03*
X24879086Y-16401224I-20000J0D01*
G01*
X24929586Y-15206980D02*
G75*
G03*
X24929586Y-15206980I-20000J0D01*
G01*
X25107386Y-15905480D02*
G75*
G03*
X25107386Y-15905480I-20000J0D01*
G01*
X25208986Y-16654780D02*
G75*
G03*
X25208986Y-16654780I-20000J0D01*
G01*
X25335986Y-15905480D02*
G75*
G03*
X25335986Y-15905480I-20000J0D01*
G01*
X26593286Y-15587980D02*
G75*
G03*
X26593286Y-15587980I-20000J0D01*
G01*
X26593286Y-16464280D02*
G75*
G03*
X26593286Y-16464280I-20000J0D01*
G01*
X26694886Y-16654780D02*
G75*
G03*
X26694886Y-16654780I-20000J0D01*
G01*
X26707586Y-16997680D02*
G75*
G03*
X26707586Y-16997680I-20000J0D01*
G01*
X26847286Y-17378680D02*
G75*
G03*
X26847286Y-17378680I-20000J0D01*
G01*
X27202886Y-15994380D02*
G75*
G03*
X27202886Y-15994380I-20000J0D01*
G01*
X27418786Y-15181580D02*
G75*
G03*
X27418786Y-15181580I-20000J0D01*
G01*
D15*
X21244247Y-19617640D02*
X21244247Y-19667640D01*
X21219247Y-19642640D02*
X21269247Y-19642640D01*
X21244247Y-19743640D02*
X21244247Y-19793640D01*
X21219247Y-19768640D02*
X21269247Y-19768640D01*
X21319247Y-19514640D02*
X21319247Y-19564640D01*
X21294247Y-19539640D02*
X21344247Y-19539640D01*
X21319247Y-19846640D02*
X21319247Y-19896640D01*
X21294247Y-19871640D02*
X21344247Y-19871640D01*
X21439247Y-19475640D02*
X21439247Y-19525640D01*
X21414247Y-19500640D02*
X21464247Y-19500640D01*
X21439247Y-19885640D02*
X21439247Y-19935640D01*
X21414247Y-19910640D02*
X21464247Y-19910640D01*
X21572247Y-19475640D02*
X21572247Y-19525640D01*
X21547247Y-19500640D02*
X21597247Y-19500640D01*
X21572247Y-19885640D02*
X21572247Y-19935640D01*
X21547247Y-19910640D02*
X21597247Y-19910640D01*
X21706247Y-19475640D02*
X21706247Y-19525640D01*
X21681247Y-19500640D02*
X21731247Y-19500640D01*
X21706247Y-19885640D02*
X21706247Y-19935640D01*
X21681247Y-19910640D02*
X21731247Y-19910640D01*
X21839247Y-19475640D02*
X21839247Y-19525640D01*
X21814247Y-19500640D02*
X21864247Y-19500640D01*
X21839247Y-19885640D02*
X21839247Y-19935640D01*
X21814247Y-19910640D02*
X21864247Y-19910640D01*
X21959247Y-19514640D02*
X21959247Y-19564640D01*
X21934247Y-19539640D02*
X21984247Y-19539640D01*
X21959247Y-19846640D02*
X21959247Y-19896640D01*
X21934247Y-19871640D02*
X21984247Y-19871640D01*
X22034247Y-19617640D02*
X22034247Y-19667640D01*
X22009247Y-19642640D02*
X22059247Y-19642640D01*
X22034247Y-19743640D02*
X22034247Y-19793640D01*
X22009247Y-19768640D02*
X22059247Y-19768640D01*
X22244247Y-19617640D02*
X22244247Y-19667640D01*
X22219247Y-19642640D02*
X22269247Y-19642640D01*
X22244247Y-19743640D02*
X22244247Y-19793640D01*
X22219247Y-19768640D02*
X22269247Y-19768640D01*
X22319247Y-19514640D02*
X22319247Y-19564640D01*
X22294247Y-19539640D02*
X22344247Y-19539640D01*
X22319247Y-19846640D02*
X22319247Y-19896640D01*
X22294247Y-19871640D02*
X22344247Y-19871640D01*
X22439246Y-19475640D02*
X22439246Y-19525640D01*
X22414246Y-19500640D02*
X22464246Y-19500640D01*
X22439246Y-19885640D02*
X22439246Y-19935640D01*
X22414246Y-19910640D02*
X22464246Y-19910640D01*
X22572246Y-19475640D02*
X22572246Y-19525640D01*
X22547246Y-19500640D02*
X22597246Y-19500640D01*
X22572246Y-19885640D02*
X22572246Y-19935640D01*
X22547246Y-19910640D02*
X22597246Y-19910640D01*
X22706246Y-19475640D02*
X22706246Y-19525640D01*
X22681246Y-19500640D02*
X22731246Y-19500640D01*
X22706246Y-19885640D02*
X22706246Y-19935640D01*
X22681246Y-19910640D02*
X22731246Y-19910640D01*
X22839246Y-19475640D02*
X22839246Y-19525640D01*
X22814246Y-19500640D02*
X22864246Y-19500640D01*
X22839246Y-19885640D02*
X22839246Y-19935640D01*
X22814246Y-19910640D02*
X22864246Y-19910640D01*
X22959246Y-19514640D02*
X22959246Y-19564640D01*
X22934246Y-19539640D02*
X22984246Y-19539640D01*
X22959246Y-19846640D02*
X22959246Y-19896640D01*
X22934246Y-19871640D02*
X22984246Y-19871640D01*
X23034246Y-19617640D02*
X23034246Y-19667640D01*
X23009246Y-19642640D02*
X23059246Y-19642640D01*
X23034246Y-19743640D02*
X23034246Y-19793640D01*
X23009246Y-19768640D02*
X23059246Y-19768640D01*
X25887886Y-19617640D02*
X25887886Y-19667640D01*
X25862886Y-19642640D02*
X25912886Y-19642640D01*
X25887886Y-19743640D02*
X25887886Y-19793640D01*
X25862886Y-19768640D02*
X25912886Y-19768640D01*
X25962886Y-19514640D02*
X25962886Y-19564640D01*
X25937886Y-19539640D02*
X25987886Y-19539640D01*
X25962886Y-19846640D02*
X25962886Y-19896640D01*
X25937886Y-19871640D02*
X25987886Y-19871640D01*
X26082886Y-19475640D02*
X26082886Y-19525640D01*
X26057886Y-19500640D02*
X26107886Y-19500640D01*
X26082886Y-19885640D02*
X26082886Y-19935640D01*
X26057886Y-19910640D02*
X26107886Y-19910640D01*
X26215886Y-19475640D02*
X26215886Y-19525640D01*
X26190886Y-19500640D02*
X26240886Y-19500640D01*
X26215886Y-19885640D02*
X26215886Y-19935640D01*
X26190886Y-19910640D02*
X26240886Y-19910640D01*
X26349886Y-19475640D02*
X26349886Y-19525640D01*
X26324886Y-19500640D02*
X26374886Y-19500640D01*
X26349886Y-19885640D02*
X26349886Y-19935640D01*
X26324886Y-19910640D02*
X26374886Y-19910640D01*
X26482886Y-19475640D02*
X26482886Y-19525640D01*
X26457886Y-19500640D02*
X26507886Y-19500640D01*
X26482886Y-19885640D02*
X26482886Y-19935640D01*
X26457886Y-19910640D02*
X26507886Y-19910640D01*
X26602886Y-19514640D02*
X26602886Y-19564640D01*
X26577886Y-19539640D02*
X26627886Y-19539640D01*
X26602886Y-19846640D02*
X26602886Y-19896640D01*
X26577886Y-19871640D02*
X26627886Y-19871640D01*
X26677886Y-19617640D02*
X26677886Y-19667640D01*
X26652886Y-19642640D02*
X26702886Y-19642640D01*
X26677886Y-19743640D02*
X26677886Y-19793640D01*
X26652886Y-19768640D02*
X26702886Y-19768640D01*
X26887886Y-19617640D02*
X26887886Y-19667640D01*
X26862886Y-19642640D02*
X26912886Y-19642640D01*
X26887886Y-19743640D02*
X26887886Y-19793640D01*
X26862886Y-19768640D02*
X26912886Y-19768640D01*
X26962886Y-19514640D02*
X26962886Y-19564640D01*
X26937886Y-19539640D02*
X26987886Y-19539640D01*
X26962886Y-19846640D02*
X26962886Y-19896640D01*
X26937886Y-19871640D02*
X26987886Y-19871640D01*
X27082886Y-19475640D02*
X27082886Y-19525640D01*
X27057886Y-19500640D02*
X27107886Y-19500640D01*
X27082886Y-19885640D02*
X27082886Y-19935640D01*
X27057886Y-19910640D02*
X27107886Y-19910640D01*
X27215886Y-19475640D02*
X27215886Y-19525640D01*
X27190886Y-19500640D02*
X27240886Y-19500640D01*
X27215886Y-19885640D02*
X27215886Y-19935640D01*
X27190886Y-19910640D02*
X27240886Y-19910640D01*
X27349886Y-19475640D02*
X27349886Y-19525640D01*
X27324886Y-19500640D02*
X27374886Y-19500640D01*
X27349886Y-19885640D02*
X27349886Y-19935640D01*
X27324886Y-19910640D02*
X27374886Y-19910640D01*
X27482886Y-19475640D02*
X27482886Y-19525640D01*
X27457886Y-19500640D02*
X27507886Y-19500640D01*
X27482886Y-19885640D02*
X27482886Y-19935640D01*
X27457886Y-19910640D02*
X27507886Y-19910640D01*
X27602886Y-19514640D02*
X27602886Y-19564640D01*
X27577886Y-19539640D02*
X27627886Y-19539640D01*
X27602886Y-19846640D02*
X27602886Y-19896640D01*
X27577886Y-19871640D02*
X27627886Y-19871640D01*
X27677886Y-19617640D02*
X27677886Y-19667640D01*
X27652886Y-19642640D02*
X27702886Y-19642640D01*
X27677886Y-19743640D02*
X27677886Y-19793640D01*
X27652886Y-19768640D02*
X27702886Y-19768640D01*
D16*
X18694900Y-9047893D02*
X18694900Y-9005467D01*
X18652473Y-9005467D01*
X18652473Y-9047893D01*
X18694900Y-9047893D01*
D12*
X18643687Y-8986680D02*
X18643687Y-9066680D01*
X18703687Y-8986680D02*
X18703687Y-9066680D01*
X18643687Y-9066680D02*
G75*
G03*
X18703687Y-9066680I30000J0D01*
G01*
X18703687Y-8986680D02*
G75*
G03*
X18643687Y-8986680I-30000J0D01*
G01*
D16*
X18694900Y-9464893D02*
X18694900Y-9422467D01*
X18652473Y-9422467D01*
X18652473Y-9464893D01*
X18694900Y-9464893D01*
D12*
X18643687Y-9388680D02*
X18643687Y-9498680D01*
X18703687Y-9388680D02*
X18703687Y-9498680D01*
X18643687Y-9498680D02*
G75*
G03*
X18703687Y-9498680I30000J0D01*
G01*
X18703687Y-9388680D02*
G75*
G03*
X18643687Y-9388680I-30000J0D01*
G01*
D16*
X19558900Y-9047893D02*
X19558900Y-9005467D01*
X19516473Y-9005467D01*
X19516473Y-9047893D01*
X19558900Y-9047893D01*
D12*
X19507687Y-8986680D02*
X19507687Y-9066680D01*
X19567687Y-8986680D02*
X19567687Y-9066680D01*
X19507687Y-9066680D02*
G75*
G03*
X19567687Y-9066680I30000J0D01*
G01*
X19567687Y-8986680D02*
G75*
G03*
X19507687Y-8986680I-30000J0D01*
G01*
D16*
X19558900Y-9464893D02*
X19558900Y-9422467D01*
X19516473Y-9422467D01*
X19516473Y-9464893D01*
X19558900Y-9464893D01*
D12*
X19507687Y-9388680D02*
X19507687Y-9498680D01*
X19567687Y-9388680D02*
X19567687Y-9498680D01*
X19507687Y-9498680D02*
G75*
G03*
X19567687Y-9498680I30000J0D01*
G01*
X19567687Y-9388680D02*
G75*
G03*
X19507687Y-9388680I-30000J0D01*
G01*
D17*
X16171986Y-9816580D02*
X16204486Y-9784080D01*
X16171986Y-9751580D01*
X16139486Y-9784080D01*
X16171986Y-9816580D01*
X18165887Y-10565880D02*
X18198387Y-10533380D01*
X18165887Y-10500880D01*
X18133387Y-10533380D01*
X18165887Y-10565880D01*
X18254787Y-10426180D02*
X18287287Y-10393680D01*
X18254787Y-10361180D01*
X18222287Y-10393680D01*
X18254787Y-10426180D01*
D18*
X17474887Y-20387080D02*
X17552887Y-20465080D01*
X17552887Y-20387080D02*
X17474887Y-20465080D01*
X17552887Y-20426080D02*
G75*
G03*
X17552887Y-20426080I-39000J0D01*
G01*
X17474887Y-20897080D02*
X17552887Y-20975080D01*
X17552887Y-20897080D02*
X17474887Y-20975080D01*
X17552887Y-20936080D02*
G75*
G03*
X17552887Y-20936080I-39000J0D01*
G01*
X18299887Y-20387080D02*
X18377887Y-20465080D01*
X18377887Y-20387080D02*
X18299887Y-20465080D01*
X18377887Y-20426080D02*
G75*
G03*
X18377887Y-20426080I-39000J0D01*
G01*
X18299887Y-20897080D02*
X18377887Y-20975080D01*
X18377887Y-20897080D02*
X18299887Y-20975080D01*
X18377887Y-20936080D02*
G75*
G03*
X18377887Y-20936080I-39000J0D01*
G01*
D19*
X15229586Y-15865480D02*
X15309586Y-15945480D01*
X15309586Y-15865480D02*
X15229586Y-15945480D01*
X15269586Y-15865480D02*
X15269586Y-15945480D01*
X15229586Y-15905480D02*
X15309586Y-15905480D01*
X16729586Y-15865480D02*
X16809587Y-15945480D01*
X16809587Y-15865480D02*
X16729586Y-15945480D01*
X16769586Y-15865480D02*
X16769586Y-15945480D01*
X16729586Y-15905480D02*
X16809587Y-15905480D01*
X21908247Y-17525640D02*
X21988247Y-17605640D01*
X21988247Y-17525640D02*
X21908247Y-17605640D01*
X21948247Y-17525640D02*
X21948247Y-17605640D01*
X21908247Y-17565640D02*
X21988247Y-17565640D01*
X22099247Y-17525640D02*
X22179247Y-17605640D01*
X22179247Y-17525640D02*
X22099247Y-17605640D01*
X22139247Y-17525640D02*
X22139247Y-17605640D01*
X22099247Y-17565640D02*
X22179247Y-17565640D01*
X22290247Y-17525640D02*
X22370246Y-17605640D01*
X22370246Y-17525640D02*
X22290247Y-17605640D01*
X22330247Y-17525640D02*
X22330247Y-17605640D01*
X22290247Y-17565640D02*
X22370246Y-17565640D01*
X26551886Y-17525640D02*
X26631886Y-17605640D01*
X26631886Y-17525640D02*
X26551886Y-17605640D01*
X26591886Y-17525640D02*
X26591886Y-17605640D01*
X26551886Y-17565640D02*
X26631886Y-17565640D01*
X26742886Y-17525640D02*
X26822886Y-17605640D01*
X26822886Y-17525640D02*
X26742886Y-17605640D01*
X26782886Y-17525640D02*
X26782886Y-17605640D01*
X26742886Y-17565640D02*
X26822886Y-17565640D01*
X26933886Y-17525640D02*
X27013886Y-17605640D01*
X27013886Y-17525640D02*
X26933886Y-17605640D01*
X26973886Y-17525640D02*
X26973886Y-17605640D01*
X26933886Y-17565640D02*
X27013886Y-17565640D01*
D11*
X15594586Y-16617480D02*
X15694586Y-16717480D01*
X15694586Y-16617480D02*
X15594586Y-16717480D01*
X15679942Y-16702836D02*
X15679942Y-16632124D01*
X15609231Y-16632124D01*
X15609231Y-16702836D01*
X15679942Y-16702836D01*
X16173186Y-20351680D02*
X16273186Y-20451680D01*
X16273186Y-20351680D02*
X16173186Y-20451680D01*
X16258542Y-20437036D02*
X16258542Y-20366324D01*
X16187831Y-20366324D01*
X16187831Y-20437036D01*
X16258542Y-20437036D01*
X16344586Y-16617480D02*
X16444586Y-16717480D01*
X16444586Y-16617480D02*
X16344586Y-16717480D01*
X16429942Y-16702836D02*
X16429942Y-16632124D01*
X16359231Y-16632124D01*
X16359231Y-16702836D01*
X16429942Y-16702836D01*
X16604586Y-18147480D02*
X16704586Y-18247480D01*
X16704586Y-18147480D02*
X16604586Y-18247480D01*
X16689942Y-18232836D02*
X16689942Y-18162124D01*
X16619231Y-18162124D01*
X16619231Y-18232836D01*
X16689942Y-18232836D01*
X16604586Y-18897480D02*
X16704586Y-18997480D01*
X16704586Y-18897480D02*
X16604586Y-18997480D01*
X16689942Y-18982836D02*
X16689942Y-18912124D01*
X16619231Y-18912124D01*
X16619231Y-18982836D01*
X16689942Y-18982836D01*
X16633186Y-20351680D02*
X16733186Y-20451680D01*
X16733186Y-20351680D02*
X16633186Y-20451680D01*
X16718542Y-20437036D02*
X16718542Y-20366324D01*
X16647831Y-20366324D01*
X16647831Y-20437036D01*
X16718542Y-20437036D01*
X19006687Y-17505280D02*
X19106687Y-17605280D01*
X19106687Y-17505280D02*
X19006687Y-17605280D01*
X19092042Y-17590636D02*
X19092042Y-17519924D01*
X19021331Y-17519924D01*
X19021331Y-17590636D01*
X19092042Y-17590636D01*
X19006687Y-18505280D02*
X19106687Y-18605280D01*
X19106687Y-18505280D02*
X19006687Y-18605280D01*
X19092042Y-18590636D02*
X19092042Y-18519924D01*
X19021331Y-18519924D01*
X19021331Y-18590636D01*
X19092042Y-18590636D01*
X19703387Y-12274080D02*
X19803387Y-12374080D01*
X19803387Y-12274080D02*
X19703387Y-12374080D01*
X19788742Y-12359436D02*
X19788742Y-12288724D01*
X19718031Y-12288724D01*
X19718031Y-12359436D01*
X19788742Y-12359436D01*
X19945087Y-21494680D02*
X20045087Y-21594680D01*
X20045087Y-21494680D02*
X19945087Y-21594680D01*
X20030442Y-21580036D02*
X20030442Y-21509324D01*
X19959731Y-21509324D01*
X19959731Y-21580036D01*
X20030442Y-21580036D01*
X19957387Y-12274080D02*
X20057387Y-12374080D01*
X20057387Y-12274080D02*
X19957387Y-12374080D01*
X20042742Y-12359436D02*
X20042742Y-12288724D01*
X19972031Y-12288724D01*
X19972031Y-12359436D01*
X20042742Y-12359436D01*
X20211387Y-12274080D02*
X20311387Y-12374080D01*
X20311387Y-12274080D02*
X20211387Y-12374080D01*
X20296742Y-12359436D02*
X20296742Y-12288724D01*
X20226031Y-12288724D01*
X20226031Y-12359436D01*
X20296742Y-12359436D01*
X20276687Y-17505280D02*
X20376687Y-17605280D01*
X20376687Y-17505280D02*
X20276687Y-17605280D01*
X20362042Y-17590636D02*
X20362042Y-17519924D01*
X20291331Y-17519924D01*
X20291331Y-17590636D01*
X20362042Y-17590636D01*
X20276687Y-18505280D02*
X20376687Y-18605280D01*
X20376687Y-18505280D02*
X20276687Y-18605280D01*
X20362042Y-18590636D02*
X20362042Y-18519924D01*
X20291331Y-18519924D01*
X20291331Y-18590636D01*
X20362042Y-18590636D01*
X20405087Y-21494680D02*
X20505087Y-21594680D01*
X20505087Y-21494680D02*
X20405087Y-21594680D01*
X20490442Y-21580036D02*
X20490442Y-21509324D01*
X20419731Y-21509324D01*
X20419731Y-21580036D01*
X20490442Y-21580036D01*
X20465387Y-12274080D02*
X20565387Y-12374080D01*
X20565387Y-12274080D02*
X20465387Y-12374080D01*
X20550742Y-12359436D02*
X20550742Y-12288724D01*
X20480031Y-12288724D01*
X20480031Y-12359436D01*
X20550742Y-12359436D01*
X20719387Y-12274080D02*
X20819387Y-12374080D01*
X20819387Y-12274080D02*
X20719387Y-12374080D01*
X20804742Y-12359436D02*
X20804742Y-12288724D01*
X20734031Y-12288724D01*
X20734031Y-12359436D01*
X20804742Y-12359436D01*
X20973387Y-12274080D02*
X21073387Y-12374080D01*
X21073387Y-12274080D02*
X20973387Y-12374080D01*
X21058742Y-12359436D02*
X21058742Y-12288724D01*
X20988031Y-12288724D01*
X20988031Y-12359436D01*
X21058742Y-12359436D01*
X21104187Y-9840760D02*
X21204187Y-9940760D01*
X21204187Y-9840760D02*
X21104187Y-9940760D01*
X21189542Y-9926116D02*
X21189542Y-9855404D01*
X21118831Y-9855404D01*
X21118831Y-9926116D01*
X21189542Y-9926116D01*
X21242687Y-9556760D02*
X21342687Y-9656760D01*
X21342687Y-9556760D02*
X21242687Y-9656760D01*
X21328042Y-9642116D02*
X21328042Y-9571404D01*
X21257331Y-9571404D01*
X21257331Y-9642116D01*
X21328042Y-9642116D01*
X21381187Y-9840760D02*
X21481187Y-9940760D01*
X21481187Y-9840760D02*
X21381187Y-9940760D01*
X21466542Y-9926116D02*
X21466542Y-9855404D01*
X21395831Y-9855404D01*
X21395831Y-9926116D01*
X21466542Y-9926116D01*
X21519687Y-9556760D02*
X21619687Y-9656760D01*
X21619687Y-9556760D02*
X21519687Y-9656760D01*
X21605042Y-9642116D02*
X21605042Y-9571404D01*
X21534331Y-9571404D01*
X21534331Y-9642116D01*
X21605042Y-9642116D01*
X21658187Y-9840760D02*
X21758187Y-9940760D01*
X21758187Y-9840760D02*
X21658187Y-9940760D01*
X21743542Y-9926116D02*
X21743542Y-9855404D01*
X21672831Y-9855404D01*
X21672831Y-9926116D01*
X21743542Y-9926116D01*
X21796687Y-9556760D02*
X21896687Y-9656760D01*
X21896687Y-9556760D02*
X21796687Y-9656760D01*
X21882042Y-9642116D02*
X21882042Y-9571404D01*
X21811331Y-9571404D01*
X21811331Y-9642116D01*
X21882042Y-9642116D01*
X21935187Y-9840760D02*
X22035187Y-9940760D01*
X22035187Y-9840760D02*
X21935187Y-9940760D01*
X22020542Y-9926116D02*
X22020542Y-9855404D01*
X21949831Y-9855404D01*
X21949831Y-9926116D01*
X22020542Y-9926116D01*
X22073687Y-9556760D02*
X22173687Y-9656760D01*
X22173687Y-9556760D02*
X22073687Y-9656760D01*
X22159042Y-9642116D02*
X22159042Y-9571404D01*
X22088331Y-9571404D01*
X22088331Y-9642116D01*
X22159042Y-9642116D01*
X22212187Y-9840760D02*
X22312187Y-9940760D01*
X22312187Y-9840760D02*
X22212187Y-9940760D01*
X22297542Y-9926116D02*
X22297542Y-9855404D01*
X22226831Y-9855404D01*
X22226831Y-9926116D01*
X22297542Y-9926116D01*
X23635086Y-17505280D02*
X23735086Y-17605280D01*
X23735086Y-17505280D02*
X23635086Y-17605280D01*
X23720442Y-17590636D02*
X23720442Y-17519924D01*
X23649731Y-17519924D01*
X23649731Y-17590636D01*
X23720442Y-17590636D01*
X23635086Y-18505280D02*
X23735086Y-18605280D01*
X23735086Y-18505280D02*
X23635086Y-18605280D01*
X23720442Y-18590636D02*
X23720442Y-18519924D01*
X23649731Y-18519924D01*
X23649731Y-18590636D01*
X23720442Y-18590636D01*
X24573486Y-21494680D02*
X24673486Y-21594680D01*
X24673486Y-21494680D02*
X24573486Y-21594680D01*
X24658842Y-21580036D02*
X24658842Y-21509324D01*
X24588131Y-21509324D01*
X24588131Y-21580036D01*
X24658842Y-21580036D01*
X24905086Y-17505280D02*
X25005086Y-17605280D01*
X25005086Y-17505280D02*
X24905086Y-17605280D01*
X24990442Y-17590636D02*
X24990442Y-17519924D01*
X24919731Y-17519924D01*
X24919731Y-17590636D01*
X24990442Y-17590636D01*
X24905086Y-18505280D02*
X25005086Y-18605280D01*
X25005086Y-18505280D02*
X24905086Y-18605280D01*
X24990442Y-18590636D02*
X24990442Y-18519924D01*
X24919731Y-18519924D01*
X24919731Y-18590636D01*
X24990442Y-18590636D01*
X25033486Y-21494680D02*
X25133486Y-21594680D01*
X25133486Y-21494680D02*
X25033486Y-21594680D01*
X25118842Y-21580036D02*
X25118842Y-21509324D01*
X25048131Y-21509324D01*
X25048131Y-21580036D01*
X25118842Y-21580036D01*
D20*
X14320086Y-9195680D02*
X14430086Y-9305680D01*
X14430086Y-9195680D02*
X14320086Y-9305680D01*
X14375086Y-9305680D02*
X14430086Y-9250680D01*
X14375086Y-9195680D01*
X14320086Y-9250680D01*
X14375086Y-9305680D01*
X14320086Y-9449680D02*
X14430086Y-9559680D01*
X14430086Y-9449680D02*
X14320086Y-9559680D01*
X14375086Y-9559680D02*
X14430086Y-9504680D01*
X14375086Y-9449680D01*
X14320086Y-9504680D01*
X14375086Y-9559680D01*
X14320086Y-9881480D02*
X14430086Y-9991480D01*
X14430086Y-9881480D02*
X14320086Y-9991480D01*
X14375086Y-9991480D02*
X14430086Y-9936480D01*
X14375086Y-9881480D01*
X14320086Y-9936480D01*
X14375086Y-9991480D01*
X14320086Y-10135480D02*
X14430086Y-10245480D01*
X14430086Y-10135480D02*
X14320086Y-10245480D01*
X14375086Y-10245480D02*
X14430086Y-10190480D01*
X14375086Y-10135480D01*
X14320086Y-10190480D01*
X14375086Y-10245480D01*
X27750186Y-9259180D02*
X27860186Y-9369180D01*
X27860186Y-9259180D02*
X27750186Y-9369180D01*
X27805186Y-9369180D02*
X27860186Y-9314180D01*
X27805186Y-9259180D01*
X27750186Y-9314180D01*
X27805186Y-9369180D01*
X27750186Y-9513180D02*
X27860186Y-9623180D01*
X27860186Y-9513180D02*
X27750186Y-9623180D01*
X27805186Y-9623180D02*
X27860186Y-9568180D01*
X27805186Y-9513180D01*
X27750186Y-9568180D01*
X27805186Y-9623180D01*
X27750186Y-10033880D02*
X27860186Y-10143880D01*
X27860186Y-10033880D02*
X27750186Y-10143880D01*
X27805186Y-10143880D02*
X27860186Y-10088880D01*
X27805186Y-10033880D01*
X27750186Y-10088880D01*
X27805186Y-10143880D01*
X27750186Y-10287880D02*
X27860186Y-10397880D01*
X27860186Y-10287880D02*
X27750186Y-10397880D01*
X27805186Y-10397880D02*
X27860186Y-10342880D01*
X27805186Y-10287880D01*
X27750186Y-10342880D01*
X27805186Y-10397880D01*
X27750186Y-10884780D02*
X27860186Y-10994780D01*
X27860186Y-10884780D02*
X27750186Y-10994780D01*
X27805186Y-10994780D02*
X27860186Y-10939780D01*
X27805186Y-10884780D01*
X27750186Y-10939780D01*
X27805186Y-10994780D01*
X27750186Y-11138780D02*
X27860186Y-11248780D01*
X27860186Y-11138780D02*
X27750186Y-11248780D01*
X27805186Y-11248780D02*
X27860186Y-11193780D01*
X27805186Y-11138780D01*
X27750186Y-11193780D01*
X27805186Y-11248780D01*
X27750186Y-11710280D02*
X27860186Y-11820280D01*
X27860186Y-11710280D02*
X27750186Y-11820280D01*
X27805186Y-11820280D02*
X27860186Y-11765280D01*
X27805186Y-11710280D01*
X27750186Y-11765280D01*
X27805186Y-11820280D01*
X27750186Y-11964280D02*
X27860186Y-12074280D01*
X27860186Y-11964280D02*
X27750186Y-12074280D01*
X27805186Y-12074280D02*
X27860186Y-12019280D01*
X27805186Y-11964280D01*
X27750186Y-12019280D01*
X27805186Y-12074280D01*
X27750186Y-12726280D02*
X27860186Y-12836280D01*
X27860186Y-12726280D02*
X27750186Y-12836280D01*
X27805186Y-12836280D02*
X27860186Y-12781280D01*
X27805186Y-12726280D01*
X27750186Y-12781280D01*
X27805186Y-12836280D01*
X27750186Y-12980280D02*
X27860186Y-13090280D01*
X27860186Y-12980280D02*
X27750186Y-13090280D01*
X27805186Y-13090280D02*
X27860186Y-13035280D01*
X27805186Y-12980280D01*
X27750186Y-13035280D01*
X27805186Y-13090280D01*
X27750186Y-13589880D02*
X27860186Y-13699880D01*
X27860186Y-13589880D02*
X27750186Y-13699880D01*
X27805186Y-13699880D02*
X27860186Y-13644880D01*
X27805186Y-13589880D01*
X27750186Y-13644880D01*
X27805186Y-13699880D01*
X27750186Y-13843880D02*
X27860186Y-13953880D01*
X27860186Y-13843880D02*
X27750186Y-13953880D01*
X27805186Y-13953880D02*
X27860186Y-13898880D01*
X27805186Y-13843880D01*
X27750186Y-13898880D01*
X27805186Y-13953880D01*
X27750186Y-14758280D02*
X27860186Y-14868280D01*
X27860186Y-14758280D02*
X27750186Y-14868280D01*
X27805186Y-14868280D02*
X27860186Y-14813280D01*
X27805186Y-14758280D01*
X27750186Y-14813280D01*
X27805186Y-14868280D01*
X27750186Y-15012280D02*
X27860186Y-15122280D01*
X27860186Y-15012280D02*
X27750186Y-15122280D01*
X27805186Y-15122280D02*
X27860186Y-15067280D01*
X27805186Y-15012280D01*
X27750186Y-15067280D01*
X27805186Y-15122280D01*
X27750186Y-15621880D02*
X27860186Y-15731880D01*
X27860186Y-15621880D02*
X27750186Y-15731880D01*
X27805186Y-15731880D02*
X27860186Y-15676880D01*
X27805186Y-15621880D01*
X27750186Y-15676880D01*
X27805186Y-15731880D01*
X27750186Y-15875880D02*
X27860186Y-15985880D01*
X27860186Y-15875880D02*
X27750186Y-15985880D01*
X27805186Y-15985880D02*
X27860186Y-15930880D01*
X27805186Y-15875880D01*
X27750186Y-15930880D01*
X27805186Y-15985880D01*
D21*
X23969786Y-9345580D02*
X23969786Y-9460580D01*
X23912286Y-9403080D02*
X24027286Y-9403080D01*
X24027286Y-9403080D02*
G75*
G03*
X24027286Y-9403080I-57500J0D01*
G01*
X23969786Y-9599580D02*
X23969786Y-9714580D01*
X23912286Y-9657080D02*
X24027286Y-9657080D01*
X24027286Y-9657080D02*
G75*
G03*
X24027286Y-9657080I-57500J0D01*
G01*
X23969786Y-9853580D02*
X23969786Y-9968580D01*
X23912286Y-9911080D02*
X24027286Y-9911080D01*
X24027286Y-9911080D02*
G75*
G03*
X24027286Y-9911080I-57500J0D01*
G01*
X23969786Y-10107580D02*
X23969786Y-10222580D01*
X23912286Y-10165080D02*
X24027286Y-10165080D01*
X24027286Y-10165080D02*
G75*
G03*
X24027286Y-10165080I-57500J0D01*
G01*
X23969786Y-10361580D02*
X23969786Y-10476580D01*
X23912286Y-10419080D02*
X24027286Y-10419080D01*
X24027286Y-10419080D02*
G75*
G03*
X24027286Y-10419080I-57500J0D01*
G01*
X24223786Y-9345580D02*
X24223786Y-9460580D01*
X24166286Y-9403080D02*
X24281286Y-9403080D01*
X24281286Y-9403080D02*
G75*
G03*
X24281286Y-9403080I-57500J0D01*
G01*
X24223786Y-9599580D02*
X24223786Y-9714580D01*
X24166286Y-9657080D02*
X24281286Y-9657080D01*
X24281286Y-9657080D02*
G75*
G03*
X24281286Y-9657080I-57500J0D01*
G01*
X24223786Y-9853580D02*
X24223786Y-9968580D01*
X24166286Y-9911080D02*
X24281286Y-9911080D01*
X24281286Y-9911080D02*
G75*
G03*
X24281286Y-9911080I-57500J0D01*
G01*
X24223786Y-10107580D02*
X24223786Y-10222580D01*
X24166286Y-10165080D02*
X24281286Y-10165080D01*
X24281286Y-10165080D02*
G75*
G03*
X24281286Y-10165080I-57500J0D01*
G01*
X24223786Y-10361580D02*
X24223786Y-10476580D01*
X24166286Y-10419080D02*
X24281286Y-10419080D01*
X24281286Y-10419080D02*
G75*
G03*
X24281286Y-10419080I-57500J0D01*
G01*
X25100086Y-9350660D02*
X25100086Y-9465660D01*
X25042586Y-9408160D02*
X25157586Y-9408160D01*
X25157586Y-9408160D02*
G75*
G03*
X25157586Y-9408160I-57500J0D01*
G01*
X25100086Y-9604660D02*
X25100086Y-9719660D01*
X25042586Y-9662160D02*
X25157586Y-9662160D01*
X25157586Y-9662160D02*
G75*
G03*
X25157586Y-9662160I-57500J0D01*
G01*
X25100086Y-9858660D02*
X25100086Y-9973660D01*
X25042586Y-9916160D02*
X25157586Y-9916160D01*
X25157586Y-9916160D02*
G75*
G03*
X25157586Y-9916160I-57500J0D01*
G01*
X25100086Y-10112660D02*
X25100086Y-10227660D01*
X25042586Y-10170160D02*
X25157586Y-10170160D01*
X25157586Y-10170160D02*
G75*
G03*
X25157586Y-10170160I-57500J0D01*
G01*
X25100086Y-10366660D02*
X25100086Y-10481660D01*
X25042586Y-10424160D02*
X25157586Y-10424160D01*
X25157586Y-10424160D02*
G75*
G03*
X25157586Y-10424160I-57500J0D01*
G01*
X25354086Y-9350660D02*
X25354086Y-9465660D01*
X25296586Y-9408160D02*
X25411586Y-9408160D01*
X25411586Y-9408160D02*
G75*
G03*
X25411586Y-9408160I-57500J0D01*
G01*
X25354086Y-9604660D02*
X25354086Y-9719660D01*
X25296586Y-9662160D02*
X25411586Y-9662160D01*
X25411586Y-9662160D02*
G75*
G03*
X25411586Y-9662160I-57500J0D01*
G01*
X25354086Y-9858660D02*
X25354086Y-9973660D01*
X25296586Y-9916160D02*
X25411586Y-9916160D01*
X25411586Y-9916160D02*
G75*
G03*
X25411586Y-9916160I-57500J0D01*
G01*
X25354086Y-10112660D02*
X25354086Y-10227660D01*
X25296586Y-10170160D02*
X25411586Y-10170160D01*
X25411586Y-10170160D02*
G75*
G03*
X25411586Y-10170160I-57500J0D01*
G01*
X25354086Y-10366660D02*
X25354086Y-10481660D01*
X25296586Y-10424160D02*
X25411586Y-10424160D01*
X25411586Y-10424160D02*
G75*
G03*
X25411586Y-10424160I-57500J0D01*
G01*
D22*
X14541549Y-21401642D02*
X14541549Y-21309718D01*
X14449624Y-21309718D01*
X14449624Y-21401642D01*
X14541549Y-21401642D01*
X14560586Y-21355680D02*
G75*
G03*
X14560586Y-21355680I-65000J0D01*
G01*
X15049549Y-21401642D02*
X15049549Y-21309718D01*
X14957624Y-21309718D01*
X14957624Y-21401642D01*
X15049549Y-21401642D01*
X15068586Y-21355680D02*
G75*
G03*
X15068586Y-21355680I-65000J0D01*
G01*
X15557549Y-21401642D02*
X15557549Y-21309718D01*
X15465624Y-21309718D01*
X15465624Y-21401642D01*
X15557549Y-21401642D01*
X15576586Y-21355680D02*
G75*
G03*
X15576586Y-21355680I-65000J0D01*
G01*
D23*
X14439386Y-15059080D02*
X14514386Y-14984080D01*
X14439386Y-14909080D01*
X14364386Y-14984080D01*
X14439386Y-15059080D01*
X14514386Y-14984080D02*
G75*
G03*
X14514386Y-14984080I-75000J0D01*
G01*
X14539386Y-11009080D02*
X14614386Y-10934080D01*
X14539386Y-10859080D01*
X14464386Y-10934080D01*
X14539386Y-11009080D01*
X14614386Y-10934080D02*
G75*
G03*
X14614386Y-10934080I-75000J0D01*
G01*
X15689386Y-15059080D02*
X15764386Y-14984080D01*
X15689386Y-14909080D01*
X15614386Y-14984080D01*
X15689386Y-15059080D01*
X15764386Y-14984080D02*
G75*
G03*
X15764386Y-14984080I-75000J0D01*
G01*
X16839387Y-11009080D02*
X16914387Y-10934080D01*
X16839387Y-10859080D01*
X16764386Y-10934080D01*
X16839387Y-11009080D01*
X16914387Y-10934080D02*
G75*
G03*
X16914387Y-10934080I-75000J0D01*
G01*
X16939387Y-15059080D02*
X17014387Y-14984080D01*
X16939387Y-14909080D01*
X16864387Y-14984080D01*
X16939387Y-15059080D01*
X17014387Y-14984080D02*
G75*
G03*
X17014387Y-14984080I-75000J0D01*
G01*
D24*
X21266487Y-21468680D02*
X21266487Y-21620680D01*
X21190487Y-21544680D02*
X21342487Y-21544680D01*
X21320227Y-21598421D02*
X21320227Y-21490939D01*
X21212746Y-21490939D01*
X21212746Y-21598421D01*
X21320227Y-21598421D01*
X21774487Y-21468680D02*
X21774487Y-21620680D01*
X21698487Y-21544680D02*
X21850487Y-21544680D01*
X21828227Y-21598421D02*
X21828227Y-21490939D01*
X21720746Y-21490939D01*
X21720746Y-21598421D01*
X21828227Y-21598421D01*
X22536486Y-21471220D02*
X22536486Y-21623220D01*
X22460486Y-21547220D02*
X22612486Y-21547220D01*
X22590227Y-21600961D02*
X22590227Y-21493479D01*
X22482746Y-21493479D01*
X22482746Y-21600961D01*
X22590227Y-21600961D01*
X23044486Y-21471220D02*
X23044486Y-21623220D01*
X22968486Y-21547220D02*
X23120486Y-21547220D01*
X23098227Y-21600961D02*
X23098227Y-21493479D01*
X22990746Y-21493479D01*
X22990746Y-21600961D01*
X23098227Y-21600961D01*
X25907586Y-21468680D02*
X25907586Y-21620680D01*
X25831586Y-21544680D02*
X25983586Y-21544680D01*
X25961327Y-21598421D02*
X25961327Y-21490939D01*
X25853846Y-21490939D01*
X25853846Y-21598421D01*
X25961327Y-21598421D01*
X26415586Y-21468680D02*
X26415586Y-21620680D01*
X26339586Y-21544680D02*
X26491586Y-21544680D01*
X26469327Y-21598421D02*
X26469327Y-21490939D01*
X26361846Y-21490939D01*
X26361846Y-21598421D01*
X26469327Y-21598421D01*
X27177586Y-21471220D02*
X27177586Y-21623220D01*
X27101586Y-21547220D02*
X27253586Y-21547220D01*
X27231327Y-21600961D02*
X27231327Y-21493479D01*
X27123846Y-21493479D01*
X27123846Y-21600961D01*
X27231327Y-21600961D01*
X27685586Y-21471220D02*
X27685586Y-21623220D01*
X27609586Y-21547220D02*
X27761586Y-21547220D01*
X27739327Y-21600961D02*
X27739327Y-21493479D01*
X27631846Y-21493479D01*
X27631846Y-21600961D01*
X27739327Y-21600961D01*
D25*
X15511586Y-17362480D02*
X15511586Y-17522480D01*
X15431586Y-17442480D02*
X15591586Y-17442480D01*
X15511586Y-17522480D02*
X15591586Y-17442480D01*
X15511586Y-17362480D01*
X15431586Y-17442480D01*
X15511586Y-17522480D01*
X15511586Y-19622480D02*
X15511586Y-19782480D01*
X15431586Y-19702480D02*
X15591586Y-19702480D01*
X15511586Y-19782480D02*
X15591586Y-19702480D01*
X15511586Y-19622480D01*
X15431586Y-19702480D01*
X15511586Y-19782480D01*
D12*
X21639247Y-19805640D02*
X21739247Y-19705640D01*
X21639247Y-19605640D01*
X21539247Y-19705640D01*
X21639247Y-19805640D01*
X21709958Y-19776351D02*
X21709958Y-19634929D01*
X21568535Y-19634929D01*
X21568535Y-19776351D01*
X21709958Y-19776351D01*
X21839247Y-19605640D02*
X21439247Y-19605640D01*
X21839247Y-19805640D02*
X21439247Y-19805640D01*
X21439247Y-19605640D02*
G75*
G03*
X21439247Y-19805640I0J-100000D01*
G01*
X21839247Y-19805640D02*
G75*
G03*
X21839247Y-19605640I0J100000D01*
G01*
X22639246Y-19805640D02*
X22739246Y-19705640D01*
X22639246Y-19605640D01*
X22539246Y-19705640D01*
X22639246Y-19805640D01*
X22709958Y-19776351D02*
X22709958Y-19634929D01*
X22568535Y-19634929D01*
X22568535Y-19776351D01*
X22709958Y-19776351D01*
X22839246Y-19605640D02*
X22439246Y-19605640D01*
X22839246Y-19805640D02*
X22439246Y-19805640D01*
X22439246Y-19605640D02*
G75*
G03*
X22439246Y-19805640I0J-100000D01*
G01*
X22839246Y-19805640D02*
G75*
G03*
X22839246Y-19605640I0J100000D01*
G01*
X26282886Y-19805640D02*
X26382886Y-19705640D01*
X26282886Y-19605640D01*
X26182886Y-19705640D01*
X26282886Y-19805640D01*
X26353598Y-19776351D02*
X26353598Y-19634929D01*
X26212175Y-19634929D01*
X26212175Y-19776351D01*
X26353598Y-19776351D01*
X26482886Y-19605640D02*
X26082886Y-19605640D01*
X26482886Y-19805640D02*
X26082886Y-19805640D01*
X26082886Y-19605640D02*
G75*
G03*
X26082886Y-19805640I0J-100000D01*
G01*
X26482886Y-19805640D02*
G75*
G03*
X26482886Y-19605640I0J100000D01*
G01*
X27282886Y-19805640D02*
X27382886Y-19705640D01*
X27282886Y-19605640D01*
X27182886Y-19705640D01*
X27282886Y-19805640D01*
X27353598Y-19776351D02*
X27353598Y-19634929D01*
X27212175Y-19634929D01*
X27212175Y-19776351D01*
X27353598Y-19776351D01*
X27482886Y-19605640D02*
X27082886Y-19605640D01*
X27482886Y-19805640D02*
X27082886Y-19805640D01*
X27082886Y-19605640D02*
G75*
G03*
X27082886Y-19805640I0J-100000D01*
G01*
X27482886Y-19805640D02*
G75*
G03*
X27482886Y-19605640I0J100000D01*
G01*
D26*
X20298187Y-9588760D02*
X20618187Y-9908760D01*
X20618187Y-9588760D02*
X20298187Y-9908760D01*
X20458187Y-9588760D02*
X20458187Y-9908760D01*
X20298187Y-9748760D02*
X20618187Y-9748760D01*
X20618187Y-9748760D02*
G75*
G03*
X20618187Y-9748760I-160000J0D01*
G01*
X22798186Y-9588760D02*
X23118186Y-9908760D01*
X23118186Y-9588760D02*
X22798186Y-9908760D01*
X22958186Y-9588760D02*
X22958186Y-9908760D01*
X22798186Y-9748760D02*
X23118186Y-9748760D01*
X23118186Y-9748760D02*
G75*
G03*
X23118186Y-9748760I-160000J0D01*
G01*
D12*
X14062405Y-22545556D02*
X14062405Y-22345556D01*
X14110024Y-22345556D01*
X14138596Y-22355080D01*
X14157644Y-22374128D01*
X14167167Y-22393175D01*
X14176691Y-22431270D01*
X14176691Y-22459842D01*
X14167167Y-22497937D01*
X14157644Y-22516985D01*
X14138596Y-22536032D01*
X14110024Y-22545556D01*
X14062405Y-22545556D01*
X14262405Y-22545556D02*
X14262405Y-22412223D01*
X14262405Y-22450318D02*
X14271929Y-22431270D01*
X14281453Y-22421747D01*
X14300501Y-22412223D01*
X14319548Y-22412223D01*
X14386215Y-22545556D02*
X14386215Y-22412223D01*
X14386215Y-22345556D02*
X14376691Y-22355080D01*
X14386215Y-22364604D01*
X14395739Y-22355080D01*
X14386215Y-22345556D01*
X14386215Y-22364604D01*
X14510024Y-22545556D02*
X14490977Y-22536032D01*
X14481453Y-22516985D01*
X14481453Y-22345556D01*
X14614786Y-22545556D02*
X14595739Y-22536032D01*
X14586215Y-22516985D01*
X14586215Y-22345556D01*
X14843358Y-22545556D02*
X14843358Y-22345556D01*
X14910024Y-22488413D01*
X14976691Y-22345556D01*
X14976691Y-22545556D01*
X15157644Y-22545556D02*
X15157644Y-22440794D01*
X15148120Y-22421747D01*
X15129072Y-22412223D01*
X15090977Y-22412223D01*
X15071929Y-22421747D01*
X15157644Y-22536032D02*
X15138596Y-22545556D01*
X15090977Y-22545556D01*
X15071929Y-22536032D01*
X15062405Y-22516985D01*
X15062405Y-22497937D01*
X15071929Y-22478889D01*
X15090977Y-22469366D01*
X15138596Y-22469366D01*
X15157644Y-22459842D01*
X15252882Y-22412223D02*
X15252882Y-22612223D01*
X15252882Y-22421747D02*
X15271929Y-22412223D01*
X15310024Y-22412223D01*
X15329072Y-22421747D01*
X15338596Y-22431270D01*
X15348120Y-22450318D01*
X15348120Y-22507461D01*
X15338596Y-22526508D01*
X15329072Y-22536032D01*
X15310024Y-22545556D01*
X15271929Y-22545556D01*
X15252882Y-22536032D01*
X15433834Y-22526508D02*
X15443358Y-22536032D01*
X15433834Y-22545556D01*
X15424310Y-22536032D01*
X15433834Y-22526508D01*
X15433834Y-22545556D01*
X15433834Y-22421747D02*
X15443358Y-22431270D01*
X15433834Y-22440794D01*
X15424310Y-22431270D01*
X15433834Y-22421747D01*
X15433834Y-22440794D01*
D13*
X13784786Y-22865080D02*
X13804786Y-22885080D01*
X13804786Y-22865080D02*
X13784786Y-22885080D01*
D12*
X14100501Y-22765556D02*
X14119548Y-22765556D01*
X14138596Y-22775080D01*
X14148120Y-22784604D01*
X14157644Y-22803651D01*
X14167167Y-22841747D01*
X14167167Y-22889366D01*
X14157644Y-22927461D01*
X14148120Y-22946508D01*
X14138596Y-22956032D01*
X14119548Y-22965556D01*
X14100501Y-22965556D01*
X14081453Y-22956032D01*
X14071929Y-22946508D01*
X14062405Y-22927461D01*
X14052882Y-22889366D01*
X14052882Y-22841747D01*
X14062405Y-22803651D01*
X14071929Y-22784604D01*
X14081453Y-22775080D01*
X14100501Y-22765556D01*
X14252882Y-22946508D02*
X14262405Y-22956032D01*
X14252882Y-22965556D01*
X14243358Y-22956032D01*
X14252882Y-22946508D01*
X14252882Y-22965556D01*
X14338596Y-22784604D02*
X14348120Y-22775080D01*
X14367167Y-22765556D01*
X14414786Y-22765556D01*
X14433834Y-22775080D01*
X14443358Y-22784604D01*
X14452882Y-22803651D01*
X14452882Y-22822699D01*
X14443358Y-22851270D01*
X14329072Y-22965556D01*
X14452882Y-22965556D01*
X14576691Y-22765556D02*
X14595739Y-22765556D01*
X14614786Y-22775080D01*
X14624310Y-22784604D01*
X14633834Y-22803651D01*
X14643358Y-22841747D01*
X14643358Y-22889366D01*
X14633834Y-22927461D01*
X14624310Y-22946508D01*
X14614786Y-22956032D01*
X14595739Y-22965556D01*
X14576691Y-22965556D01*
X14557644Y-22956032D01*
X14548120Y-22946508D01*
X14538596Y-22927461D01*
X14529072Y-22889366D01*
X14529072Y-22841747D01*
X14538596Y-22803651D01*
X14548120Y-22784604D01*
X14557644Y-22775080D01*
X14576691Y-22765556D01*
X14767167Y-22765556D02*
X14786215Y-22765556D01*
X14805263Y-22775080D01*
X14814786Y-22784604D01*
X14824310Y-22803651D01*
X14833834Y-22841747D01*
X14833834Y-22889366D01*
X14824310Y-22927461D01*
X14814786Y-22946508D01*
X14805263Y-22956032D01*
X14786215Y-22965556D01*
X14767167Y-22965556D01*
X14748120Y-22956032D01*
X14738596Y-22946508D01*
X14729072Y-22927461D01*
X14719548Y-22889366D01*
X14719548Y-22841747D01*
X14729072Y-22803651D01*
X14738596Y-22784604D01*
X14748120Y-22775080D01*
X14767167Y-22765556D01*
X14919548Y-22965556D02*
X14919548Y-22832223D01*
X14919548Y-22851270D02*
X14929072Y-22841747D01*
X14948120Y-22832223D01*
X14976691Y-22832223D01*
X14995739Y-22841747D01*
X15005263Y-22860794D01*
X15005263Y-22965556D01*
X15005263Y-22860794D02*
X15014786Y-22841747D01*
X15033834Y-22832223D01*
X15062405Y-22832223D01*
X15081453Y-22841747D01*
X15090977Y-22860794D01*
X15090977Y-22965556D01*
X15186215Y-22965556D02*
X15186215Y-22832223D01*
X15186215Y-22851270D02*
X15195739Y-22841747D01*
X15214786Y-22832223D01*
X15243358Y-22832223D01*
X15262405Y-22841747D01*
X15271929Y-22860794D01*
X15271929Y-22965556D01*
X15271929Y-22860794D02*
X15281453Y-22841747D01*
X15300501Y-22832223D01*
X15329072Y-22832223D01*
X15348120Y-22841747D01*
X15357644Y-22860794D01*
X15357644Y-22965556D01*
X15748120Y-22756032D02*
X15576691Y-23013175D01*
X16005263Y-22765556D02*
X16024310Y-22765556D01*
X16043358Y-22775080D01*
X16052882Y-22784604D01*
X16062405Y-22803651D01*
X16071929Y-22841747D01*
X16071929Y-22889366D01*
X16062405Y-22927461D01*
X16052882Y-22946508D01*
X16043358Y-22956032D01*
X16024310Y-22965556D01*
X16005263Y-22965556D01*
X15986215Y-22956032D01*
X15976691Y-22946508D01*
X15967167Y-22927461D01*
X15957644Y-22889366D01*
X15957644Y-22841747D01*
X15967167Y-22803651D01*
X15976691Y-22784604D01*
X15986215Y-22775080D01*
X16005263Y-22765556D01*
X16157644Y-22946508D02*
X16167167Y-22956032D01*
X16157644Y-22965556D01*
X16148120Y-22956032D01*
X16157644Y-22946508D01*
X16157644Y-22965556D01*
X16290977Y-22765556D02*
X16310024Y-22765556D01*
X16329072Y-22775080D01*
X16338596Y-22784604D01*
X16348120Y-22803651D01*
X16357644Y-22841747D01*
X16357644Y-22889366D01*
X16348120Y-22927461D01*
X16338596Y-22946508D01*
X16329072Y-22956032D01*
X16310024Y-22965556D01*
X16290977Y-22965556D01*
X16271929Y-22956032D01*
X16262405Y-22946508D01*
X16252882Y-22927461D01*
X16243358Y-22889366D01*
X16243358Y-22841747D01*
X16252882Y-22803651D01*
X16262405Y-22784604D01*
X16271929Y-22775080D01*
X16290977Y-22765556D01*
X16481453Y-22765556D02*
X16500501Y-22765556D01*
X16519548Y-22775080D01*
X16529072Y-22784604D01*
X16538596Y-22803651D01*
X16548120Y-22841747D01*
X16548120Y-22889366D01*
X16538596Y-22927461D01*
X16529072Y-22946508D01*
X16519548Y-22956032D01*
X16500501Y-22965556D01*
X16481453Y-22965556D01*
X16462405Y-22956032D01*
X16452882Y-22946508D01*
X16443358Y-22927461D01*
X16433834Y-22889366D01*
X16433834Y-22841747D01*
X16443358Y-22803651D01*
X16452882Y-22784604D01*
X16462405Y-22775080D01*
X16481453Y-22765556D01*
X16614786Y-22765556D02*
X16748120Y-22765556D01*
X16662405Y-22965556D01*
X16833834Y-22965556D02*
X16871929Y-22965556D01*
X16890977Y-22956032D01*
X16900501Y-22946508D01*
X16919548Y-22917937D01*
X16929072Y-22879842D01*
X16929072Y-22803651D01*
X16919548Y-22784604D01*
X16910025Y-22775080D01*
X16890977Y-22765556D01*
X16852882Y-22765556D01*
X16833834Y-22775080D01*
X16824310Y-22784604D01*
X16814787Y-22803651D01*
X16814787Y-22851270D01*
X16824310Y-22870318D01*
X16833834Y-22879842D01*
X16852882Y-22889366D01*
X16890977Y-22889366D01*
X16910025Y-22879842D01*
X16919548Y-22870318D01*
X16929072Y-22851270D01*
X17005263Y-22765556D02*
X17005263Y-22803651D01*
X17081453Y-22765556D02*
X17081453Y-22803651D01*
X17376691Y-23041747D02*
X17367167Y-23032223D01*
X17348120Y-23003651D01*
X17338596Y-22984604D01*
X17329072Y-22956032D01*
X17319548Y-22908413D01*
X17319548Y-22870318D01*
X17329072Y-22822699D01*
X17338596Y-22794128D01*
X17348120Y-22775080D01*
X17367167Y-22746508D01*
X17376691Y-22736985D01*
X17557644Y-22965556D02*
X17443358Y-22965556D01*
X17500501Y-22965556D02*
X17500501Y-22765556D01*
X17481453Y-22794128D01*
X17462406Y-22813175D01*
X17443358Y-22822699D01*
X17633834Y-22784604D02*
X17643358Y-22775080D01*
X17662406Y-22765556D01*
X17710025Y-22765556D01*
X17729072Y-22775080D01*
X17738596Y-22784604D01*
X17748120Y-22803651D01*
X17748120Y-22822699D01*
X17738596Y-22851270D01*
X17624310Y-22965556D01*
X17748120Y-22965556D01*
X17843358Y-22965556D02*
X17881453Y-22965556D01*
X17900501Y-22956032D01*
X17910025Y-22946508D01*
X17929072Y-22917937D01*
X17938596Y-22879842D01*
X17938596Y-22803651D01*
X17929072Y-22784604D01*
X17919548Y-22775080D01*
X17900501Y-22765556D01*
X17862406Y-22765556D01*
X17843358Y-22775080D01*
X17833834Y-22784604D01*
X17824310Y-22803651D01*
X17824310Y-22851270D01*
X17833834Y-22870318D01*
X17843358Y-22879842D01*
X17862406Y-22889366D01*
X17900501Y-22889366D01*
X17919548Y-22879842D01*
X17929072Y-22870318D01*
X17938596Y-22851270D01*
X18176691Y-22965556D02*
X18176691Y-22765556D01*
X18262406Y-22965556D02*
X18262406Y-22860794D01*
X18252882Y-22841747D01*
X18233834Y-22832223D01*
X18205263Y-22832223D01*
X18186215Y-22841747D01*
X18176691Y-22851270D01*
X18386215Y-22965556D02*
X18367167Y-22956032D01*
X18357644Y-22946508D01*
X18348120Y-22927461D01*
X18348120Y-22870318D01*
X18357644Y-22851270D01*
X18367167Y-22841747D01*
X18386215Y-22832223D01*
X18414786Y-22832223D01*
X18433834Y-22841747D01*
X18443358Y-22851270D01*
X18452882Y-22870318D01*
X18452882Y-22927461D01*
X18443358Y-22946508D01*
X18433834Y-22956032D01*
X18414786Y-22965556D01*
X18386215Y-22965556D01*
X18567167Y-22965556D02*
X18548120Y-22956032D01*
X18538596Y-22936985D01*
X18538596Y-22765556D01*
X18719548Y-22956032D02*
X18700501Y-22965556D01*
X18662406Y-22965556D01*
X18643358Y-22956032D01*
X18633834Y-22936985D01*
X18633834Y-22860794D01*
X18643358Y-22841747D01*
X18662406Y-22832223D01*
X18700501Y-22832223D01*
X18719548Y-22841747D01*
X18729072Y-22860794D01*
X18729072Y-22879842D01*
X18633834Y-22898889D01*
X18805263Y-22956032D02*
X18824310Y-22965556D01*
X18862406Y-22965556D01*
X18881453Y-22956032D01*
X18890977Y-22936985D01*
X18890977Y-22927461D01*
X18881453Y-22908413D01*
X18862406Y-22898889D01*
X18833834Y-22898889D01*
X18814786Y-22889366D01*
X18805263Y-22870318D01*
X18805263Y-22860794D01*
X18814786Y-22841747D01*
X18833834Y-22832223D01*
X18862406Y-22832223D01*
X18881453Y-22841747D01*
X18957644Y-23041747D02*
X18967167Y-23032223D01*
X18986215Y-23003651D01*
X18995739Y-22984604D01*
X19005263Y-22956032D01*
X19014786Y-22908413D01*
X19014786Y-22870318D01*
X19005263Y-22822699D01*
X18995739Y-22794128D01*
X18986215Y-22775080D01*
X18967167Y-22746508D01*
X18957644Y-22736985D01*
D14*
X13804786Y-23139080D02*
G75*
G03*
X13804786Y-23139080I-20000J0D01*
G01*
D12*
X14100501Y-23029556D02*
X14119548Y-23029556D01*
X14138596Y-23039080D01*
X14148120Y-23048604D01*
X14157644Y-23067651D01*
X14167167Y-23105747D01*
X14167167Y-23153366D01*
X14157644Y-23191461D01*
X14148120Y-23210508D01*
X14138596Y-23220032D01*
X14119548Y-23229556D01*
X14100501Y-23229556D01*
X14081453Y-23220032D01*
X14071929Y-23210508D01*
X14062405Y-23191461D01*
X14052882Y-23153366D01*
X14052882Y-23105747D01*
X14062405Y-23067651D01*
X14071929Y-23048604D01*
X14081453Y-23039080D01*
X14100501Y-23029556D01*
X14252882Y-23210508D02*
X14262405Y-23220032D01*
X14252882Y-23229556D01*
X14243358Y-23220032D01*
X14252882Y-23210508D01*
X14252882Y-23229556D01*
X14433834Y-23096223D02*
X14433834Y-23229556D01*
X14386215Y-23020032D02*
X14338596Y-23162889D01*
X14462405Y-23162889D01*
X14576691Y-23029556D02*
X14595739Y-23029556D01*
X14614786Y-23039080D01*
X14624310Y-23048604D01*
X14633834Y-23067651D01*
X14643358Y-23105747D01*
X14643358Y-23153366D01*
X14633834Y-23191461D01*
X14624310Y-23210508D01*
X14614786Y-23220032D01*
X14595739Y-23229556D01*
X14576691Y-23229556D01*
X14557644Y-23220032D01*
X14548120Y-23210508D01*
X14538596Y-23191461D01*
X14529072Y-23153366D01*
X14529072Y-23105747D01*
X14538596Y-23067651D01*
X14548120Y-23048604D01*
X14557644Y-23039080D01*
X14576691Y-23029556D01*
X14767167Y-23029556D02*
X14786215Y-23029556D01*
X14805263Y-23039080D01*
X14814786Y-23048604D01*
X14824310Y-23067651D01*
X14833834Y-23105747D01*
X14833834Y-23153366D01*
X14824310Y-23191461D01*
X14814786Y-23210508D01*
X14805263Y-23220032D01*
X14786215Y-23229556D01*
X14767167Y-23229556D01*
X14748120Y-23220032D01*
X14738596Y-23210508D01*
X14729072Y-23191461D01*
X14719548Y-23153366D01*
X14719548Y-23105747D01*
X14729072Y-23067651D01*
X14738596Y-23048604D01*
X14748120Y-23039080D01*
X14767167Y-23029556D01*
X14919548Y-23229556D02*
X14919548Y-23096223D01*
X14919548Y-23115270D02*
X14929072Y-23105747D01*
X14948120Y-23096223D01*
X14976691Y-23096223D01*
X14995739Y-23105747D01*
X15005263Y-23124794D01*
X15005263Y-23229556D01*
X15005263Y-23124794D02*
X15014786Y-23105747D01*
X15033834Y-23096223D01*
X15062405Y-23096223D01*
X15081453Y-23105747D01*
X15090977Y-23124794D01*
X15090977Y-23229556D01*
X15186215Y-23229556D02*
X15186215Y-23096223D01*
X15186215Y-23115270D02*
X15195739Y-23105747D01*
X15214786Y-23096223D01*
X15243358Y-23096223D01*
X15262405Y-23105747D01*
X15271929Y-23124794D01*
X15271929Y-23229556D01*
X15271929Y-23124794D02*
X15281453Y-23105747D01*
X15300501Y-23096223D01*
X15329072Y-23096223D01*
X15348120Y-23105747D01*
X15357644Y-23124794D01*
X15357644Y-23229556D01*
X15748120Y-23020032D02*
X15576691Y-23277175D01*
X16005263Y-23029556D02*
X16024310Y-23029556D01*
X16043358Y-23039080D01*
X16052882Y-23048604D01*
X16062405Y-23067651D01*
X16071929Y-23105747D01*
X16071929Y-23153366D01*
X16062405Y-23191461D01*
X16052882Y-23210508D01*
X16043358Y-23220032D01*
X16024310Y-23229556D01*
X16005263Y-23229556D01*
X15986215Y-23220032D01*
X15976691Y-23210508D01*
X15967167Y-23191461D01*
X15957644Y-23153366D01*
X15957644Y-23105747D01*
X15967167Y-23067651D01*
X15976691Y-23048604D01*
X15986215Y-23039080D01*
X16005263Y-23029556D01*
X16157644Y-23210508D02*
X16167167Y-23220032D01*
X16157644Y-23229556D01*
X16148120Y-23220032D01*
X16157644Y-23210508D01*
X16157644Y-23229556D01*
X16290977Y-23029556D02*
X16310024Y-23029556D01*
X16329072Y-23039080D01*
X16338596Y-23048604D01*
X16348120Y-23067651D01*
X16357644Y-23105747D01*
X16357644Y-23153366D01*
X16348120Y-23191461D01*
X16338596Y-23210508D01*
X16329072Y-23220032D01*
X16310024Y-23229556D01*
X16290977Y-23229556D01*
X16271929Y-23220032D01*
X16262405Y-23210508D01*
X16252882Y-23191461D01*
X16243358Y-23153366D01*
X16243358Y-23105747D01*
X16252882Y-23067651D01*
X16262405Y-23048604D01*
X16271929Y-23039080D01*
X16290977Y-23029556D01*
X16548120Y-23229556D02*
X16433834Y-23229556D01*
X16490977Y-23229556D02*
X16490977Y-23029556D01*
X16471929Y-23058128D01*
X16452882Y-23077175D01*
X16433834Y-23086699D01*
X16729072Y-23029556D02*
X16633834Y-23029556D01*
X16624310Y-23124794D01*
X16633834Y-23115270D01*
X16652882Y-23105747D01*
X16700501Y-23105747D01*
X16719548Y-23115270D01*
X16729072Y-23124794D01*
X16738596Y-23143842D01*
X16738596Y-23191461D01*
X16729072Y-23210508D01*
X16719548Y-23220032D01*
X16700501Y-23229556D01*
X16652882Y-23229556D01*
X16633834Y-23220032D01*
X16624310Y-23210508D01*
X16805263Y-23029556D02*
X16938596Y-23029556D01*
X16852882Y-23229556D01*
X17005263Y-23029556D02*
X17005263Y-23067651D01*
X17081453Y-23029556D02*
X17081453Y-23067651D01*
X17376691Y-23305747D02*
X17367167Y-23296223D01*
X17348120Y-23267651D01*
X17338596Y-23248604D01*
X17329072Y-23220032D01*
X17319548Y-23172413D01*
X17319548Y-23134318D01*
X17329072Y-23086699D01*
X17338596Y-23058128D01*
X17348120Y-23039080D01*
X17367167Y-23010508D01*
X17376691Y-23000985D01*
X17433834Y-23029556D02*
X17557644Y-23029556D01*
X17490977Y-23105747D01*
X17519548Y-23105747D01*
X17538596Y-23115270D01*
X17548120Y-23124794D01*
X17557644Y-23143842D01*
X17557644Y-23191461D01*
X17548120Y-23210508D01*
X17538596Y-23220032D01*
X17519548Y-23229556D01*
X17462406Y-23229556D01*
X17443358Y-23220032D01*
X17433834Y-23210508D01*
X17729072Y-23096223D02*
X17729072Y-23229556D01*
X17681453Y-23020032D02*
X17633834Y-23162889D01*
X17757644Y-23162889D01*
X17986215Y-23229556D02*
X17986215Y-23029556D01*
X18071929Y-23229556D02*
X18071929Y-23124794D01*
X18062406Y-23105747D01*
X18043358Y-23096223D01*
X18014786Y-23096223D01*
X17995739Y-23105747D01*
X17986215Y-23115270D01*
X18195739Y-23229556D02*
X18176691Y-23220032D01*
X18167167Y-23210508D01*
X18157644Y-23191461D01*
X18157644Y-23134318D01*
X18167167Y-23115270D01*
X18176691Y-23105747D01*
X18195739Y-23096223D01*
X18224310Y-23096223D01*
X18243358Y-23105747D01*
X18252882Y-23115270D01*
X18262406Y-23134318D01*
X18262406Y-23191461D01*
X18252882Y-23210508D01*
X18243358Y-23220032D01*
X18224310Y-23229556D01*
X18195739Y-23229556D01*
X18376691Y-23229556D02*
X18357644Y-23220032D01*
X18348120Y-23200985D01*
X18348120Y-23029556D01*
X18529072Y-23220032D02*
X18510025Y-23229556D01*
X18471929Y-23229556D01*
X18452882Y-23220032D01*
X18443358Y-23200985D01*
X18443358Y-23124794D01*
X18452882Y-23105747D01*
X18471929Y-23096223D01*
X18510025Y-23096223D01*
X18529072Y-23105747D01*
X18538596Y-23124794D01*
X18538596Y-23143842D01*
X18443358Y-23162889D01*
X18614786Y-23220032D02*
X18633834Y-23229556D01*
X18671929Y-23229556D01*
X18690977Y-23220032D01*
X18700501Y-23200985D01*
X18700501Y-23191461D01*
X18690977Y-23172413D01*
X18671929Y-23162889D01*
X18643358Y-23162889D01*
X18624310Y-23153366D01*
X18614786Y-23134318D01*
X18614786Y-23124794D01*
X18624310Y-23105747D01*
X18643358Y-23096223D01*
X18671929Y-23096223D01*
X18690977Y-23105747D01*
X18767167Y-23305747D02*
X18776691Y-23296223D01*
X18795739Y-23267651D01*
X18805263Y-23248604D01*
X18814786Y-23220032D01*
X18824310Y-23172413D01*
X18824310Y-23134318D01*
X18814786Y-23086699D01*
X18805263Y-23058128D01*
X18795739Y-23039080D01*
X18776691Y-23010508D01*
X18767167Y-23000985D01*
D15*
X13779786Y-23378080D02*
X13779786Y-23428080D01*
X13754786Y-23403080D02*
X13804786Y-23403080D01*
D12*
X14100501Y-23293556D02*
X14119548Y-23293556D01*
X14138596Y-23303080D01*
X14148120Y-23312604D01*
X14157644Y-23331651D01*
X14167167Y-23369747D01*
X14167167Y-23417366D01*
X14157644Y-23455461D01*
X14148120Y-23474508D01*
X14138596Y-23484032D01*
X14119548Y-23493556D01*
X14100501Y-23493556D01*
X14081453Y-23484032D01*
X14071929Y-23474508D01*
X14062405Y-23455461D01*
X14052882Y-23417366D01*
X14052882Y-23369747D01*
X14062405Y-23331651D01*
X14071929Y-23312604D01*
X14081453Y-23303080D01*
X14100501Y-23293556D01*
X14252882Y-23474508D02*
X14262405Y-23484032D01*
X14252882Y-23493556D01*
X14243358Y-23484032D01*
X14252882Y-23474508D01*
X14252882Y-23493556D01*
X14443358Y-23293556D02*
X14348120Y-23293556D01*
X14338596Y-23388794D01*
X14348120Y-23379270D01*
X14367167Y-23369747D01*
X14414786Y-23369747D01*
X14433834Y-23379270D01*
X14443358Y-23388794D01*
X14452882Y-23407842D01*
X14452882Y-23455461D01*
X14443358Y-23474508D01*
X14433834Y-23484032D01*
X14414786Y-23493556D01*
X14367167Y-23493556D01*
X14348120Y-23484032D01*
X14338596Y-23474508D01*
X14576691Y-23293556D02*
X14595739Y-23293556D01*
X14614786Y-23303080D01*
X14624310Y-23312604D01*
X14633834Y-23331651D01*
X14643358Y-23369747D01*
X14643358Y-23417366D01*
X14633834Y-23455461D01*
X14624310Y-23474508D01*
X14614786Y-23484032D01*
X14595739Y-23493556D01*
X14576691Y-23493556D01*
X14557644Y-23484032D01*
X14548120Y-23474508D01*
X14538596Y-23455461D01*
X14529072Y-23417366D01*
X14529072Y-23369747D01*
X14538596Y-23331651D01*
X14548120Y-23312604D01*
X14557644Y-23303080D01*
X14576691Y-23293556D01*
X14767167Y-23293556D02*
X14786215Y-23293556D01*
X14805263Y-23303080D01*
X14814786Y-23312604D01*
X14824310Y-23331651D01*
X14833834Y-23369747D01*
X14833834Y-23417366D01*
X14824310Y-23455461D01*
X14814786Y-23474508D01*
X14805263Y-23484032D01*
X14786215Y-23493556D01*
X14767167Y-23493556D01*
X14748120Y-23484032D01*
X14738596Y-23474508D01*
X14729072Y-23455461D01*
X14719548Y-23417366D01*
X14719548Y-23369747D01*
X14729072Y-23331651D01*
X14738596Y-23312604D01*
X14748120Y-23303080D01*
X14767167Y-23293556D01*
X14919548Y-23493556D02*
X14919548Y-23360223D01*
X14919548Y-23379270D02*
X14929072Y-23369747D01*
X14948120Y-23360223D01*
X14976691Y-23360223D01*
X14995739Y-23369747D01*
X15005263Y-23388794D01*
X15005263Y-23493556D01*
X15005263Y-23388794D02*
X15014786Y-23369747D01*
X15033834Y-23360223D01*
X15062405Y-23360223D01*
X15081453Y-23369747D01*
X15090977Y-23388794D01*
X15090977Y-23493556D01*
X15186215Y-23493556D02*
X15186215Y-23360223D01*
X15186215Y-23379270D02*
X15195739Y-23369747D01*
X15214786Y-23360223D01*
X15243358Y-23360223D01*
X15262405Y-23369747D01*
X15271929Y-23388794D01*
X15271929Y-23493556D01*
X15271929Y-23388794D02*
X15281453Y-23369747D01*
X15300501Y-23360223D01*
X15329072Y-23360223D01*
X15348120Y-23369747D01*
X15357644Y-23388794D01*
X15357644Y-23493556D01*
X15748120Y-23284032D02*
X15576691Y-23541175D01*
X16005263Y-23293556D02*
X16024310Y-23293556D01*
X16043358Y-23303080D01*
X16052882Y-23312604D01*
X16062405Y-23331651D01*
X16071929Y-23369747D01*
X16071929Y-23417366D01*
X16062405Y-23455461D01*
X16052882Y-23474508D01*
X16043358Y-23484032D01*
X16024310Y-23493556D01*
X16005263Y-23493556D01*
X15986215Y-23484032D01*
X15976691Y-23474508D01*
X15967167Y-23455461D01*
X15957644Y-23417366D01*
X15957644Y-23369747D01*
X15967167Y-23331651D01*
X15976691Y-23312604D01*
X15986215Y-23303080D01*
X16005263Y-23293556D01*
X16157644Y-23474508D02*
X16167167Y-23484032D01*
X16157644Y-23493556D01*
X16148120Y-23484032D01*
X16157644Y-23474508D01*
X16157644Y-23493556D01*
X16290977Y-23293556D02*
X16310024Y-23293556D01*
X16329072Y-23303080D01*
X16338596Y-23312604D01*
X16348120Y-23331651D01*
X16357644Y-23369747D01*
X16357644Y-23417366D01*
X16348120Y-23455461D01*
X16338596Y-23474508D01*
X16329072Y-23484032D01*
X16310024Y-23493556D01*
X16290977Y-23493556D01*
X16271929Y-23484032D01*
X16262405Y-23474508D01*
X16252882Y-23455461D01*
X16243358Y-23417366D01*
X16243358Y-23369747D01*
X16252882Y-23331651D01*
X16262405Y-23312604D01*
X16271929Y-23303080D01*
X16290977Y-23293556D01*
X16548120Y-23493556D02*
X16433834Y-23493556D01*
X16490977Y-23493556D02*
X16490977Y-23293556D01*
X16471929Y-23322128D01*
X16452882Y-23341175D01*
X16433834Y-23350699D01*
X16643358Y-23493556D02*
X16681453Y-23493556D01*
X16700501Y-23484032D01*
X16710024Y-23474508D01*
X16729072Y-23445937D01*
X16738596Y-23407842D01*
X16738596Y-23331651D01*
X16729072Y-23312604D01*
X16719548Y-23303080D01*
X16700501Y-23293556D01*
X16662405Y-23293556D01*
X16643358Y-23303080D01*
X16633834Y-23312604D01*
X16624310Y-23331651D01*
X16624310Y-23379270D01*
X16633834Y-23398318D01*
X16643358Y-23407842D01*
X16662405Y-23417366D01*
X16700501Y-23417366D01*
X16719548Y-23407842D01*
X16729072Y-23398318D01*
X16738596Y-23379270D01*
X16805263Y-23293556D02*
X16938596Y-23293556D01*
X16852882Y-23493556D01*
X17005263Y-23293556D02*
X17005263Y-23331651D01*
X17081453Y-23293556D02*
X17081453Y-23331651D01*
X17376691Y-23569747D02*
X17367167Y-23560223D01*
X17348120Y-23531651D01*
X17338596Y-23512604D01*
X17329072Y-23484032D01*
X17319548Y-23436413D01*
X17319548Y-23398318D01*
X17329072Y-23350699D01*
X17338596Y-23322128D01*
X17348120Y-23303080D01*
X17367167Y-23274508D01*
X17376691Y-23264985D01*
X17538596Y-23293556D02*
X17500501Y-23293556D01*
X17481453Y-23303080D01*
X17471929Y-23312604D01*
X17452882Y-23341175D01*
X17443358Y-23379270D01*
X17443358Y-23455461D01*
X17452882Y-23474508D01*
X17462406Y-23484032D01*
X17481453Y-23493556D01*
X17519548Y-23493556D01*
X17538596Y-23484032D01*
X17548120Y-23474508D01*
X17557644Y-23455461D01*
X17557644Y-23407842D01*
X17548120Y-23388794D01*
X17538596Y-23379270D01*
X17519548Y-23369747D01*
X17481453Y-23369747D01*
X17462406Y-23379270D01*
X17452882Y-23388794D01*
X17443358Y-23407842D01*
X17729072Y-23360223D02*
X17729072Y-23493556D01*
X17681453Y-23284032D02*
X17633834Y-23426889D01*
X17757644Y-23426889D01*
X17986215Y-23493556D02*
X17986215Y-23293556D01*
X18071929Y-23493556D02*
X18071929Y-23388794D01*
X18062406Y-23369747D01*
X18043358Y-23360223D01*
X18014786Y-23360223D01*
X17995739Y-23369747D01*
X17986215Y-23379270D01*
X18195739Y-23493556D02*
X18176691Y-23484032D01*
X18167167Y-23474508D01*
X18157644Y-23455461D01*
X18157644Y-23398318D01*
X18167167Y-23379270D01*
X18176691Y-23369747D01*
X18195739Y-23360223D01*
X18224310Y-23360223D01*
X18243358Y-23369747D01*
X18252882Y-23379270D01*
X18262406Y-23398318D01*
X18262406Y-23455461D01*
X18252882Y-23474508D01*
X18243358Y-23484032D01*
X18224310Y-23493556D01*
X18195739Y-23493556D01*
X18376691Y-23493556D02*
X18357644Y-23484032D01*
X18348120Y-23464985D01*
X18348120Y-23293556D01*
X18529072Y-23484032D02*
X18510025Y-23493556D01*
X18471929Y-23493556D01*
X18452882Y-23484032D01*
X18443358Y-23464985D01*
X18443358Y-23388794D01*
X18452882Y-23369747D01*
X18471929Y-23360223D01*
X18510025Y-23360223D01*
X18529072Y-23369747D01*
X18538596Y-23388794D01*
X18538596Y-23407842D01*
X18443358Y-23426889D01*
X18614786Y-23484032D02*
X18633834Y-23493556D01*
X18671929Y-23493556D01*
X18690977Y-23484032D01*
X18700501Y-23464985D01*
X18700501Y-23455461D01*
X18690977Y-23436413D01*
X18671929Y-23426889D01*
X18643358Y-23426889D01*
X18624310Y-23417366D01*
X18614786Y-23398318D01*
X18614786Y-23388794D01*
X18624310Y-23369747D01*
X18643358Y-23360223D01*
X18671929Y-23360223D01*
X18690977Y-23369747D01*
X18767167Y-23569747D02*
X18776691Y-23560223D01*
X18795739Y-23531651D01*
X18805263Y-23512604D01*
X18814786Y-23484032D01*
X18824310Y-23436413D01*
X18824310Y-23398318D01*
X18814786Y-23350699D01*
X18805263Y-23322128D01*
X18795739Y-23303080D01*
X18776691Y-23274508D01*
X18767167Y-23264985D01*
D16*
X13796000Y-23688293D02*
X13796000Y-23645867D01*
X13753573Y-23645867D01*
X13753573Y-23688293D01*
X13796000Y-23688293D01*
D12*
X14100501Y-23557556D02*
X14119548Y-23557556D01*
X14138596Y-23567080D01*
X14148120Y-23576604D01*
X14157644Y-23595651D01*
X14167167Y-23633747D01*
X14167167Y-23681366D01*
X14157644Y-23719461D01*
X14148120Y-23738508D01*
X14138596Y-23748032D01*
X14119548Y-23757556D01*
X14100501Y-23757556D01*
X14081453Y-23748032D01*
X14071929Y-23738508D01*
X14062405Y-23719461D01*
X14052882Y-23681366D01*
X14052882Y-23633747D01*
X14062405Y-23595651D01*
X14071929Y-23576604D01*
X14081453Y-23567080D01*
X14100501Y-23557556D01*
X14252882Y-23738508D02*
X14262405Y-23748032D01*
X14252882Y-23757556D01*
X14243358Y-23748032D01*
X14252882Y-23738508D01*
X14252882Y-23757556D01*
X14433834Y-23557556D02*
X14395739Y-23557556D01*
X14376691Y-23567080D01*
X14367167Y-23576604D01*
X14348120Y-23605175D01*
X14338596Y-23643270D01*
X14338596Y-23719461D01*
X14348120Y-23738508D01*
X14357644Y-23748032D01*
X14376691Y-23757556D01*
X14414786Y-23757556D01*
X14433834Y-23748032D01*
X14443358Y-23738508D01*
X14452882Y-23719461D01*
X14452882Y-23671842D01*
X14443358Y-23652794D01*
X14433834Y-23643270D01*
X14414786Y-23633747D01*
X14376691Y-23633747D01*
X14357644Y-23643270D01*
X14348120Y-23652794D01*
X14338596Y-23671842D01*
X14576691Y-23557556D02*
X14595739Y-23557556D01*
X14614786Y-23567080D01*
X14624310Y-23576604D01*
X14633834Y-23595651D01*
X14643358Y-23633747D01*
X14643358Y-23681366D01*
X14633834Y-23719461D01*
X14624310Y-23738508D01*
X14614786Y-23748032D01*
X14595739Y-23757556D01*
X14576691Y-23757556D01*
X14557644Y-23748032D01*
X14548120Y-23738508D01*
X14538596Y-23719461D01*
X14529072Y-23681366D01*
X14529072Y-23633747D01*
X14538596Y-23595651D01*
X14548120Y-23576604D01*
X14557644Y-23567080D01*
X14576691Y-23557556D01*
X14767167Y-23557556D02*
X14786215Y-23557556D01*
X14805263Y-23567080D01*
X14814786Y-23576604D01*
X14824310Y-23595651D01*
X14833834Y-23633747D01*
X14833834Y-23681366D01*
X14824310Y-23719461D01*
X14814786Y-23738508D01*
X14805263Y-23748032D01*
X14786215Y-23757556D01*
X14767167Y-23757556D01*
X14748120Y-23748032D01*
X14738596Y-23738508D01*
X14729072Y-23719461D01*
X14719548Y-23681366D01*
X14719548Y-23633747D01*
X14729072Y-23595651D01*
X14738596Y-23576604D01*
X14748120Y-23567080D01*
X14767167Y-23557556D01*
X14919548Y-23757556D02*
X14919548Y-23624223D01*
X14919548Y-23643270D02*
X14929072Y-23633747D01*
X14948120Y-23624223D01*
X14976691Y-23624223D01*
X14995739Y-23633747D01*
X15005263Y-23652794D01*
X15005263Y-23757556D01*
X15005263Y-23652794D02*
X15014786Y-23633747D01*
X15033834Y-23624223D01*
X15062405Y-23624223D01*
X15081453Y-23633747D01*
X15090977Y-23652794D01*
X15090977Y-23757556D01*
X15186215Y-23757556D02*
X15186215Y-23624223D01*
X15186215Y-23643270D02*
X15195739Y-23633747D01*
X15214786Y-23624223D01*
X15243358Y-23624223D01*
X15262405Y-23633747D01*
X15271929Y-23652794D01*
X15271929Y-23757556D01*
X15271929Y-23652794D02*
X15281453Y-23633747D01*
X15300501Y-23624223D01*
X15329072Y-23624223D01*
X15348120Y-23633747D01*
X15357644Y-23652794D01*
X15357644Y-23757556D01*
X15748120Y-23548032D02*
X15576691Y-23805175D01*
X16005263Y-23557556D02*
X16024310Y-23557556D01*
X16043358Y-23567080D01*
X16052882Y-23576604D01*
X16062405Y-23595651D01*
X16071929Y-23633747D01*
X16071929Y-23681366D01*
X16062405Y-23719461D01*
X16052882Y-23738508D01*
X16043358Y-23748032D01*
X16024310Y-23757556D01*
X16005263Y-23757556D01*
X15986215Y-23748032D01*
X15976691Y-23738508D01*
X15967167Y-23719461D01*
X15957644Y-23681366D01*
X15957644Y-23633747D01*
X15967167Y-23595651D01*
X15976691Y-23576604D01*
X15986215Y-23567080D01*
X16005263Y-23557556D01*
X16157644Y-23738508D02*
X16167167Y-23748032D01*
X16157644Y-23757556D01*
X16148120Y-23748032D01*
X16157644Y-23738508D01*
X16157644Y-23757556D01*
X16290977Y-23557556D02*
X16310024Y-23557556D01*
X16329072Y-23567080D01*
X16338596Y-23576604D01*
X16348120Y-23595651D01*
X16357644Y-23633747D01*
X16357644Y-23681366D01*
X16348120Y-23719461D01*
X16338596Y-23738508D01*
X16329072Y-23748032D01*
X16310024Y-23757556D01*
X16290977Y-23757556D01*
X16271929Y-23748032D01*
X16262405Y-23738508D01*
X16252882Y-23719461D01*
X16243358Y-23681366D01*
X16243358Y-23633747D01*
X16252882Y-23595651D01*
X16262405Y-23576604D01*
X16271929Y-23567080D01*
X16290977Y-23557556D01*
X16433834Y-23576604D02*
X16443358Y-23567080D01*
X16462405Y-23557556D01*
X16510024Y-23557556D01*
X16529072Y-23567080D01*
X16538596Y-23576604D01*
X16548120Y-23595651D01*
X16548120Y-23614699D01*
X16538596Y-23643270D01*
X16424310Y-23757556D01*
X16548120Y-23757556D01*
X16614786Y-23557556D02*
X16738596Y-23557556D01*
X16671929Y-23633747D01*
X16700501Y-23633747D01*
X16719548Y-23643270D01*
X16729072Y-23652794D01*
X16738596Y-23671842D01*
X16738596Y-23719461D01*
X16729072Y-23738508D01*
X16719548Y-23748032D01*
X16700501Y-23757556D01*
X16643358Y-23757556D01*
X16624310Y-23748032D01*
X16614786Y-23738508D01*
X16910025Y-23557556D02*
X16871929Y-23557556D01*
X16852882Y-23567080D01*
X16843358Y-23576604D01*
X16824310Y-23605175D01*
X16814787Y-23643270D01*
X16814787Y-23719461D01*
X16824310Y-23738508D01*
X16833834Y-23748032D01*
X16852882Y-23757556D01*
X16890977Y-23757556D01*
X16910025Y-23748032D01*
X16919548Y-23738508D01*
X16929072Y-23719461D01*
X16929072Y-23671842D01*
X16919548Y-23652794D01*
X16910025Y-23643270D01*
X16890977Y-23633747D01*
X16852882Y-23633747D01*
X16833834Y-23643270D01*
X16824310Y-23652794D01*
X16814787Y-23671842D01*
X17005263Y-23557556D02*
X17005263Y-23595651D01*
X17081453Y-23557556D02*
X17081453Y-23595651D01*
X17376691Y-23833747D02*
X17367167Y-23824223D01*
X17348120Y-23795651D01*
X17338596Y-23776604D01*
X17329072Y-23748032D01*
X17319548Y-23700413D01*
X17319548Y-23662318D01*
X17329072Y-23614699D01*
X17338596Y-23586128D01*
X17348120Y-23567080D01*
X17367167Y-23538508D01*
X17376691Y-23528985D01*
X17490977Y-23557556D02*
X17510025Y-23557556D01*
X17529072Y-23567080D01*
X17538596Y-23576604D01*
X17548120Y-23595651D01*
X17557644Y-23633747D01*
X17557644Y-23681366D01*
X17548120Y-23719461D01*
X17538596Y-23738508D01*
X17529072Y-23748032D01*
X17510025Y-23757556D01*
X17490977Y-23757556D01*
X17471929Y-23748032D01*
X17462406Y-23738508D01*
X17452882Y-23719461D01*
X17443358Y-23681366D01*
X17443358Y-23633747D01*
X17452882Y-23595651D01*
X17462406Y-23576604D01*
X17471929Y-23567080D01*
X17490977Y-23557556D01*
X17795739Y-23757556D02*
X17795739Y-23557556D01*
X17881453Y-23757556D02*
X17881453Y-23652794D01*
X17871929Y-23633747D01*
X17852882Y-23624223D01*
X17824310Y-23624223D01*
X17805263Y-23633747D01*
X17795739Y-23643270D01*
X18005263Y-23757556D02*
X17986215Y-23748032D01*
X17976691Y-23738508D01*
X17967167Y-23719461D01*
X17967167Y-23662318D01*
X17976691Y-23643270D01*
X17986215Y-23633747D01*
X18005263Y-23624223D01*
X18033834Y-23624223D01*
X18052882Y-23633747D01*
X18062406Y-23643270D01*
X18071929Y-23662318D01*
X18071929Y-23719461D01*
X18062406Y-23738508D01*
X18052882Y-23748032D01*
X18033834Y-23757556D01*
X18005263Y-23757556D01*
X18186215Y-23757556D02*
X18167167Y-23748032D01*
X18157644Y-23728985D01*
X18157644Y-23557556D01*
X18338596Y-23748032D02*
X18319548Y-23757556D01*
X18281453Y-23757556D01*
X18262406Y-23748032D01*
X18252882Y-23728985D01*
X18252882Y-23652794D01*
X18262406Y-23633747D01*
X18281453Y-23624223D01*
X18319548Y-23624223D01*
X18338596Y-23633747D01*
X18348120Y-23652794D01*
X18348120Y-23671842D01*
X18252882Y-23690889D01*
X18424310Y-23748032D02*
X18443358Y-23757556D01*
X18481453Y-23757556D01*
X18500501Y-23748032D01*
X18510025Y-23728985D01*
X18510025Y-23719461D01*
X18500501Y-23700413D01*
X18481453Y-23690889D01*
X18452882Y-23690889D01*
X18433834Y-23681366D01*
X18424310Y-23662318D01*
X18424310Y-23652794D01*
X18433834Y-23633747D01*
X18452882Y-23624223D01*
X18481453Y-23624223D01*
X18500501Y-23633747D01*
X18748120Y-23681366D02*
X18900501Y-23681366D01*
X18824310Y-23757556D02*
X18824310Y-23605175D01*
X19233834Y-23624223D02*
X19233834Y-23757556D01*
X19186215Y-23548032D02*
X19138596Y-23690889D01*
X19262406Y-23690889D01*
X19481453Y-23748032D02*
X19500501Y-23757556D01*
X19538596Y-23757556D01*
X19557644Y-23748032D01*
X19567167Y-23728985D01*
X19567167Y-23719461D01*
X19557644Y-23700413D01*
X19538596Y-23690889D01*
X19510025Y-23690889D01*
X19490977Y-23681366D01*
X19481453Y-23662318D01*
X19481453Y-23652794D01*
X19490977Y-23633747D01*
X19510025Y-23624223D01*
X19538596Y-23624223D01*
X19557644Y-23633747D01*
X19681453Y-23757556D02*
X19662406Y-23748032D01*
X19652882Y-23728985D01*
X19652882Y-23557556D01*
X19786215Y-23757556D02*
X19767167Y-23748032D01*
X19757644Y-23738508D01*
X19748120Y-23719461D01*
X19748120Y-23662318D01*
X19757644Y-23643270D01*
X19767167Y-23633747D01*
X19786215Y-23624223D01*
X19814786Y-23624223D01*
X19833834Y-23633747D01*
X19843358Y-23643270D01*
X19852882Y-23662318D01*
X19852882Y-23719461D01*
X19843358Y-23738508D01*
X19833834Y-23748032D01*
X19814786Y-23757556D01*
X19786215Y-23757556D01*
X19910025Y-23624223D02*
X19986215Y-23624223D01*
X19938596Y-23557556D02*
X19938596Y-23728985D01*
X19948120Y-23748032D01*
X19967167Y-23757556D01*
X19986215Y-23757556D01*
X20043358Y-23748032D02*
X20062406Y-23757556D01*
X20100501Y-23757556D01*
X20119548Y-23748032D01*
X20129072Y-23728985D01*
X20129072Y-23719461D01*
X20119548Y-23700413D01*
X20100501Y-23690889D01*
X20071929Y-23690889D01*
X20052882Y-23681366D01*
X20043358Y-23662318D01*
X20043358Y-23652794D01*
X20052882Y-23633747D01*
X20071929Y-23624223D01*
X20100501Y-23624223D01*
X20119548Y-23633747D01*
X20195739Y-23833747D02*
X20205263Y-23824223D01*
X20224310Y-23795651D01*
X20233834Y-23776604D01*
X20243358Y-23748032D01*
X20252882Y-23700413D01*
X20252882Y-23662318D01*
X20243358Y-23614699D01*
X20233834Y-23586128D01*
X20224310Y-23567080D01*
X20205263Y-23538508D01*
X20195739Y-23528985D01*
D17*
X13772286Y-23963580D02*
X13804786Y-23931080D01*
X13772286Y-23898580D01*
X13739786Y-23931080D01*
X13772286Y-23963580D01*
D12*
X14100501Y-23821556D02*
X14119548Y-23821556D01*
X14138596Y-23831080D01*
X14148120Y-23840604D01*
X14157644Y-23859651D01*
X14167167Y-23897747D01*
X14167167Y-23945366D01*
X14157644Y-23983461D01*
X14148120Y-24002508D01*
X14138596Y-24012032D01*
X14119548Y-24021556D01*
X14100501Y-24021556D01*
X14081453Y-24012032D01*
X14071929Y-24002508D01*
X14062405Y-23983461D01*
X14052882Y-23945366D01*
X14052882Y-23897747D01*
X14062405Y-23859651D01*
X14071929Y-23840604D01*
X14081453Y-23831080D01*
X14100501Y-23821556D01*
X14252882Y-24002508D02*
X14262405Y-24012032D01*
X14252882Y-24021556D01*
X14243358Y-24012032D01*
X14252882Y-24002508D01*
X14252882Y-24021556D01*
X14433834Y-23821556D02*
X14395739Y-23821556D01*
X14376691Y-23831080D01*
X14367167Y-23840604D01*
X14348120Y-23869175D01*
X14338596Y-23907270D01*
X14338596Y-23983461D01*
X14348120Y-24002508D01*
X14357644Y-24012032D01*
X14376691Y-24021556D01*
X14414786Y-24021556D01*
X14433834Y-24012032D01*
X14443358Y-24002508D01*
X14452882Y-23983461D01*
X14452882Y-23935842D01*
X14443358Y-23916794D01*
X14433834Y-23907270D01*
X14414786Y-23897747D01*
X14376691Y-23897747D01*
X14357644Y-23907270D01*
X14348120Y-23916794D01*
X14338596Y-23935842D01*
X14633834Y-23821556D02*
X14538596Y-23821556D01*
X14529072Y-23916794D01*
X14538596Y-23907270D01*
X14557644Y-23897747D01*
X14605263Y-23897747D01*
X14624310Y-23907270D01*
X14633834Y-23916794D01*
X14643358Y-23935842D01*
X14643358Y-23983461D01*
X14633834Y-24002508D01*
X14624310Y-24012032D01*
X14605263Y-24021556D01*
X14557644Y-24021556D01*
X14538596Y-24012032D01*
X14529072Y-24002508D01*
X14767167Y-23821556D02*
X14786215Y-23821556D01*
X14805263Y-23831080D01*
X14814786Y-23840604D01*
X14824310Y-23859651D01*
X14833834Y-23897747D01*
X14833834Y-23945366D01*
X14824310Y-23983461D01*
X14814786Y-24002508D01*
X14805263Y-24012032D01*
X14786215Y-24021556D01*
X14767167Y-24021556D01*
X14748120Y-24012032D01*
X14738596Y-24002508D01*
X14729072Y-23983461D01*
X14719548Y-23945366D01*
X14719548Y-23897747D01*
X14729072Y-23859651D01*
X14738596Y-23840604D01*
X14748120Y-23831080D01*
X14767167Y-23821556D01*
X14919548Y-24021556D02*
X14919548Y-23888223D01*
X14919548Y-23907270D02*
X14929072Y-23897747D01*
X14948120Y-23888223D01*
X14976691Y-23888223D01*
X14995739Y-23897747D01*
X15005263Y-23916794D01*
X15005263Y-24021556D01*
X15005263Y-23916794D02*
X15014786Y-23897747D01*
X15033834Y-23888223D01*
X15062405Y-23888223D01*
X15081453Y-23897747D01*
X15090977Y-23916794D01*
X15090977Y-24021556D01*
X15186215Y-24021556D02*
X15186215Y-23888223D01*
X15186215Y-23907270D02*
X15195739Y-23897747D01*
X15214786Y-23888223D01*
X15243358Y-23888223D01*
X15262405Y-23897747D01*
X15271929Y-23916794D01*
X15271929Y-24021556D01*
X15271929Y-23916794D02*
X15281453Y-23897747D01*
X15300501Y-23888223D01*
X15329072Y-23888223D01*
X15348120Y-23897747D01*
X15357644Y-23916794D01*
X15357644Y-24021556D01*
X15748120Y-23812032D02*
X15576691Y-24069175D01*
X16005263Y-23821556D02*
X16024310Y-23821556D01*
X16043358Y-23831080D01*
X16052882Y-23840604D01*
X16062405Y-23859651D01*
X16071929Y-23897747D01*
X16071929Y-23945366D01*
X16062405Y-23983461D01*
X16052882Y-24002508D01*
X16043358Y-24012032D01*
X16024310Y-24021556D01*
X16005263Y-24021556D01*
X15986215Y-24012032D01*
X15976691Y-24002508D01*
X15967167Y-23983461D01*
X15957644Y-23945366D01*
X15957644Y-23897747D01*
X15967167Y-23859651D01*
X15976691Y-23840604D01*
X15986215Y-23831080D01*
X16005263Y-23821556D01*
X16157644Y-24002508D02*
X16167167Y-24012032D01*
X16157644Y-24021556D01*
X16148120Y-24012032D01*
X16157644Y-24002508D01*
X16157644Y-24021556D01*
X16290977Y-23821556D02*
X16310024Y-23821556D01*
X16329072Y-23831080D01*
X16338596Y-23840604D01*
X16348120Y-23859651D01*
X16357644Y-23897747D01*
X16357644Y-23945366D01*
X16348120Y-23983461D01*
X16338596Y-24002508D01*
X16329072Y-24012032D01*
X16310024Y-24021556D01*
X16290977Y-24021556D01*
X16271929Y-24012032D01*
X16262405Y-24002508D01*
X16252882Y-23983461D01*
X16243358Y-23945366D01*
X16243358Y-23897747D01*
X16252882Y-23859651D01*
X16262405Y-23840604D01*
X16271929Y-23831080D01*
X16290977Y-23821556D01*
X16433834Y-23840604D02*
X16443358Y-23831080D01*
X16462405Y-23821556D01*
X16510024Y-23821556D01*
X16529072Y-23831080D01*
X16538596Y-23840604D01*
X16548120Y-23859651D01*
X16548120Y-23878699D01*
X16538596Y-23907270D01*
X16424310Y-24021556D01*
X16548120Y-24021556D01*
X16729072Y-23821556D02*
X16633834Y-23821556D01*
X16624310Y-23916794D01*
X16633834Y-23907270D01*
X16652882Y-23897747D01*
X16700501Y-23897747D01*
X16719548Y-23907270D01*
X16729072Y-23916794D01*
X16738596Y-23935842D01*
X16738596Y-23983461D01*
X16729072Y-24002508D01*
X16719548Y-24012032D01*
X16700501Y-24021556D01*
X16652882Y-24021556D01*
X16633834Y-24012032D01*
X16624310Y-24002508D01*
X16910025Y-23821556D02*
X16871929Y-23821556D01*
X16852882Y-23831080D01*
X16843358Y-23840604D01*
X16824310Y-23869175D01*
X16814787Y-23907270D01*
X16814787Y-23983461D01*
X16824310Y-24002508D01*
X16833834Y-24012032D01*
X16852882Y-24021556D01*
X16890977Y-24021556D01*
X16910025Y-24012032D01*
X16919548Y-24002508D01*
X16929072Y-23983461D01*
X16929072Y-23935842D01*
X16919548Y-23916794D01*
X16910025Y-23907270D01*
X16890977Y-23897747D01*
X16852882Y-23897747D01*
X16833834Y-23907270D01*
X16824310Y-23916794D01*
X16814787Y-23935842D01*
X17005263Y-23821556D02*
X17005263Y-23859651D01*
X17081453Y-23821556D02*
X17081453Y-23859651D01*
X17376691Y-24097747D02*
X17367167Y-24088223D01*
X17348120Y-24059651D01*
X17338596Y-24040604D01*
X17329072Y-24012032D01*
X17319548Y-23964413D01*
X17319548Y-23926318D01*
X17329072Y-23878699D01*
X17338596Y-23850128D01*
X17348120Y-23831080D01*
X17367167Y-23802508D01*
X17376691Y-23792985D01*
X17433834Y-23821556D02*
X17557644Y-23821556D01*
X17490977Y-23897747D01*
X17519548Y-23897747D01*
X17538596Y-23907270D01*
X17548120Y-23916794D01*
X17557644Y-23935842D01*
X17557644Y-23983461D01*
X17548120Y-24002508D01*
X17538596Y-24012032D01*
X17519548Y-24021556D01*
X17462406Y-24021556D01*
X17443358Y-24012032D01*
X17433834Y-24002508D01*
X17795739Y-24021556D02*
X17795739Y-23821556D01*
X17881453Y-24021556D02*
X17881453Y-23916794D01*
X17871929Y-23897747D01*
X17852882Y-23888223D01*
X17824310Y-23888223D01*
X17805263Y-23897747D01*
X17795739Y-23907270D01*
X18005263Y-24021556D02*
X17986215Y-24012032D01*
X17976691Y-24002508D01*
X17967167Y-23983461D01*
X17967167Y-23926318D01*
X17976691Y-23907270D01*
X17986215Y-23897747D01*
X18005263Y-23888223D01*
X18033834Y-23888223D01*
X18052882Y-23897747D01*
X18062406Y-23907270D01*
X18071929Y-23926318D01*
X18071929Y-23983461D01*
X18062406Y-24002508D01*
X18052882Y-24012032D01*
X18033834Y-24021556D01*
X18005263Y-24021556D01*
X18186215Y-24021556D02*
X18167167Y-24012032D01*
X18157644Y-23992985D01*
X18157644Y-23821556D01*
X18338596Y-24012032D02*
X18319548Y-24021556D01*
X18281453Y-24021556D01*
X18262406Y-24012032D01*
X18252882Y-23992985D01*
X18252882Y-23916794D01*
X18262406Y-23897747D01*
X18281453Y-23888223D01*
X18319548Y-23888223D01*
X18338596Y-23897747D01*
X18348120Y-23916794D01*
X18348120Y-23935842D01*
X18252882Y-23954889D01*
X18424310Y-24012032D02*
X18443358Y-24021556D01*
X18481453Y-24021556D01*
X18500501Y-24012032D01*
X18510025Y-23992985D01*
X18510025Y-23983461D01*
X18500501Y-23964413D01*
X18481453Y-23954889D01*
X18452882Y-23954889D01*
X18433834Y-23945366D01*
X18424310Y-23926318D01*
X18424310Y-23916794D01*
X18433834Y-23897747D01*
X18452882Y-23888223D01*
X18481453Y-23888223D01*
X18500501Y-23897747D01*
X18576691Y-24097747D02*
X18586215Y-24088223D01*
X18605263Y-24059651D01*
X18614786Y-24040604D01*
X18624310Y-24012032D01*
X18633834Y-23964413D01*
X18633834Y-23926318D01*
X18624310Y-23878699D01*
X18614786Y-23850128D01*
X18605263Y-23831080D01*
X18586215Y-23802508D01*
X18576691Y-23792985D01*
D18*
X13726786Y-24156080D02*
X13804786Y-24234080D01*
X13804786Y-24156080D02*
X13726786Y-24234080D01*
X13804786Y-24195080D02*
G75*
G03*
X13804786Y-24195080I-39000J0D01*
G01*
D12*
X14100501Y-24085556D02*
X14119548Y-24085556D01*
X14138596Y-24095080D01*
X14148120Y-24104604D01*
X14157644Y-24123651D01*
X14167167Y-24161747D01*
X14167167Y-24209366D01*
X14157644Y-24247461D01*
X14148120Y-24266508D01*
X14138596Y-24276032D01*
X14119548Y-24285556D01*
X14100501Y-24285556D01*
X14081453Y-24276032D01*
X14071929Y-24266508D01*
X14062405Y-24247461D01*
X14052882Y-24209366D01*
X14052882Y-24161747D01*
X14062405Y-24123651D01*
X14071929Y-24104604D01*
X14081453Y-24095080D01*
X14100501Y-24085556D01*
X14252882Y-24266508D02*
X14262405Y-24276032D01*
X14252882Y-24285556D01*
X14243358Y-24276032D01*
X14252882Y-24266508D01*
X14252882Y-24285556D01*
X14329072Y-24085556D02*
X14462405Y-24085556D01*
X14376691Y-24285556D01*
X14567167Y-24171270D02*
X14548120Y-24161747D01*
X14538596Y-24152223D01*
X14529072Y-24133175D01*
X14529072Y-24123651D01*
X14538596Y-24104604D01*
X14548120Y-24095080D01*
X14567167Y-24085556D01*
X14605263Y-24085556D01*
X14624310Y-24095080D01*
X14633834Y-24104604D01*
X14643358Y-24123651D01*
X14643358Y-24133175D01*
X14633834Y-24152223D01*
X14624310Y-24161747D01*
X14605263Y-24171270D01*
X14567167Y-24171270D01*
X14548120Y-24180794D01*
X14538596Y-24190318D01*
X14529072Y-24209366D01*
X14529072Y-24247461D01*
X14538596Y-24266508D01*
X14548120Y-24276032D01*
X14567167Y-24285556D01*
X14605263Y-24285556D01*
X14624310Y-24276032D01*
X14633834Y-24266508D01*
X14643358Y-24247461D01*
X14643358Y-24209366D01*
X14633834Y-24190318D01*
X14624310Y-24180794D01*
X14605263Y-24171270D01*
X14767167Y-24085556D02*
X14786215Y-24085556D01*
X14805263Y-24095080D01*
X14814786Y-24104604D01*
X14824310Y-24123651D01*
X14833834Y-24161747D01*
X14833834Y-24209366D01*
X14824310Y-24247461D01*
X14814786Y-24266508D01*
X14805263Y-24276032D01*
X14786215Y-24285556D01*
X14767167Y-24285556D01*
X14748120Y-24276032D01*
X14738596Y-24266508D01*
X14729072Y-24247461D01*
X14719548Y-24209366D01*
X14719548Y-24161747D01*
X14729072Y-24123651D01*
X14738596Y-24104604D01*
X14748120Y-24095080D01*
X14767167Y-24085556D01*
X14919548Y-24285556D02*
X14919548Y-24152223D01*
X14919548Y-24171270D02*
X14929072Y-24161747D01*
X14948120Y-24152223D01*
X14976691Y-24152223D01*
X14995739Y-24161747D01*
X15005263Y-24180794D01*
X15005263Y-24285556D01*
X15005263Y-24180794D02*
X15014786Y-24161747D01*
X15033834Y-24152223D01*
X15062405Y-24152223D01*
X15081453Y-24161747D01*
X15090977Y-24180794D01*
X15090977Y-24285556D01*
X15186215Y-24285556D02*
X15186215Y-24152223D01*
X15186215Y-24171270D02*
X15195739Y-24161747D01*
X15214786Y-24152223D01*
X15243358Y-24152223D01*
X15262405Y-24161747D01*
X15271929Y-24180794D01*
X15271929Y-24285556D01*
X15271929Y-24180794D02*
X15281453Y-24161747D01*
X15300501Y-24152223D01*
X15329072Y-24152223D01*
X15348120Y-24161747D01*
X15357644Y-24180794D01*
X15357644Y-24285556D01*
X15748120Y-24076032D02*
X15576691Y-24333175D01*
X16005263Y-24085556D02*
X16024310Y-24085556D01*
X16043358Y-24095080D01*
X16052882Y-24104604D01*
X16062405Y-24123651D01*
X16071929Y-24161747D01*
X16071929Y-24209366D01*
X16062405Y-24247461D01*
X16052882Y-24266508D01*
X16043358Y-24276032D01*
X16024310Y-24285556D01*
X16005263Y-24285556D01*
X15986215Y-24276032D01*
X15976691Y-24266508D01*
X15967167Y-24247461D01*
X15957644Y-24209366D01*
X15957644Y-24161747D01*
X15967167Y-24123651D01*
X15976691Y-24104604D01*
X15986215Y-24095080D01*
X16005263Y-24085556D01*
X16157644Y-24266508D02*
X16167167Y-24276032D01*
X16157644Y-24285556D01*
X16148120Y-24276032D01*
X16157644Y-24266508D01*
X16157644Y-24285556D01*
X16290977Y-24085556D02*
X16310024Y-24085556D01*
X16329072Y-24095080D01*
X16338596Y-24104604D01*
X16348120Y-24123651D01*
X16357644Y-24161747D01*
X16357644Y-24209366D01*
X16348120Y-24247461D01*
X16338596Y-24266508D01*
X16329072Y-24276032D01*
X16310024Y-24285556D01*
X16290977Y-24285556D01*
X16271929Y-24276032D01*
X16262405Y-24266508D01*
X16252882Y-24247461D01*
X16243358Y-24209366D01*
X16243358Y-24161747D01*
X16252882Y-24123651D01*
X16262405Y-24104604D01*
X16271929Y-24095080D01*
X16290977Y-24085556D01*
X16424310Y-24085556D02*
X16548120Y-24085556D01*
X16481453Y-24161747D01*
X16510024Y-24161747D01*
X16529072Y-24171270D01*
X16538596Y-24180794D01*
X16548120Y-24199842D01*
X16548120Y-24247461D01*
X16538596Y-24266508D01*
X16529072Y-24276032D01*
X16510024Y-24285556D01*
X16452882Y-24285556D01*
X16433834Y-24276032D01*
X16424310Y-24266508D01*
X16671929Y-24085556D02*
X16690977Y-24085556D01*
X16710024Y-24095080D01*
X16719548Y-24104604D01*
X16729072Y-24123651D01*
X16738596Y-24161747D01*
X16738596Y-24209366D01*
X16729072Y-24247461D01*
X16719548Y-24266508D01*
X16710024Y-24276032D01*
X16690977Y-24285556D01*
X16671929Y-24285556D01*
X16652882Y-24276032D01*
X16643358Y-24266508D01*
X16633834Y-24247461D01*
X16624310Y-24209366D01*
X16624310Y-24161747D01*
X16633834Y-24123651D01*
X16643358Y-24104604D01*
X16652882Y-24095080D01*
X16671929Y-24085556D01*
X16805263Y-24085556D02*
X16938596Y-24085556D01*
X16852882Y-24285556D01*
X17005263Y-24085556D02*
X17005263Y-24123651D01*
X17081453Y-24085556D02*
X17081453Y-24123651D01*
X17376691Y-24361747D02*
X17367167Y-24352223D01*
X17348120Y-24323651D01*
X17338596Y-24304604D01*
X17329072Y-24276032D01*
X17319548Y-24228413D01*
X17319548Y-24190318D01*
X17329072Y-24142699D01*
X17338596Y-24114128D01*
X17348120Y-24095080D01*
X17367167Y-24066508D01*
X17376691Y-24056985D01*
X17538596Y-24152223D02*
X17538596Y-24285556D01*
X17490977Y-24076032D02*
X17443358Y-24218889D01*
X17567167Y-24218889D01*
X17795739Y-24285556D02*
X17795739Y-24085556D01*
X17881453Y-24285556D02*
X17881453Y-24180794D01*
X17871929Y-24161747D01*
X17852882Y-24152223D01*
X17824310Y-24152223D01*
X17805263Y-24161747D01*
X17795739Y-24171270D01*
X18005263Y-24285556D02*
X17986215Y-24276032D01*
X17976691Y-24266508D01*
X17967167Y-24247461D01*
X17967167Y-24190318D01*
X17976691Y-24171270D01*
X17986215Y-24161747D01*
X18005263Y-24152223D01*
X18033834Y-24152223D01*
X18052882Y-24161747D01*
X18062406Y-24171270D01*
X18071929Y-24190318D01*
X18071929Y-24247461D01*
X18062406Y-24266508D01*
X18052882Y-24276032D01*
X18033834Y-24285556D01*
X18005263Y-24285556D01*
X18186215Y-24285556D02*
X18167167Y-24276032D01*
X18157644Y-24256985D01*
X18157644Y-24085556D01*
X18338596Y-24276032D02*
X18319548Y-24285556D01*
X18281453Y-24285556D01*
X18262406Y-24276032D01*
X18252882Y-24256985D01*
X18252882Y-24180794D01*
X18262406Y-24161747D01*
X18281453Y-24152223D01*
X18319548Y-24152223D01*
X18338596Y-24161747D01*
X18348120Y-24180794D01*
X18348120Y-24199842D01*
X18252882Y-24218889D01*
X18424310Y-24276032D02*
X18443358Y-24285556D01*
X18481453Y-24285556D01*
X18500501Y-24276032D01*
X18510025Y-24256985D01*
X18510025Y-24247461D01*
X18500501Y-24228413D01*
X18481453Y-24218889D01*
X18452882Y-24218889D01*
X18433834Y-24209366D01*
X18424310Y-24190318D01*
X18424310Y-24180794D01*
X18433834Y-24161747D01*
X18452882Y-24152223D01*
X18481453Y-24152223D01*
X18500501Y-24161747D01*
X18576691Y-24361747D02*
X18586215Y-24352223D01*
X18605263Y-24323651D01*
X18614786Y-24304604D01*
X18624310Y-24276032D01*
X18633834Y-24228413D01*
X18633834Y-24190318D01*
X18624310Y-24142699D01*
X18614786Y-24114128D01*
X18605263Y-24095080D01*
X18586215Y-24066508D01*
X18576691Y-24056985D01*
D19*
X13724786Y-24419080D02*
X13804786Y-24499080D01*
X13804786Y-24419080D02*
X13724786Y-24499080D01*
X13764786Y-24419080D02*
X13764786Y-24499080D01*
X13724786Y-24459080D02*
X13804786Y-24459080D01*
D12*
X14100501Y-24349556D02*
X14119548Y-24349556D01*
X14138596Y-24359080D01*
X14148120Y-24368604D01*
X14157644Y-24387651D01*
X14167167Y-24425747D01*
X14167167Y-24473366D01*
X14157644Y-24511461D01*
X14148120Y-24530508D01*
X14138596Y-24540032D01*
X14119548Y-24549556D01*
X14100501Y-24549556D01*
X14081453Y-24540032D01*
X14071929Y-24530508D01*
X14062405Y-24511461D01*
X14052882Y-24473366D01*
X14052882Y-24425747D01*
X14062405Y-24387651D01*
X14071929Y-24368604D01*
X14081453Y-24359080D01*
X14100501Y-24349556D01*
X14252882Y-24530508D02*
X14262405Y-24540032D01*
X14252882Y-24549556D01*
X14243358Y-24540032D01*
X14252882Y-24530508D01*
X14252882Y-24549556D01*
X14376691Y-24435270D02*
X14357644Y-24425747D01*
X14348120Y-24416223D01*
X14338596Y-24397175D01*
X14338596Y-24387651D01*
X14348120Y-24368604D01*
X14357644Y-24359080D01*
X14376691Y-24349556D01*
X14414786Y-24349556D01*
X14433834Y-24359080D01*
X14443358Y-24368604D01*
X14452882Y-24387651D01*
X14452882Y-24397175D01*
X14443358Y-24416223D01*
X14433834Y-24425747D01*
X14414786Y-24435270D01*
X14376691Y-24435270D01*
X14357644Y-24444794D01*
X14348120Y-24454318D01*
X14338596Y-24473366D01*
X14338596Y-24511461D01*
X14348120Y-24530508D01*
X14357644Y-24540032D01*
X14376691Y-24549556D01*
X14414786Y-24549556D01*
X14433834Y-24540032D01*
X14443358Y-24530508D01*
X14452882Y-24511461D01*
X14452882Y-24473366D01*
X14443358Y-24454318D01*
X14433834Y-24444794D01*
X14414786Y-24435270D01*
X14576691Y-24349556D02*
X14595739Y-24349556D01*
X14614786Y-24359080D01*
X14624310Y-24368604D01*
X14633834Y-24387651D01*
X14643358Y-24425747D01*
X14643358Y-24473366D01*
X14633834Y-24511461D01*
X14624310Y-24530508D01*
X14614786Y-24540032D01*
X14595739Y-24549556D01*
X14576691Y-24549556D01*
X14557644Y-24540032D01*
X14548120Y-24530508D01*
X14538596Y-24511461D01*
X14529072Y-24473366D01*
X14529072Y-24425747D01*
X14538596Y-24387651D01*
X14548120Y-24368604D01*
X14557644Y-24359080D01*
X14576691Y-24349556D01*
X14767167Y-24349556D02*
X14786215Y-24349556D01*
X14805263Y-24359080D01*
X14814786Y-24368604D01*
X14824310Y-24387651D01*
X14833834Y-24425747D01*
X14833834Y-24473366D01*
X14824310Y-24511461D01*
X14814786Y-24530508D01*
X14805263Y-24540032D01*
X14786215Y-24549556D01*
X14767167Y-24549556D01*
X14748120Y-24540032D01*
X14738596Y-24530508D01*
X14729072Y-24511461D01*
X14719548Y-24473366D01*
X14719548Y-24425747D01*
X14729072Y-24387651D01*
X14738596Y-24368604D01*
X14748120Y-24359080D01*
X14767167Y-24349556D01*
X14919548Y-24549556D02*
X14919548Y-24416223D01*
X14919548Y-24435270D02*
X14929072Y-24425747D01*
X14948120Y-24416223D01*
X14976691Y-24416223D01*
X14995739Y-24425747D01*
X15005263Y-24444794D01*
X15005263Y-24549556D01*
X15005263Y-24444794D02*
X15014786Y-24425747D01*
X15033834Y-24416223D01*
X15062405Y-24416223D01*
X15081453Y-24425747D01*
X15090977Y-24444794D01*
X15090977Y-24549556D01*
X15186215Y-24549556D02*
X15186215Y-24416223D01*
X15186215Y-24435270D02*
X15195739Y-24425747D01*
X15214786Y-24416223D01*
X15243358Y-24416223D01*
X15262405Y-24425747D01*
X15271929Y-24444794D01*
X15271929Y-24549556D01*
X15271929Y-24444794D02*
X15281453Y-24425747D01*
X15300501Y-24416223D01*
X15329072Y-24416223D01*
X15348120Y-24425747D01*
X15357644Y-24444794D01*
X15357644Y-24549556D01*
X15748120Y-24340032D02*
X15576691Y-24597175D01*
X16005263Y-24349556D02*
X16024310Y-24349556D01*
X16043358Y-24359080D01*
X16052882Y-24368604D01*
X16062405Y-24387651D01*
X16071929Y-24425747D01*
X16071929Y-24473366D01*
X16062405Y-24511461D01*
X16052882Y-24530508D01*
X16043358Y-24540032D01*
X16024310Y-24549556D01*
X16005263Y-24549556D01*
X15986215Y-24540032D01*
X15976691Y-24530508D01*
X15967167Y-24511461D01*
X15957644Y-24473366D01*
X15957644Y-24425747D01*
X15967167Y-24387651D01*
X15976691Y-24368604D01*
X15986215Y-24359080D01*
X16005263Y-24349556D01*
X16157644Y-24530508D02*
X16167167Y-24540032D01*
X16157644Y-24549556D01*
X16148120Y-24540032D01*
X16157644Y-24530508D01*
X16157644Y-24549556D01*
X16290977Y-24349556D02*
X16310024Y-24349556D01*
X16329072Y-24359080D01*
X16338596Y-24368604D01*
X16348120Y-24387651D01*
X16357644Y-24425747D01*
X16357644Y-24473366D01*
X16348120Y-24511461D01*
X16338596Y-24530508D01*
X16329072Y-24540032D01*
X16310024Y-24549556D01*
X16290977Y-24549556D01*
X16271929Y-24540032D01*
X16262405Y-24530508D01*
X16252882Y-24511461D01*
X16243358Y-24473366D01*
X16243358Y-24425747D01*
X16252882Y-24387651D01*
X16262405Y-24368604D01*
X16271929Y-24359080D01*
X16290977Y-24349556D01*
X16424310Y-24349556D02*
X16548120Y-24349556D01*
X16481453Y-24425747D01*
X16510024Y-24425747D01*
X16529072Y-24435270D01*
X16538596Y-24444794D01*
X16548120Y-24463842D01*
X16548120Y-24511461D01*
X16538596Y-24530508D01*
X16529072Y-24540032D01*
X16510024Y-24549556D01*
X16452882Y-24549556D01*
X16433834Y-24540032D01*
X16424310Y-24530508D01*
X16738596Y-24549556D02*
X16624310Y-24549556D01*
X16681453Y-24549556D02*
X16681453Y-24349556D01*
X16662405Y-24378128D01*
X16643358Y-24397175D01*
X16624310Y-24406699D01*
X16919548Y-24349556D02*
X16824310Y-24349556D01*
X16814787Y-24444794D01*
X16824310Y-24435270D01*
X16843358Y-24425747D01*
X16890977Y-24425747D01*
X16910025Y-24435270D01*
X16919548Y-24444794D01*
X16929072Y-24463842D01*
X16929072Y-24511461D01*
X16919548Y-24530508D01*
X16910025Y-24540032D01*
X16890977Y-24549556D01*
X16843358Y-24549556D01*
X16824310Y-24540032D01*
X16814787Y-24530508D01*
X17005263Y-24349556D02*
X17005263Y-24387651D01*
X17081453Y-24349556D02*
X17081453Y-24387651D01*
X17376691Y-24625747D02*
X17367167Y-24616223D01*
X17348120Y-24587651D01*
X17338596Y-24568604D01*
X17329072Y-24540032D01*
X17319548Y-24492413D01*
X17319548Y-24454318D01*
X17329072Y-24406699D01*
X17338596Y-24378128D01*
X17348120Y-24359080D01*
X17367167Y-24330508D01*
X17376691Y-24320985D01*
X17481453Y-24435270D02*
X17462406Y-24425747D01*
X17452882Y-24416223D01*
X17443358Y-24397175D01*
X17443358Y-24387651D01*
X17452882Y-24368604D01*
X17462406Y-24359080D01*
X17481453Y-24349556D01*
X17519548Y-24349556D01*
X17538596Y-24359080D01*
X17548120Y-24368604D01*
X17557644Y-24387651D01*
X17557644Y-24397175D01*
X17548120Y-24416223D01*
X17538596Y-24425747D01*
X17519548Y-24435270D01*
X17481453Y-24435270D01*
X17462406Y-24444794D01*
X17452882Y-24454318D01*
X17443358Y-24473366D01*
X17443358Y-24511461D01*
X17452882Y-24530508D01*
X17462406Y-24540032D01*
X17481453Y-24549556D01*
X17519548Y-24549556D01*
X17538596Y-24540032D01*
X17548120Y-24530508D01*
X17557644Y-24511461D01*
X17557644Y-24473366D01*
X17548120Y-24454318D01*
X17538596Y-24444794D01*
X17519548Y-24435270D01*
X17795739Y-24549556D02*
X17795739Y-24349556D01*
X17881453Y-24549556D02*
X17881453Y-24444794D01*
X17871929Y-24425747D01*
X17852882Y-24416223D01*
X17824310Y-24416223D01*
X17805263Y-24425747D01*
X17795739Y-24435270D01*
X18005263Y-24549556D02*
X17986215Y-24540032D01*
X17976691Y-24530508D01*
X17967167Y-24511461D01*
X17967167Y-24454318D01*
X17976691Y-24435270D01*
X17986215Y-24425747D01*
X18005263Y-24416223D01*
X18033834Y-24416223D01*
X18052882Y-24425747D01*
X18062406Y-24435270D01*
X18071929Y-24454318D01*
X18071929Y-24511461D01*
X18062406Y-24530508D01*
X18052882Y-24540032D01*
X18033834Y-24549556D01*
X18005263Y-24549556D01*
X18186215Y-24549556D02*
X18167167Y-24540032D01*
X18157644Y-24520985D01*
X18157644Y-24349556D01*
X18338596Y-24540032D02*
X18319548Y-24549556D01*
X18281453Y-24549556D01*
X18262406Y-24540032D01*
X18252882Y-24520985D01*
X18252882Y-24444794D01*
X18262406Y-24425747D01*
X18281453Y-24416223D01*
X18319548Y-24416223D01*
X18338596Y-24425747D01*
X18348120Y-24444794D01*
X18348120Y-24463842D01*
X18252882Y-24482889D01*
X18424310Y-24540032D02*
X18443358Y-24549556D01*
X18481453Y-24549556D01*
X18500501Y-24540032D01*
X18510025Y-24520985D01*
X18510025Y-24511461D01*
X18500501Y-24492413D01*
X18481453Y-24482889D01*
X18452882Y-24482889D01*
X18433834Y-24473366D01*
X18424310Y-24454318D01*
X18424310Y-24444794D01*
X18433834Y-24425747D01*
X18452882Y-24416223D01*
X18481453Y-24416223D01*
X18500501Y-24425747D01*
X18576691Y-24625747D02*
X18586215Y-24616223D01*
X18605263Y-24587651D01*
X18614786Y-24568604D01*
X18624310Y-24540032D01*
X18633834Y-24492413D01*
X18633834Y-24454318D01*
X18624310Y-24406699D01*
X18614786Y-24378128D01*
X18605263Y-24359080D01*
X18586215Y-24330508D01*
X18576691Y-24320985D01*
D11*
X13704786Y-24673080D02*
X13804786Y-24773080D01*
X13804786Y-24673080D02*
X13704786Y-24773080D01*
X13790142Y-24758436D02*
X13790142Y-24687724D01*
X13719431Y-24687724D01*
X13719431Y-24758436D01*
X13790142Y-24758436D01*
D12*
X14167167Y-24813556D02*
X14052882Y-24813556D01*
X14110024Y-24813556D02*
X14110024Y-24613556D01*
X14090977Y-24642128D01*
X14071929Y-24661175D01*
X14052882Y-24670699D01*
X14252882Y-24794508D02*
X14262405Y-24804032D01*
X14252882Y-24813556D01*
X14243358Y-24804032D01*
X14252882Y-24794508D01*
X14252882Y-24813556D01*
X14386215Y-24613556D02*
X14405263Y-24613556D01*
X14424310Y-24623080D01*
X14433834Y-24632604D01*
X14443358Y-24651651D01*
X14452882Y-24689747D01*
X14452882Y-24737366D01*
X14443358Y-24775461D01*
X14433834Y-24794508D01*
X14424310Y-24804032D01*
X14405263Y-24813556D01*
X14386215Y-24813556D01*
X14367167Y-24804032D01*
X14357644Y-24794508D01*
X14348120Y-24775461D01*
X14338596Y-24737366D01*
X14338596Y-24689747D01*
X14348120Y-24651651D01*
X14357644Y-24632604D01*
X14367167Y-24623080D01*
X14386215Y-24613556D01*
X14576691Y-24613556D02*
X14595739Y-24613556D01*
X14614786Y-24623080D01*
X14624310Y-24632604D01*
X14633834Y-24651651D01*
X14643358Y-24689747D01*
X14643358Y-24737366D01*
X14633834Y-24775461D01*
X14624310Y-24794508D01*
X14614786Y-24804032D01*
X14595739Y-24813556D01*
X14576691Y-24813556D01*
X14557644Y-24804032D01*
X14548120Y-24794508D01*
X14538596Y-24775461D01*
X14529072Y-24737366D01*
X14529072Y-24689747D01*
X14538596Y-24651651D01*
X14548120Y-24632604D01*
X14557644Y-24623080D01*
X14576691Y-24613556D01*
X14767167Y-24613556D02*
X14786215Y-24613556D01*
X14805263Y-24623080D01*
X14814786Y-24632604D01*
X14824310Y-24651651D01*
X14833834Y-24689747D01*
X14833834Y-24737366D01*
X14824310Y-24775461D01*
X14814786Y-24794508D01*
X14805263Y-24804032D01*
X14786215Y-24813556D01*
X14767167Y-24813556D01*
X14748120Y-24804032D01*
X14738596Y-24794508D01*
X14729072Y-24775461D01*
X14719548Y-24737366D01*
X14719548Y-24689747D01*
X14729072Y-24651651D01*
X14738596Y-24632604D01*
X14748120Y-24623080D01*
X14767167Y-24613556D01*
X14919548Y-24813556D02*
X14919548Y-24680223D01*
X14919548Y-24699270D02*
X14929072Y-24689747D01*
X14948120Y-24680223D01*
X14976691Y-24680223D01*
X14995739Y-24689747D01*
X15005263Y-24708794D01*
X15005263Y-24813556D01*
X15005263Y-24708794D02*
X15014786Y-24689747D01*
X15033834Y-24680223D01*
X15062405Y-24680223D01*
X15081453Y-24689747D01*
X15090977Y-24708794D01*
X15090977Y-24813556D01*
X15186215Y-24813556D02*
X15186215Y-24680223D01*
X15186215Y-24699270D02*
X15195739Y-24689747D01*
X15214786Y-24680223D01*
X15243358Y-24680223D01*
X15262405Y-24689747D01*
X15271929Y-24708794D01*
X15271929Y-24813556D01*
X15271929Y-24708794D02*
X15281453Y-24689747D01*
X15300501Y-24680223D01*
X15329072Y-24680223D01*
X15348120Y-24689747D01*
X15357644Y-24708794D01*
X15357644Y-24813556D01*
X15748120Y-24604032D02*
X15576691Y-24861175D01*
X16005263Y-24613556D02*
X16024310Y-24613556D01*
X16043358Y-24623080D01*
X16052882Y-24632604D01*
X16062405Y-24651651D01*
X16071929Y-24689747D01*
X16071929Y-24737366D01*
X16062405Y-24775461D01*
X16052882Y-24794508D01*
X16043358Y-24804032D01*
X16024310Y-24813556D01*
X16005263Y-24813556D01*
X15986215Y-24804032D01*
X15976691Y-24794508D01*
X15967167Y-24775461D01*
X15957644Y-24737366D01*
X15957644Y-24689747D01*
X15967167Y-24651651D01*
X15976691Y-24632604D01*
X15986215Y-24623080D01*
X16005263Y-24613556D01*
X16157644Y-24794508D02*
X16167167Y-24804032D01*
X16157644Y-24813556D01*
X16148120Y-24804032D01*
X16157644Y-24794508D01*
X16157644Y-24813556D01*
X16290977Y-24613556D02*
X16310024Y-24613556D01*
X16329072Y-24623080D01*
X16338596Y-24632604D01*
X16348120Y-24651651D01*
X16357644Y-24689747D01*
X16357644Y-24737366D01*
X16348120Y-24775461D01*
X16338596Y-24794508D01*
X16329072Y-24804032D01*
X16310024Y-24813556D01*
X16290977Y-24813556D01*
X16271929Y-24804032D01*
X16262405Y-24794508D01*
X16252882Y-24775461D01*
X16243358Y-24737366D01*
X16243358Y-24689747D01*
X16252882Y-24651651D01*
X16262405Y-24632604D01*
X16271929Y-24623080D01*
X16290977Y-24613556D01*
X16424310Y-24613556D02*
X16548120Y-24613556D01*
X16481453Y-24689747D01*
X16510024Y-24689747D01*
X16529072Y-24699270D01*
X16538596Y-24708794D01*
X16548120Y-24727842D01*
X16548120Y-24775461D01*
X16538596Y-24794508D01*
X16529072Y-24804032D01*
X16510024Y-24813556D01*
X16452882Y-24813556D01*
X16433834Y-24804032D01*
X16424310Y-24794508D01*
X16643358Y-24813556D02*
X16681453Y-24813556D01*
X16700501Y-24804032D01*
X16710024Y-24794508D01*
X16729072Y-24765937D01*
X16738596Y-24727842D01*
X16738596Y-24651651D01*
X16729072Y-24632604D01*
X16719548Y-24623080D01*
X16700501Y-24613556D01*
X16662405Y-24613556D01*
X16643358Y-24623080D01*
X16633834Y-24632604D01*
X16624310Y-24651651D01*
X16624310Y-24699270D01*
X16633834Y-24718318D01*
X16643358Y-24727842D01*
X16662405Y-24737366D01*
X16700501Y-24737366D01*
X16719548Y-24727842D01*
X16729072Y-24718318D01*
X16738596Y-24699270D01*
X16910025Y-24680223D02*
X16910025Y-24813556D01*
X16862406Y-24604032D02*
X16814787Y-24746889D01*
X16938596Y-24746889D01*
X17005263Y-24613556D02*
X17005263Y-24651651D01*
X17081453Y-24613556D02*
X17081453Y-24651651D01*
X17376691Y-24889747D02*
X17367167Y-24880223D01*
X17348120Y-24851651D01*
X17338596Y-24832604D01*
X17329072Y-24804032D01*
X17319548Y-24756413D01*
X17319548Y-24718318D01*
X17329072Y-24670699D01*
X17338596Y-24642128D01*
X17348120Y-24623080D01*
X17367167Y-24594508D01*
X17376691Y-24584985D01*
X17433834Y-24613556D02*
X17557644Y-24613556D01*
X17490977Y-24689747D01*
X17519548Y-24689747D01*
X17538596Y-24699270D01*
X17548120Y-24708794D01*
X17557644Y-24727842D01*
X17557644Y-24775461D01*
X17548120Y-24794508D01*
X17538596Y-24804032D01*
X17519548Y-24813556D01*
X17462406Y-24813556D01*
X17443358Y-24804032D01*
X17433834Y-24794508D01*
X17624310Y-24613556D02*
X17748120Y-24613556D01*
X17681453Y-24689747D01*
X17710025Y-24689747D01*
X17729072Y-24699270D01*
X17738596Y-24708794D01*
X17748120Y-24727842D01*
X17748120Y-24775461D01*
X17738596Y-24794508D01*
X17729072Y-24804032D01*
X17710025Y-24813556D01*
X17652882Y-24813556D01*
X17633834Y-24804032D01*
X17624310Y-24794508D01*
X17986215Y-24813556D02*
X17986215Y-24613556D01*
X18071929Y-24813556D02*
X18071929Y-24708794D01*
X18062406Y-24689747D01*
X18043358Y-24680223D01*
X18014786Y-24680223D01*
X17995739Y-24689747D01*
X17986215Y-24699270D01*
X18195739Y-24813556D02*
X18176691Y-24804032D01*
X18167167Y-24794508D01*
X18157644Y-24775461D01*
X18157644Y-24718318D01*
X18167167Y-24699270D01*
X18176691Y-24689747D01*
X18195739Y-24680223D01*
X18224310Y-24680223D01*
X18243358Y-24689747D01*
X18252882Y-24699270D01*
X18262406Y-24718318D01*
X18262406Y-24775461D01*
X18252882Y-24794508D01*
X18243358Y-24804032D01*
X18224310Y-24813556D01*
X18195739Y-24813556D01*
X18376691Y-24813556D02*
X18357644Y-24804032D01*
X18348120Y-24784985D01*
X18348120Y-24613556D01*
X18529072Y-24804032D02*
X18510025Y-24813556D01*
X18471929Y-24813556D01*
X18452882Y-24804032D01*
X18443358Y-24784985D01*
X18443358Y-24708794D01*
X18452882Y-24689747D01*
X18471929Y-24680223D01*
X18510025Y-24680223D01*
X18529072Y-24689747D01*
X18538596Y-24708794D01*
X18538596Y-24727842D01*
X18443358Y-24746889D01*
X18614786Y-24804032D02*
X18633834Y-24813556D01*
X18671929Y-24813556D01*
X18690977Y-24804032D01*
X18700501Y-24784985D01*
X18700501Y-24775461D01*
X18690977Y-24756413D01*
X18671929Y-24746889D01*
X18643358Y-24746889D01*
X18624310Y-24737366D01*
X18614786Y-24718318D01*
X18614786Y-24708794D01*
X18624310Y-24689747D01*
X18643358Y-24680223D01*
X18671929Y-24680223D01*
X18690977Y-24689747D01*
X18767167Y-24889747D02*
X18776691Y-24880223D01*
X18795739Y-24851651D01*
X18805263Y-24832604D01*
X18814786Y-24804032D01*
X18824310Y-24756413D01*
X18824310Y-24718318D01*
X18814786Y-24670699D01*
X18805263Y-24642128D01*
X18795739Y-24623080D01*
X18776691Y-24594508D01*
X18767167Y-24584985D01*
D20*
X13694786Y-24932080D02*
X13804786Y-25042080D01*
X13804786Y-24932080D02*
X13694786Y-25042080D01*
X13749786Y-25042080D02*
X13804786Y-24987080D01*
X13749786Y-24932080D01*
X13694786Y-24987080D01*
X13749786Y-25042080D01*
D12*
X14167167Y-25077556D02*
X14052882Y-25077556D01*
X14110024Y-25077556D02*
X14110024Y-24877556D01*
X14090977Y-24906128D01*
X14071929Y-24925175D01*
X14052882Y-24934699D01*
X14252882Y-25058508D02*
X14262405Y-25068032D01*
X14252882Y-25077556D01*
X14243358Y-25068032D01*
X14252882Y-25058508D01*
X14252882Y-25077556D01*
X14452882Y-25077556D02*
X14338596Y-25077556D01*
X14395739Y-25077556D02*
X14395739Y-24877556D01*
X14376691Y-24906128D01*
X14357644Y-24925175D01*
X14338596Y-24934699D01*
X14576691Y-24877556D02*
X14595739Y-24877556D01*
X14614786Y-24887080D01*
X14624310Y-24896604D01*
X14633834Y-24915651D01*
X14643358Y-24953747D01*
X14643358Y-25001366D01*
X14633834Y-25039461D01*
X14624310Y-25058508D01*
X14614786Y-25068032D01*
X14595739Y-25077556D01*
X14576691Y-25077556D01*
X14557644Y-25068032D01*
X14548120Y-25058508D01*
X14538596Y-25039461D01*
X14529072Y-25001366D01*
X14529072Y-24953747D01*
X14538596Y-24915651D01*
X14548120Y-24896604D01*
X14557644Y-24887080D01*
X14576691Y-24877556D01*
X14767167Y-24877556D02*
X14786215Y-24877556D01*
X14805263Y-24887080D01*
X14814786Y-24896604D01*
X14824310Y-24915651D01*
X14833834Y-24953747D01*
X14833834Y-25001366D01*
X14824310Y-25039461D01*
X14814786Y-25058508D01*
X14805263Y-25068032D01*
X14786215Y-25077556D01*
X14767167Y-25077556D01*
X14748120Y-25068032D01*
X14738596Y-25058508D01*
X14729072Y-25039461D01*
X14719548Y-25001366D01*
X14719548Y-24953747D01*
X14729072Y-24915651D01*
X14738596Y-24896604D01*
X14748120Y-24887080D01*
X14767167Y-24877556D01*
X14919548Y-25077556D02*
X14919548Y-24944223D01*
X14919548Y-24963270D02*
X14929072Y-24953747D01*
X14948120Y-24944223D01*
X14976691Y-24944223D01*
X14995739Y-24953747D01*
X15005263Y-24972794D01*
X15005263Y-25077556D01*
X15005263Y-24972794D02*
X15014786Y-24953747D01*
X15033834Y-24944223D01*
X15062405Y-24944223D01*
X15081453Y-24953747D01*
X15090977Y-24972794D01*
X15090977Y-25077556D01*
X15186215Y-25077556D02*
X15186215Y-24944223D01*
X15186215Y-24963270D02*
X15195739Y-24953747D01*
X15214786Y-24944223D01*
X15243358Y-24944223D01*
X15262405Y-24953747D01*
X15271929Y-24972794D01*
X15271929Y-25077556D01*
X15271929Y-24972794D02*
X15281453Y-24953747D01*
X15300501Y-24944223D01*
X15329072Y-24944223D01*
X15348120Y-24953747D01*
X15357644Y-24972794D01*
X15357644Y-25077556D01*
X15748120Y-24868032D02*
X15576691Y-25125175D01*
X16005263Y-24877556D02*
X16024310Y-24877556D01*
X16043358Y-24887080D01*
X16052882Y-24896604D01*
X16062405Y-24915651D01*
X16071929Y-24953747D01*
X16071929Y-25001366D01*
X16062405Y-25039461D01*
X16052882Y-25058508D01*
X16043358Y-25068032D01*
X16024310Y-25077556D01*
X16005263Y-25077556D01*
X15986215Y-25068032D01*
X15976691Y-25058508D01*
X15967167Y-25039461D01*
X15957644Y-25001366D01*
X15957644Y-24953747D01*
X15967167Y-24915651D01*
X15976691Y-24896604D01*
X15986215Y-24887080D01*
X16005263Y-24877556D01*
X16157644Y-25058508D02*
X16167167Y-25068032D01*
X16157644Y-25077556D01*
X16148120Y-25068032D01*
X16157644Y-25058508D01*
X16157644Y-25077556D01*
X16290977Y-24877556D02*
X16310024Y-24877556D01*
X16329072Y-24887080D01*
X16338596Y-24896604D01*
X16348120Y-24915651D01*
X16357644Y-24953747D01*
X16357644Y-25001366D01*
X16348120Y-25039461D01*
X16338596Y-25058508D01*
X16329072Y-25068032D01*
X16310024Y-25077556D01*
X16290977Y-25077556D01*
X16271929Y-25068032D01*
X16262405Y-25058508D01*
X16252882Y-25039461D01*
X16243358Y-25001366D01*
X16243358Y-24953747D01*
X16252882Y-24915651D01*
X16262405Y-24896604D01*
X16271929Y-24887080D01*
X16290977Y-24877556D01*
X16529072Y-24944223D02*
X16529072Y-25077556D01*
X16481453Y-24868032D02*
X16433834Y-25010889D01*
X16557644Y-25010889D01*
X16614786Y-24877556D02*
X16738596Y-24877556D01*
X16671929Y-24953747D01*
X16700501Y-24953747D01*
X16719548Y-24963270D01*
X16729072Y-24972794D01*
X16738596Y-24991842D01*
X16738596Y-25039461D01*
X16729072Y-25058508D01*
X16719548Y-25068032D01*
X16700501Y-25077556D01*
X16643358Y-25077556D01*
X16624310Y-25068032D01*
X16614786Y-25058508D01*
X16805263Y-24877556D02*
X16929072Y-24877556D01*
X16862406Y-24953747D01*
X16890977Y-24953747D01*
X16910025Y-24963270D01*
X16919548Y-24972794D01*
X16929072Y-24991842D01*
X16929072Y-25039461D01*
X16919548Y-25058508D01*
X16910025Y-25068032D01*
X16890977Y-25077556D01*
X16833834Y-25077556D01*
X16814787Y-25068032D01*
X16805263Y-25058508D01*
X17005263Y-24877556D02*
X17005263Y-24915651D01*
X17081453Y-24877556D02*
X17081453Y-24915651D01*
X17376691Y-25153747D02*
X17367167Y-25144223D01*
X17348120Y-25115651D01*
X17338596Y-25096604D01*
X17329072Y-25068032D01*
X17319548Y-25020413D01*
X17319548Y-24982318D01*
X17329072Y-24934699D01*
X17338596Y-24906128D01*
X17348120Y-24887080D01*
X17367167Y-24858508D01*
X17376691Y-24848985D01*
X17443358Y-24896604D02*
X17452882Y-24887080D01*
X17471929Y-24877556D01*
X17519548Y-24877556D01*
X17538596Y-24887080D01*
X17548120Y-24896604D01*
X17557644Y-24915651D01*
X17557644Y-24934699D01*
X17548120Y-24963270D01*
X17433834Y-25077556D01*
X17557644Y-25077556D01*
X17681453Y-24877556D02*
X17700501Y-24877556D01*
X17719548Y-24887080D01*
X17729072Y-24896604D01*
X17738596Y-24915651D01*
X17748120Y-24953747D01*
X17748120Y-25001366D01*
X17738596Y-25039461D01*
X17729072Y-25058508D01*
X17719548Y-25068032D01*
X17700501Y-25077556D01*
X17681453Y-25077556D01*
X17662406Y-25068032D01*
X17652882Y-25058508D01*
X17643358Y-25039461D01*
X17633834Y-25001366D01*
X17633834Y-24953747D01*
X17643358Y-24915651D01*
X17652882Y-24896604D01*
X17662406Y-24887080D01*
X17681453Y-24877556D01*
X17986215Y-25077556D02*
X17986215Y-24877556D01*
X18071929Y-25077556D02*
X18071929Y-24972794D01*
X18062406Y-24953747D01*
X18043358Y-24944223D01*
X18014786Y-24944223D01*
X17995739Y-24953747D01*
X17986215Y-24963270D01*
X18195739Y-25077556D02*
X18176691Y-25068032D01*
X18167167Y-25058508D01*
X18157644Y-25039461D01*
X18157644Y-24982318D01*
X18167167Y-24963270D01*
X18176691Y-24953747D01*
X18195739Y-24944223D01*
X18224310Y-24944223D01*
X18243358Y-24953747D01*
X18252882Y-24963270D01*
X18262406Y-24982318D01*
X18262406Y-25039461D01*
X18252882Y-25058508D01*
X18243358Y-25068032D01*
X18224310Y-25077556D01*
X18195739Y-25077556D01*
X18376691Y-25077556D02*
X18357644Y-25068032D01*
X18348120Y-25048985D01*
X18348120Y-24877556D01*
X18529072Y-25068032D02*
X18510025Y-25077556D01*
X18471929Y-25077556D01*
X18452882Y-25068032D01*
X18443358Y-25048985D01*
X18443358Y-24972794D01*
X18452882Y-24953747D01*
X18471929Y-24944223D01*
X18510025Y-24944223D01*
X18529072Y-24953747D01*
X18538596Y-24972794D01*
X18538596Y-24991842D01*
X18443358Y-25010889D01*
X18614786Y-25068032D02*
X18633834Y-25077556D01*
X18671929Y-25077556D01*
X18690977Y-25068032D01*
X18700501Y-25048985D01*
X18700501Y-25039461D01*
X18690977Y-25020413D01*
X18671929Y-25010889D01*
X18643358Y-25010889D01*
X18624310Y-25001366D01*
X18614786Y-24982318D01*
X18614786Y-24972794D01*
X18624310Y-24953747D01*
X18643358Y-24944223D01*
X18671929Y-24944223D01*
X18690977Y-24953747D01*
X18767167Y-25153747D02*
X18776691Y-25144223D01*
X18795739Y-25115651D01*
X18805263Y-25096604D01*
X18814786Y-25068032D01*
X18824310Y-25020413D01*
X18824310Y-24982318D01*
X18814786Y-24934699D01*
X18805263Y-24906128D01*
X18795739Y-24887080D01*
X18776691Y-24858508D01*
X18767167Y-24848985D01*
D21*
X13747286Y-25193580D02*
X13747286Y-25308580D01*
X13689786Y-25251080D02*
X13804786Y-25251080D01*
X13804786Y-25251080D02*
G75*
G03*
X13804786Y-25251080I-57500J0D01*
G01*
D12*
X14167167Y-25341556D02*
X14052882Y-25341556D01*
X14110024Y-25341556D02*
X14110024Y-25141556D01*
X14090977Y-25170128D01*
X14071929Y-25189175D01*
X14052882Y-25198699D01*
X14252882Y-25322508D02*
X14262405Y-25332032D01*
X14252882Y-25341556D01*
X14243358Y-25332032D01*
X14252882Y-25322508D01*
X14252882Y-25341556D01*
X14452882Y-25341556D02*
X14338596Y-25341556D01*
X14395739Y-25341556D02*
X14395739Y-25141556D01*
X14376691Y-25170128D01*
X14357644Y-25189175D01*
X14338596Y-25198699D01*
X14633834Y-25141556D02*
X14538596Y-25141556D01*
X14529072Y-25236794D01*
X14538596Y-25227270D01*
X14557644Y-25217747D01*
X14605263Y-25217747D01*
X14624310Y-25227270D01*
X14633834Y-25236794D01*
X14643358Y-25255842D01*
X14643358Y-25303461D01*
X14633834Y-25322508D01*
X14624310Y-25332032D01*
X14605263Y-25341556D01*
X14557644Y-25341556D01*
X14538596Y-25332032D01*
X14529072Y-25322508D01*
X14767167Y-25141556D02*
X14786215Y-25141556D01*
X14805263Y-25151080D01*
X14814786Y-25160604D01*
X14824310Y-25179651D01*
X14833834Y-25217747D01*
X14833834Y-25265366D01*
X14824310Y-25303461D01*
X14814786Y-25322508D01*
X14805263Y-25332032D01*
X14786215Y-25341556D01*
X14767167Y-25341556D01*
X14748120Y-25332032D01*
X14738596Y-25322508D01*
X14729072Y-25303461D01*
X14719548Y-25265366D01*
X14719548Y-25217747D01*
X14729072Y-25179651D01*
X14738596Y-25160604D01*
X14748120Y-25151080D01*
X14767167Y-25141556D01*
X14919548Y-25341556D02*
X14919548Y-25208223D01*
X14919548Y-25227270D02*
X14929072Y-25217747D01*
X14948120Y-25208223D01*
X14976691Y-25208223D01*
X14995739Y-25217747D01*
X15005263Y-25236794D01*
X15005263Y-25341556D01*
X15005263Y-25236794D02*
X15014786Y-25217747D01*
X15033834Y-25208223D01*
X15062405Y-25208223D01*
X15081453Y-25217747D01*
X15090977Y-25236794D01*
X15090977Y-25341556D01*
X15186215Y-25341556D02*
X15186215Y-25208223D01*
X15186215Y-25227270D02*
X15195739Y-25217747D01*
X15214786Y-25208223D01*
X15243358Y-25208223D01*
X15262405Y-25217747D01*
X15271929Y-25236794D01*
X15271929Y-25341556D01*
X15271929Y-25236794D02*
X15281453Y-25217747D01*
X15300501Y-25208223D01*
X15329072Y-25208223D01*
X15348120Y-25217747D01*
X15357644Y-25236794D01*
X15357644Y-25341556D01*
X15748120Y-25132032D02*
X15576691Y-25389175D01*
X16005263Y-25141556D02*
X16024310Y-25141556D01*
X16043358Y-25151080D01*
X16052882Y-25160604D01*
X16062405Y-25179651D01*
X16071929Y-25217747D01*
X16071929Y-25265366D01*
X16062405Y-25303461D01*
X16052882Y-25322508D01*
X16043358Y-25332032D01*
X16024310Y-25341556D01*
X16005263Y-25341556D01*
X15986215Y-25332032D01*
X15976691Y-25322508D01*
X15967167Y-25303461D01*
X15957644Y-25265366D01*
X15957644Y-25217747D01*
X15967167Y-25179651D01*
X15976691Y-25160604D01*
X15986215Y-25151080D01*
X16005263Y-25141556D01*
X16157644Y-25322508D02*
X16167167Y-25332032D01*
X16157644Y-25341556D01*
X16148120Y-25332032D01*
X16157644Y-25322508D01*
X16157644Y-25341556D01*
X16290977Y-25141556D02*
X16310024Y-25141556D01*
X16329072Y-25151080D01*
X16338596Y-25160604D01*
X16348120Y-25179651D01*
X16357644Y-25217747D01*
X16357644Y-25265366D01*
X16348120Y-25303461D01*
X16338596Y-25322508D01*
X16329072Y-25332032D01*
X16310024Y-25341556D01*
X16290977Y-25341556D01*
X16271929Y-25332032D01*
X16262405Y-25322508D01*
X16252882Y-25303461D01*
X16243358Y-25265366D01*
X16243358Y-25217747D01*
X16252882Y-25179651D01*
X16262405Y-25160604D01*
X16271929Y-25151080D01*
X16290977Y-25141556D01*
X16529072Y-25208223D02*
X16529072Y-25341556D01*
X16481453Y-25132032D02*
X16433834Y-25274889D01*
X16557644Y-25274889D01*
X16729072Y-25141556D02*
X16633834Y-25141556D01*
X16624310Y-25236794D01*
X16633834Y-25227270D01*
X16652882Y-25217747D01*
X16700501Y-25217747D01*
X16719548Y-25227270D01*
X16729072Y-25236794D01*
X16738596Y-25255842D01*
X16738596Y-25303461D01*
X16729072Y-25322508D01*
X16719548Y-25332032D01*
X16700501Y-25341556D01*
X16652882Y-25341556D01*
X16633834Y-25332032D01*
X16624310Y-25322508D01*
X16805263Y-25141556D02*
X16929072Y-25141556D01*
X16862406Y-25217747D01*
X16890977Y-25217747D01*
X16910025Y-25227270D01*
X16919548Y-25236794D01*
X16929072Y-25255842D01*
X16929072Y-25303461D01*
X16919548Y-25322508D01*
X16910025Y-25332032D01*
X16890977Y-25341556D01*
X16833834Y-25341556D01*
X16814787Y-25332032D01*
X16805263Y-25322508D01*
X17005263Y-25141556D02*
X17005263Y-25179651D01*
X17081453Y-25141556D02*
X17081453Y-25179651D01*
X17376691Y-25417747D02*
X17367167Y-25408223D01*
X17348120Y-25379651D01*
X17338596Y-25360604D01*
X17329072Y-25332032D01*
X17319548Y-25284413D01*
X17319548Y-25246318D01*
X17329072Y-25198699D01*
X17338596Y-25170128D01*
X17348120Y-25151080D01*
X17367167Y-25122508D01*
X17376691Y-25112985D01*
X17443358Y-25160604D02*
X17452882Y-25151080D01*
X17471929Y-25141556D01*
X17519548Y-25141556D01*
X17538596Y-25151080D01*
X17548120Y-25160604D01*
X17557644Y-25179651D01*
X17557644Y-25198699D01*
X17548120Y-25227270D01*
X17433834Y-25341556D01*
X17557644Y-25341556D01*
X17681453Y-25141556D02*
X17700501Y-25141556D01*
X17719548Y-25151080D01*
X17729072Y-25160604D01*
X17738596Y-25179651D01*
X17748120Y-25217747D01*
X17748120Y-25265366D01*
X17738596Y-25303461D01*
X17729072Y-25322508D01*
X17719548Y-25332032D01*
X17700501Y-25341556D01*
X17681453Y-25341556D01*
X17662406Y-25332032D01*
X17652882Y-25322508D01*
X17643358Y-25303461D01*
X17633834Y-25265366D01*
X17633834Y-25217747D01*
X17643358Y-25179651D01*
X17652882Y-25160604D01*
X17662406Y-25151080D01*
X17681453Y-25141556D01*
X17986215Y-25341556D02*
X17986215Y-25141556D01*
X18071929Y-25341556D02*
X18071929Y-25236794D01*
X18062406Y-25217747D01*
X18043358Y-25208223D01*
X18014786Y-25208223D01*
X17995739Y-25217747D01*
X17986215Y-25227270D01*
X18195739Y-25341556D02*
X18176691Y-25332032D01*
X18167167Y-25322508D01*
X18157644Y-25303461D01*
X18157644Y-25246318D01*
X18167167Y-25227270D01*
X18176691Y-25217747D01*
X18195739Y-25208223D01*
X18224310Y-25208223D01*
X18243358Y-25217747D01*
X18252882Y-25227270D01*
X18262406Y-25246318D01*
X18262406Y-25303461D01*
X18252882Y-25322508D01*
X18243358Y-25332032D01*
X18224310Y-25341556D01*
X18195739Y-25341556D01*
X18376691Y-25341556D02*
X18357644Y-25332032D01*
X18348120Y-25312985D01*
X18348120Y-25141556D01*
X18529072Y-25332032D02*
X18510025Y-25341556D01*
X18471929Y-25341556D01*
X18452882Y-25332032D01*
X18443358Y-25312985D01*
X18443358Y-25236794D01*
X18452882Y-25217747D01*
X18471929Y-25208223D01*
X18510025Y-25208223D01*
X18529072Y-25217747D01*
X18538596Y-25236794D01*
X18538596Y-25255842D01*
X18443358Y-25274889D01*
X18614786Y-25332032D02*
X18633834Y-25341556D01*
X18671929Y-25341556D01*
X18690977Y-25332032D01*
X18700501Y-25312985D01*
X18700501Y-25303461D01*
X18690977Y-25284413D01*
X18671929Y-25274889D01*
X18643358Y-25274889D01*
X18624310Y-25265366D01*
X18614786Y-25246318D01*
X18614786Y-25236794D01*
X18624310Y-25217747D01*
X18643358Y-25208223D01*
X18671929Y-25208223D01*
X18690977Y-25217747D01*
X18767167Y-25417747D02*
X18776691Y-25408223D01*
X18795739Y-25379651D01*
X18805263Y-25360604D01*
X18814786Y-25332032D01*
X18824310Y-25284413D01*
X18824310Y-25246318D01*
X18814786Y-25198699D01*
X18805263Y-25170128D01*
X18795739Y-25151080D01*
X18776691Y-25122508D01*
X18767167Y-25112985D01*
D22*
X13785749Y-25561042D02*
X13785749Y-25469118D01*
X13693824Y-25469118D01*
X13693824Y-25561042D01*
X13785749Y-25561042D01*
X13804786Y-25515080D02*
G75*
G03*
X13804786Y-25515080I-65000J0D01*
G01*
D12*
X14167167Y-25605556D02*
X14052882Y-25605556D01*
X14110024Y-25605556D02*
X14110024Y-25405556D01*
X14090977Y-25434128D01*
X14071929Y-25453175D01*
X14052882Y-25462699D01*
X14252882Y-25586508D02*
X14262405Y-25596032D01*
X14252882Y-25605556D01*
X14243358Y-25596032D01*
X14252882Y-25586508D01*
X14252882Y-25605556D01*
X14329072Y-25405556D02*
X14452882Y-25405556D01*
X14386215Y-25481747D01*
X14414786Y-25481747D01*
X14433834Y-25491270D01*
X14443358Y-25500794D01*
X14452882Y-25519842D01*
X14452882Y-25567461D01*
X14443358Y-25586508D01*
X14433834Y-25596032D01*
X14414786Y-25605556D01*
X14357644Y-25605556D01*
X14338596Y-25596032D01*
X14329072Y-25586508D01*
X14576691Y-25405556D02*
X14595739Y-25405556D01*
X14614786Y-25415080D01*
X14624310Y-25424604D01*
X14633834Y-25443651D01*
X14643358Y-25481747D01*
X14643358Y-25529366D01*
X14633834Y-25567461D01*
X14624310Y-25586508D01*
X14614786Y-25596032D01*
X14595739Y-25605556D01*
X14576691Y-25605556D01*
X14557644Y-25596032D01*
X14548120Y-25586508D01*
X14538596Y-25567461D01*
X14529072Y-25529366D01*
X14529072Y-25481747D01*
X14538596Y-25443651D01*
X14548120Y-25424604D01*
X14557644Y-25415080D01*
X14576691Y-25405556D01*
X14767167Y-25405556D02*
X14786215Y-25405556D01*
X14805263Y-25415080D01*
X14814786Y-25424604D01*
X14824310Y-25443651D01*
X14833834Y-25481747D01*
X14833834Y-25529366D01*
X14824310Y-25567461D01*
X14814786Y-25586508D01*
X14805263Y-25596032D01*
X14786215Y-25605556D01*
X14767167Y-25605556D01*
X14748120Y-25596032D01*
X14738596Y-25586508D01*
X14729072Y-25567461D01*
X14719548Y-25529366D01*
X14719548Y-25481747D01*
X14729072Y-25443651D01*
X14738596Y-25424604D01*
X14748120Y-25415080D01*
X14767167Y-25405556D01*
X14919548Y-25605556D02*
X14919548Y-25472223D01*
X14919548Y-25491270D02*
X14929072Y-25481747D01*
X14948120Y-25472223D01*
X14976691Y-25472223D01*
X14995739Y-25481747D01*
X15005263Y-25500794D01*
X15005263Y-25605556D01*
X15005263Y-25500794D02*
X15014786Y-25481747D01*
X15033834Y-25472223D01*
X15062405Y-25472223D01*
X15081453Y-25481747D01*
X15090977Y-25500794D01*
X15090977Y-25605556D01*
X15186215Y-25605556D02*
X15186215Y-25472223D01*
X15186215Y-25491270D02*
X15195739Y-25481747D01*
X15214786Y-25472223D01*
X15243358Y-25472223D01*
X15262405Y-25481747D01*
X15271929Y-25500794D01*
X15271929Y-25605556D01*
X15271929Y-25500794D02*
X15281453Y-25481747D01*
X15300501Y-25472223D01*
X15329072Y-25472223D01*
X15348120Y-25481747D01*
X15357644Y-25500794D01*
X15357644Y-25605556D01*
X15748120Y-25396032D02*
X15576691Y-25653175D01*
X16005263Y-25405556D02*
X16024310Y-25405556D01*
X16043358Y-25415080D01*
X16052882Y-25424604D01*
X16062405Y-25443651D01*
X16071929Y-25481747D01*
X16071929Y-25529366D01*
X16062405Y-25567461D01*
X16052882Y-25586508D01*
X16043358Y-25596032D01*
X16024310Y-25605556D01*
X16005263Y-25605556D01*
X15986215Y-25596032D01*
X15976691Y-25586508D01*
X15967167Y-25567461D01*
X15957644Y-25529366D01*
X15957644Y-25481747D01*
X15967167Y-25443651D01*
X15976691Y-25424604D01*
X15986215Y-25415080D01*
X16005263Y-25405556D01*
X16157644Y-25586508D02*
X16167167Y-25596032D01*
X16157644Y-25605556D01*
X16148120Y-25596032D01*
X16157644Y-25586508D01*
X16157644Y-25605556D01*
X16290977Y-25405556D02*
X16310024Y-25405556D01*
X16329072Y-25415080D01*
X16338596Y-25424604D01*
X16348120Y-25443651D01*
X16357644Y-25481747D01*
X16357644Y-25529366D01*
X16348120Y-25567461D01*
X16338596Y-25586508D01*
X16329072Y-25596032D01*
X16310024Y-25605556D01*
X16290977Y-25605556D01*
X16271929Y-25596032D01*
X16262405Y-25586508D01*
X16252882Y-25567461D01*
X16243358Y-25529366D01*
X16243358Y-25481747D01*
X16252882Y-25443651D01*
X16262405Y-25424604D01*
X16271929Y-25415080D01*
X16290977Y-25405556D01*
X16538596Y-25405556D02*
X16443358Y-25405556D01*
X16433834Y-25500794D01*
X16443358Y-25491270D01*
X16462405Y-25481747D01*
X16510024Y-25481747D01*
X16529072Y-25491270D01*
X16538596Y-25500794D01*
X16548120Y-25519842D01*
X16548120Y-25567461D01*
X16538596Y-25586508D01*
X16529072Y-25596032D01*
X16510024Y-25605556D01*
X16462405Y-25605556D01*
X16443358Y-25596032D01*
X16433834Y-25586508D01*
X16738596Y-25605556D02*
X16624310Y-25605556D01*
X16681453Y-25605556D02*
X16681453Y-25405556D01*
X16662405Y-25434128D01*
X16643358Y-25453175D01*
X16624310Y-25462699D01*
X16814787Y-25424604D02*
X16824310Y-25415080D01*
X16843358Y-25405556D01*
X16890977Y-25405556D01*
X16910025Y-25415080D01*
X16919548Y-25424604D01*
X16929072Y-25443651D01*
X16929072Y-25462699D01*
X16919548Y-25491270D01*
X16805263Y-25605556D01*
X16929072Y-25605556D01*
X17005263Y-25405556D02*
X17005263Y-25443651D01*
X17081453Y-25405556D02*
X17081453Y-25443651D01*
X17376691Y-25681747D02*
X17367167Y-25672223D01*
X17348120Y-25643651D01*
X17338596Y-25624604D01*
X17329072Y-25596032D01*
X17319548Y-25548413D01*
X17319548Y-25510318D01*
X17329072Y-25462699D01*
X17338596Y-25434128D01*
X17348120Y-25415080D01*
X17367167Y-25386508D01*
X17376691Y-25376985D01*
X17433834Y-25405556D02*
X17557644Y-25405556D01*
X17490977Y-25481747D01*
X17519548Y-25481747D01*
X17538596Y-25491270D01*
X17548120Y-25500794D01*
X17557644Y-25519842D01*
X17557644Y-25567461D01*
X17548120Y-25586508D01*
X17538596Y-25596032D01*
X17519548Y-25605556D01*
X17462406Y-25605556D01*
X17443358Y-25596032D01*
X17433834Y-25586508D01*
X17795739Y-25605556D02*
X17795739Y-25405556D01*
X17881453Y-25605556D02*
X17881453Y-25500794D01*
X17871929Y-25481747D01*
X17852882Y-25472223D01*
X17824310Y-25472223D01*
X17805263Y-25481747D01*
X17795739Y-25491270D01*
X18005263Y-25605556D02*
X17986215Y-25596032D01*
X17976691Y-25586508D01*
X17967167Y-25567461D01*
X17967167Y-25510318D01*
X17976691Y-25491270D01*
X17986215Y-25481747D01*
X18005263Y-25472223D01*
X18033834Y-25472223D01*
X18052882Y-25481747D01*
X18062406Y-25491270D01*
X18071929Y-25510318D01*
X18071929Y-25567461D01*
X18062406Y-25586508D01*
X18052882Y-25596032D01*
X18033834Y-25605556D01*
X18005263Y-25605556D01*
X18186215Y-25605556D02*
X18167167Y-25596032D01*
X18157644Y-25576985D01*
X18157644Y-25405556D01*
X18338596Y-25596032D02*
X18319548Y-25605556D01*
X18281453Y-25605556D01*
X18262406Y-25596032D01*
X18252882Y-25576985D01*
X18252882Y-25500794D01*
X18262406Y-25481747D01*
X18281453Y-25472223D01*
X18319548Y-25472223D01*
X18338596Y-25481747D01*
X18348120Y-25500794D01*
X18348120Y-25519842D01*
X18252882Y-25538889D01*
X18424310Y-25596032D02*
X18443358Y-25605556D01*
X18481453Y-25605556D01*
X18500501Y-25596032D01*
X18510025Y-25576985D01*
X18510025Y-25567461D01*
X18500501Y-25548413D01*
X18481453Y-25538889D01*
X18452882Y-25538889D01*
X18433834Y-25529366D01*
X18424310Y-25510318D01*
X18424310Y-25500794D01*
X18433834Y-25481747D01*
X18452882Y-25472223D01*
X18481453Y-25472223D01*
X18500501Y-25481747D01*
X18576691Y-25681747D02*
X18586215Y-25672223D01*
X18605263Y-25643651D01*
X18614786Y-25624604D01*
X18624310Y-25596032D01*
X18633834Y-25548413D01*
X18633834Y-25510318D01*
X18624310Y-25462699D01*
X18614786Y-25434128D01*
X18605263Y-25415080D01*
X18586215Y-25386508D01*
X18576691Y-25376985D01*
D23*
X13729786Y-25854080D02*
X13804786Y-25779080D01*
X13729786Y-25704080D01*
X13654786Y-25779080D01*
X13729786Y-25854080D01*
X13804786Y-25779080D02*
G75*
G03*
X13804786Y-25779080I-75000J0D01*
G01*
D12*
X14167167Y-25869556D02*
X14052882Y-25869556D01*
X14110024Y-25869556D02*
X14110024Y-25669556D01*
X14090977Y-25698128D01*
X14071929Y-25717175D01*
X14052882Y-25726699D01*
X14252882Y-25850508D02*
X14262405Y-25860032D01*
X14252882Y-25869556D01*
X14243358Y-25860032D01*
X14252882Y-25850508D01*
X14252882Y-25869556D01*
X14443358Y-25669556D02*
X14348120Y-25669556D01*
X14338596Y-25764794D01*
X14348120Y-25755270D01*
X14367167Y-25745747D01*
X14414786Y-25745747D01*
X14433834Y-25755270D01*
X14443358Y-25764794D01*
X14452882Y-25783842D01*
X14452882Y-25831461D01*
X14443358Y-25850508D01*
X14433834Y-25860032D01*
X14414786Y-25869556D01*
X14367167Y-25869556D01*
X14348120Y-25860032D01*
X14338596Y-25850508D01*
X14576691Y-25669556D02*
X14595739Y-25669556D01*
X14614786Y-25679080D01*
X14624310Y-25688604D01*
X14633834Y-25707651D01*
X14643358Y-25745747D01*
X14643358Y-25793366D01*
X14633834Y-25831461D01*
X14624310Y-25850508D01*
X14614786Y-25860032D01*
X14595739Y-25869556D01*
X14576691Y-25869556D01*
X14557644Y-25860032D01*
X14548120Y-25850508D01*
X14538596Y-25831461D01*
X14529072Y-25793366D01*
X14529072Y-25745747D01*
X14538596Y-25707651D01*
X14548120Y-25688604D01*
X14557644Y-25679080D01*
X14576691Y-25669556D01*
X14767167Y-25669556D02*
X14786215Y-25669556D01*
X14805263Y-25679080D01*
X14814786Y-25688604D01*
X14824310Y-25707651D01*
X14833834Y-25745747D01*
X14833834Y-25793366D01*
X14824310Y-25831461D01*
X14814786Y-25850508D01*
X14805263Y-25860032D01*
X14786215Y-25869556D01*
X14767167Y-25869556D01*
X14748120Y-25860032D01*
X14738596Y-25850508D01*
X14729072Y-25831461D01*
X14719548Y-25793366D01*
X14719548Y-25745747D01*
X14729072Y-25707651D01*
X14738596Y-25688604D01*
X14748120Y-25679080D01*
X14767167Y-25669556D01*
X14919548Y-25869556D02*
X14919548Y-25736223D01*
X14919548Y-25755270D02*
X14929072Y-25745747D01*
X14948120Y-25736223D01*
X14976691Y-25736223D01*
X14995739Y-25745747D01*
X15005263Y-25764794D01*
X15005263Y-25869556D01*
X15005263Y-25764794D02*
X15014786Y-25745747D01*
X15033834Y-25736223D01*
X15062405Y-25736223D01*
X15081453Y-25745747D01*
X15090977Y-25764794D01*
X15090977Y-25869556D01*
X15186215Y-25869556D02*
X15186215Y-25736223D01*
X15186215Y-25755270D02*
X15195739Y-25745747D01*
X15214786Y-25736223D01*
X15243358Y-25736223D01*
X15262405Y-25745747D01*
X15271929Y-25764794D01*
X15271929Y-25869556D01*
X15271929Y-25764794D02*
X15281453Y-25745747D01*
X15300501Y-25736223D01*
X15329072Y-25736223D01*
X15348120Y-25745747D01*
X15357644Y-25764794D01*
X15357644Y-25869556D01*
X15748120Y-25660032D02*
X15576691Y-25917175D01*
X16005263Y-25669556D02*
X16024310Y-25669556D01*
X16043358Y-25679080D01*
X16052882Y-25688604D01*
X16062405Y-25707651D01*
X16071929Y-25745747D01*
X16071929Y-25793366D01*
X16062405Y-25831461D01*
X16052882Y-25850508D01*
X16043358Y-25860032D01*
X16024310Y-25869556D01*
X16005263Y-25869556D01*
X15986215Y-25860032D01*
X15976691Y-25850508D01*
X15967167Y-25831461D01*
X15957644Y-25793366D01*
X15957644Y-25745747D01*
X15967167Y-25707651D01*
X15976691Y-25688604D01*
X15986215Y-25679080D01*
X16005263Y-25669556D01*
X16157644Y-25850508D02*
X16167167Y-25860032D01*
X16157644Y-25869556D01*
X16148120Y-25860032D01*
X16157644Y-25850508D01*
X16157644Y-25869556D01*
X16290977Y-25669556D02*
X16310024Y-25669556D01*
X16329072Y-25679080D01*
X16338596Y-25688604D01*
X16348120Y-25707651D01*
X16357644Y-25745747D01*
X16357644Y-25793366D01*
X16348120Y-25831461D01*
X16338596Y-25850508D01*
X16329072Y-25860032D01*
X16310024Y-25869556D01*
X16290977Y-25869556D01*
X16271929Y-25860032D01*
X16262405Y-25850508D01*
X16252882Y-25831461D01*
X16243358Y-25793366D01*
X16243358Y-25745747D01*
X16252882Y-25707651D01*
X16262405Y-25688604D01*
X16271929Y-25679080D01*
X16290977Y-25669556D01*
X16538596Y-25669556D02*
X16443358Y-25669556D01*
X16433834Y-25764794D01*
X16443358Y-25755270D01*
X16462405Y-25745747D01*
X16510024Y-25745747D01*
X16529072Y-25755270D01*
X16538596Y-25764794D01*
X16548120Y-25783842D01*
X16548120Y-25831461D01*
X16538596Y-25850508D01*
X16529072Y-25860032D01*
X16510024Y-25869556D01*
X16462405Y-25869556D01*
X16443358Y-25860032D01*
X16433834Y-25850508D01*
X16643358Y-25869556D02*
X16681453Y-25869556D01*
X16700501Y-25860032D01*
X16710024Y-25850508D01*
X16729072Y-25821937D01*
X16738596Y-25783842D01*
X16738596Y-25707651D01*
X16729072Y-25688604D01*
X16719548Y-25679080D01*
X16700501Y-25669556D01*
X16662405Y-25669556D01*
X16643358Y-25679080D01*
X16633834Y-25688604D01*
X16624310Y-25707651D01*
X16624310Y-25755270D01*
X16633834Y-25774318D01*
X16643358Y-25783842D01*
X16662405Y-25793366D01*
X16700501Y-25793366D01*
X16719548Y-25783842D01*
X16729072Y-25774318D01*
X16738596Y-25755270D01*
X16929072Y-25869556D02*
X16814787Y-25869556D01*
X16871929Y-25869556D02*
X16871929Y-25669556D01*
X16852882Y-25698128D01*
X16833834Y-25717175D01*
X16814787Y-25726699D01*
X17005263Y-25669556D02*
X17005263Y-25707651D01*
X17081453Y-25669556D02*
X17081453Y-25707651D01*
X17376691Y-25945747D02*
X17367167Y-25936223D01*
X17348120Y-25907651D01*
X17338596Y-25888604D01*
X17329072Y-25860032D01*
X17319548Y-25812413D01*
X17319548Y-25774318D01*
X17329072Y-25726699D01*
X17338596Y-25698128D01*
X17348120Y-25679080D01*
X17367167Y-25650508D01*
X17376691Y-25640985D01*
X17548120Y-25669556D02*
X17452882Y-25669556D01*
X17443358Y-25764794D01*
X17452882Y-25755270D01*
X17471929Y-25745747D01*
X17519548Y-25745747D01*
X17538596Y-25755270D01*
X17548120Y-25764794D01*
X17557644Y-25783842D01*
X17557644Y-25831461D01*
X17548120Y-25850508D01*
X17538596Y-25860032D01*
X17519548Y-25869556D01*
X17471929Y-25869556D01*
X17452882Y-25860032D01*
X17443358Y-25850508D01*
X17795739Y-25869556D02*
X17795739Y-25669556D01*
X17881453Y-25869556D02*
X17881453Y-25764794D01*
X17871929Y-25745747D01*
X17852882Y-25736223D01*
X17824310Y-25736223D01*
X17805263Y-25745747D01*
X17795739Y-25755270D01*
X18005263Y-25869556D02*
X17986215Y-25860032D01*
X17976691Y-25850508D01*
X17967167Y-25831461D01*
X17967167Y-25774318D01*
X17976691Y-25755270D01*
X17986215Y-25745747D01*
X18005263Y-25736223D01*
X18033834Y-25736223D01*
X18052882Y-25745747D01*
X18062406Y-25755270D01*
X18071929Y-25774318D01*
X18071929Y-25831461D01*
X18062406Y-25850508D01*
X18052882Y-25860032D01*
X18033834Y-25869556D01*
X18005263Y-25869556D01*
X18186215Y-25869556D02*
X18167167Y-25860032D01*
X18157644Y-25840985D01*
X18157644Y-25669556D01*
X18338596Y-25860032D02*
X18319548Y-25869556D01*
X18281453Y-25869556D01*
X18262406Y-25860032D01*
X18252882Y-25840985D01*
X18252882Y-25764794D01*
X18262406Y-25745747D01*
X18281453Y-25736223D01*
X18319548Y-25736223D01*
X18338596Y-25745747D01*
X18348120Y-25764794D01*
X18348120Y-25783842D01*
X18252882Y-25802889D01*
X18424310Y-25860032D02*
X18443358Y-25869556D01*
X18481453Y-25869556D01*
X18500501Y-25860032D01*
X18510025Y-25840985D01*
X18510025Y-25831461D01*
X18500501Y-25812413D01*
X18481453Y-25802889D01*
X18452882Y-25802889D01*
X18433834Y-25793366D01*
X18424310Y-25774318D01*
X18424310Y-25764794D01*
X18433834Y-25745747D01*
X18452882Y-25736223D01*
X18481453Y-25736223D01*
X18500501Y-25745747D01*
X18576691Y-25945747D02*
X18586215Y-25936223D01*
X18605263Y-25907651D01*
X18614786Y-25888604D01*
X18624310Y-25860032D01*
X18633834Y-25812413D01*
X18633834Y-25774318D01*
X18624310Y-25726699D01*
X18614786Y-25698128D01*
X18605263Y-25679080D01*
X18586215Y-25650508D01*
X18576691Y-25640985D01*
D24*
X13728786Y-25973080D02*
X13728786Y-26125080D01*
X13652786Y-26049080D02*
X13804786Y-26049080D01*
X13782527Y-26102821D02*
X13782527Y-25995339D01*
X13675046Y-25995339D01*
X13675046Y-26102821D01*
X13782527Y-26102821D01*
D12*
X14167167Y-26139556D02*
X14052882Y-26139556D01*
X14110024Y-26139556D02*
X14110024Y-25939556D01*
X14090977Y-25968128D01*
X14071929Y-25987175D01*
X14052882Y-25996699D01*
X14252882Y-26120508D02*
X14262405Y-26130032D01*
X14252882Y-26139556D01*
X14243358Y-26130032D01*
X14252882Y-26120508D01*
X14252882Y-26139556D01*
X14443358Y-25939556D02*
X14348120Y-25939556D01*
X14338596Y-26034794D01*
X14348120Y-26025270D01*
X14367167Y-26015747D01*
X14414786Y-26015747D01*
X14433834Y-26025270D01*
X14443358Y-26034794D01*
X14452882Y-26053842D01*
X14452882Y-26101461D01*
X14443358Y-26120508D01*
X14433834Y-26130032D01*
X14414786Y-26139556D01*
X14367167Y-26139556D01*
X14348120Y-26130032D01*
X14338596Y-26120508D01*
X14529072Y-25958604D02*
X14538596Y-25949080D01*
X14557644Y-25939556D01*
X14605263Y-25939556D01*
X14624310Y-25949080D01*
X14633834Y-25958604D01*
X14643358Y-25977651D01*
X14643358Y-25996699D01*
X14633834Y-26025270D01*
X14519548Y-26139556D01*
X14643358Y-26139556D01*
X14767167Y-25939556D02*
X14786215Y-25939556D01*
X14805263Y-25949080D01*
X14814786Y-25958604D01*
X14824310Y-25977651D01*
X14833834Y-26015747D01*
X14833834Y-26063366D01*
X14824310Y-26101461D01*
X14814786Y-26120508D01*
X14805263Y-26130032D01*
X14786215Y-26139556D01*
X14767167Y-26139556D01*
X14748120Y-26130032D01*
X14738596Y-26120508D01*
X14729072Y-26101461D01*
X14719548Y-26063366D01*
X14719548Y-26015747D01*
X14729072Y-25977651D01*
X14738596Y-25958604D01*
X14748120Y-25949080D01*
X14767167Y-25939556D01*
X14919548Y-26139556D02*
X14919548Y-26006223D01*
X14919548Y-26025270D02*
X14929072Y-26015747D01*
X14948120Y-26006223D01*
X14976691Y-26006223D01*
X14995739Y-26015747D01*
X15005263Y-26034794D01*
X15005263Y-26139556D01*
X15005263Y-26034794D02*
X15014786Y-26015747D01*
X15033834Y-26006223D01*
X15062405Y-26006223D01*
X15081453Y-26015747D01*
X15090977Y-26034794D01*
X15090977Y-26139556D01*
X15186215Y-26139556D02*
X15186215Y-26006223D01*
X15186215Y-26025270D02*
X15195739Y-26015747D01*
X15214786Y-26006223D01*
X15243358Y-26006223D01*
X15262405Y-26015747D01*
X15271929Y-26034794D01*
X15271929Y-26139556D01*
X15271929Y-26034794D02*
X15281453Y-26015747D01*
X15300501Y-26006223D01*
X15329072Y-26006223D01*
X15348120Y-26015747D01*
X15357644Y-26034794D01*
X15357644Y-26139556D01*
X15748120Y-25930032D02*
X15576691Y-26187175D01*
X16005263Y-25939556D02*
X16024310Y-25939556D01*
X16043358Y-25949080D01*
X16052882Y-25958604D01*
X16062405Y-25977651D01*
X16071929Y-26015747D01*
X16071929Y-26063366D01*
X16062405Y-26101461D01*
X16052882Y-26120508D01*
X16043358Y-26130032D01*
X16024310Y-26139556D01*
X16005263Y-26139556D01*
X15986215Y-26130032D01*
X15976691Y-26120508D01*
X15967167Y-26101461D01*
X15957644Y-26063366D01*
X15957644Y-26015747D01*
X15967167Y-25977651D01*
X15976691Y-25958604D01*
X15986215Y-25949080D01*
X16005263Y-25939556D01*
X16157644Y-26120508D02*
X16167167Y-26130032D01*
X16157644Y-26139556D01*
X16148120Y-26130032D01*
X16157644Y-26120508D01*
X16157644Y-26139556D01*
X16290977Y-25939556D02*
X16310024Y-25939556D01*
X16329072Y-25949080D01*
X16338596Y-25958604D01*
X16348120Y-25977651D01*
X16357644Y-26015747D01*
X16357644Y-26063366D01*
X16348120Y-26101461D01*
X16338596Y-26120508D01*
X16329072Y-26130032D01*
X16310024Y-26139556D01*
X16290977Y-26139556D01*
X16271929Y-26130032D01*
X16262405Y-26120508D01*
X16252882Y-26101461D01*
X16243358Y-26063366D01*
X16243358Y-26015747D01*
X16252882Y-25977651D01*
X16262405Y-25958604D01*
X16271929Y-25949080D01*
X16290977Y-25939556D01*
X16538596Y-25939556D02*
X16443358Y-25939556D01*
X16433834Y-26034794D01*
X16443358Y-26025270D01*
X16462405Y-26015747D01*
X16510024Y-26015747D01*
X16529072Y-26025270D01*
X16538596Y-26034794D01*
X16548120Y-26053842D01*
X16548120Y-26101461D01*
X16538596Y-26120508D01*
X16529072Y-26130032D01*
X16510024Y-26139556D01*
X16462405Y-26139556D01*
X16443358Y-26130032D01*
X16433834Y-26120508D01*
X16643358Y-26139556D02*
X16681453Y-26139556D01*
X16700501Y-26130032D01*
X16710024Y-26120508D01*
X16729072Y-26091937D01*
X16738596Y-26053842D01*
X16738596Y-25977651D01*
X16729072Y-25958604D01*
X16719548Y-25949080D01*
X16700501Y-25939556D01*
X16662405Y-25939556D01*
X16643358Y-25949080D01*
X16633834Y-25958604D01*
X16624310Y-25977651D01*
X16624310Y-26025270D01*
X16633834Y-26044318D01*
X16643358Y-26053842D01*
X16662405Y-26063366D01*
X16700501Y-26063366D01*
X16719548Y-26053842D01*
X16729072Y-26044318D01*
X16738596Y-26025270D01*
X16852882Y-26025270D02*
X16833834Y-26015747D01*
X16824310Y-26006223D01*
X16814787Y-25987175D01*
X16814787Y-25977651D01*
X16824310Y-25958604D01*
X16833834Y-25949080D01*
X16852882Y-25939556D01*
X16890977Y-25939556D01*
X16910025Y-25949080D01*
X16919548Y-25958604D01*
X16929072Y-25977651D01*
X16929072Y-25987175D01*
X16919548Y-26006223D01*
X16910025Y-26015747D01*
X16890977Y-26025270D01*
X16852882Y-26025270D01*
X16833834Y-26034794D01*
X16824310Y-26044318D01*
X16814787Y-26063366D01*
X16814787Y-26101461D01*
X16824310Y-26120508D01*
X16833834Y-26130032D01*
X16852882Y-26139556D01*
X16890977Y-26139556D01*
X16910025Y-26130032D01*
X16919548Y-26120508D01*
X16929072Y-26101461D01*
X16929072Y-26063366D01*
X16919548Y-26044318D01*
X16910025Y-26034794D01*
X16890977Y-26025270D01*
X17005263Y-25939556D02*
X17005263Y-25977651D01*
X17081453Y-25939556D02*
X17081453Y-25977651D01*
X17376691Y-26215747D02*
X17367167Y-26206223D01*
X17348120Y-26177651D01*
X17338596Y-26158604D01*
X17329072Y-26130032D01*
X17319548Y-26082413D01*
X17319548Y-26044318D01*
X17329072Y-25996699D01*
X17338596Y-25968128D01*
X17348120Y-25949080D01*
X17367167Y-25920508D01*
X17376691Y-25910985D01*
X17481453Y-26025270D02*
X17462406Y-26015747D01*
X17452882Y-26006223D01*
X17443358Y-25987175D01*
X17443358Y-25977651D01*
X17452882Y-25958604D01*
X17462406Y-25949080D01*
X17481453Y-25939556D01*
X17519548Y-25939556D01*
X17538596Y-25949080D01*
X17548120Y-25958604D01*
X17557644Y-25977651D01*
X17557644Y-25987175D01*
X17548120Y-26006223D01*
X17538596Y-26015747D01*
X17519548Y-26025270D01*
X17481453Y-26025270D01*
X17462406Y-26034794D01*
X17452882Y-26044318D01*
X17443358Y-26063366D01*
X17443358Y-26101461D01*
X17452882Y-26120508D01*
X17462406Y-26130032D01*
X17481453Y-26139556D01*
X17519548Y-26139556D01*
X17538596Y-26130032D01*
X17548120Y-26120508D01*
X17557644Y-26101461D01*
X17557644Y-26063366D01*
X17548120Y-26044318D01*
X17538596Y-26034794D01*
X17519548Y-26025270D01*
X17795739Y-26139556D02*
X17795739Y-25939556D01*
X17881453Y-26139556D02*
X17881453Y-26034794D01*
X17871929Y-26015747D01*
X17852882Y-26006223D01*
X17824310Y-26006223D01*
X17805263Y-26015747D01*
X17795739Y-26025270D01*
X18005263Y-26139556D02*
X17986215Y-26130032D01*
X17976691Y-26120508D01*
X17967167Y-26101461D01*
X17967167Y-26044318D01*
X17976691Y-26025270D01*
X17986215Y-26015747D01*
X18005263Y-26006223D01*
X18033834Y-26006223D01*
X18052882Y-26015747D01*
X18062406Y-26025270D01*
X18071929Y-26044318D01*
X18071929Y-26101461D01*
X18062406Y-26120508D01*
X18052882Y-26130032D01*
X18033834Y-26139556D01*
X18005263Y-26139556D01*
X18186215Y-26139556D02*
X18167167Y-26130032D01*
X18157644Y-26110985D01*
X18157644Y-25939556D01*
X18338596Y-26130032D02*
X18319548Y-26139556D01*
X18281453Y-26139556D01*
X18262406Y-26130032D01*
X18252882Y-26110985D01*
X18252882Y-26034794D01*
X18262406Y-26015747D01*
X18281453Y-26006223D01*
X18319548Y-26006223D01*
X18338596Y-26015747D01*
X18348120Y-26034794D01*
X18348120Y-26053842D01*
X18252882Y-26072889D01*
X18424310Y-26130032D02*
X18443358Y-26139556D01*
X18481453Y-26139556D01*
X18500501Y-26130032D01*
X18510025Y-26110985D01*
X18510025Y-26101461D01*
X18500501Y-26082413D01*
X18481453Y-26072889D01*
X18452882Y-26072889D01*
X18433834Y-26063366D01*
X18424310Y-26044318D01*
X18424310Y-26034794D01*
X18433834Y-26015747D01*
X18452882Y-26006223D01*
X18481453Y-26006223D01*
X18500501Y-26015747D01*
X18576691Y-26215747D02*
X18586215Y-26206223D01*
X18605263Y-26177651D01*
X18614786Y-26158604D01*
X18624310Y-26130032D01*
X18633834Y-26082413D01*
X18633834Y-26044318D01*
X18624310Y-25996699D01*
X18614786Y-25968128D01*
X18605263Y-25949080D01*
X18586215Y-25920508D01*
X18576691Y-25910985D01*
D25*
X13724786Y-26241080D02*
X13724786Y-26401080D01*
X13644786Y-26321080D02*
X13804786Y-26321080D01*
X13724786Y-26401080D02*
X13804786Y-26321080D01*
X13724786Y-26241080D01*
X13644786Y-26321080D01*
X13724786Y-26401080D01*
D12*
X14167167Y-26411556D02*
X14052882Y-26411556D01*
X14110024Y-26411556D02*
X14110024Y-26211556D01*
X14090977Y-26240128D01*
X14071929Y-26259175D01*
X14052882Y-26268699D01*
X14252882Y-26392508D02*
X14262405Y-26402032D01*
X14252882Y-26411556D01*
X14243358Y-26402032D01*
X14252882Y-26392508D01*
X14252882Y-26411556D01*
X14433834Y-26211556D02*
X14395739Y-26211556D01*
X14376691Y-26221080D01*
X14367167Y-26230604D01*
X14348120Y-26259175D01*
X14338596Y-26297270D01*
X14338596Y-26373461D01*
X14348120Y-26392508D01*
X14357644Y-26402032D01*
X14376691Y-26411556D01*
X14414786Y-26411556D01*
X14433834Y-26402032D01*
X14443358Y-26392508D01*
X14452882Y-26373461D01*
X14452882Y-26325842D01*
X14443358Y-26306794D01*
X14433834Y-26297270D01*
X14414786Y-26287747D01*
X14376691Y-26287747D01*
X14357644Y-26297270D01*
X14348120Y-26306794D01*
X14338596Y-26325842D01*
X14576691Y-26211556D02*
X14595739Y-26211556D01*
X14614786Y-26221080D01*
X14624310Y-26230604D01*
X14633834Y-26249651D01*
X14643358Y-26287747D01*
X14643358Y-26335366D01*
X14633834Y-26373461D01*
X14624310Y-26392508D01*
X14614786Y-26402032D01*
X14595739Y-26411556D01*
X14576691Y-26411556D01*
X14557644Y-26402032D01*
X14548120Y-26392508D01*
X14538596Y-26373461D01*
X14529072Y-26335366D01*
X14529072Y-26287747D01*
X14538596Y-26249651D01*
X14548120Y-26230604D01*
X14557644Y-26221080D01*
X14576691Y-26211556D01*
X14767167Y-26211556D02*
X14786215Y-26211556D01*
X14805263Y-26221080D01*
X14814786Y-26230604D01*
X14824310Y-26249651D01*
X14833834Y-26287747D01*
X14833834Y-26335366D01*
X14824310Y-26373461D01*
X14814786Y-26392508D01*
X14805263Y-26402032D01*
X14786215Y-26411556D01*
X14767167Y-26411556D01*
X14748120Y-26402032D01*
X14738596Y-26392508D01*
X14729072Y-26373461D01*
X14719548Y-26335366D01*
X14719548Y-26287747D01*
X14729072Y-26249651D01*
X14738596Y-26230604D01*
X14748120Y-26221080D01*
X14767167Y-26211556D01*
X14919548Y-26411556D02*
X14919548Y-26278223D01*
X14919548Y-26297270D02*
X14929072Y-26287747D01*
X14948120Y-26278223D01*
X14976691Y-26278223D01*
X14995739Y-26287747D01*
X15005263Y-26306794D01*
X15005263Y-26411556D01*
X15005263Y-26306794D02*
X15014786Y-26287747D01*
X15033834Y-26278223D01*
X15062405Y-26278223D01*
X15081453Y-26287747D01*
X15090977Y-26306794D01*
X15090977Y-26411556D01*
X15186215Y-26411556D02*
X15186215Y-26278223D01*
X15186215Y-26297270D02*
X15195739Y-26287747D01*
X15214786Y-26278223D01*
X15243358Y-26278223D01*
X15262405Y-26287747D01*
X15271929Y-26306794D01*
X15271929Y-26411556D01*
X15271929Y-26306794D02*
X15281453Y-26287747D01*
X15300501Y-26278223D01*
X15329072Y-26278223D01*
X15348120Y-26287747D01*
X15357644Y-26306794D01*
X15357644Y-26411556D01*
X15748120Y-26202032D02*
X15576691Y-26459175D01*
X16005263Y-26211556D02*
X16024310Y-26211556D01*
X16043358Y-26221080D01*
X16052882Y-26230604D01*
X16062405Y-26249651D01*
X16071929Y-26287747D01*
X16071929Y-26335366D01*
X16062405Y-26373461D01*
X16052882Y-26392508D01*
X16043358Y-26402032D01*
X16024310Y-26411556D01*
X16005263Y-26411556D01*
X15986215Y-26402032D01*
X15976691Y-26392508D01*
X15967167Y-26373461D01*
X15957644Y-26335366D01*
X15957644Y-26287747D01*
X15967167Y-26249651D01*
X15976691Y-26230604D01*
X15986215Y-26221080D01*
X16005263Y-26211556D01*
X16157644Y-26392508D02*
X16167167Y-26402032D01*
X16157644Y-26411556D01*
X16148120Y-26402032D01*
X16157644Y-26392508D01*
X16157644Y-26411556D01*
X16290977Y-26211556D02*
X16310024Y-26211556D01*
X16329072Y-26221080D01*
X16338596Y-26230604D01*
X16348120Y-26249651D01*
X16357644Y-26287747D01*
X16357644Y-26335366D01*
X16348120Y-26373461D01*
X16338596Y-26392508D01*
X16329072Y-26402032D01*
X16310024Y-26411556D01*
X16290977Y-26411556D01*
X16271929Y-26402032D01*
X16262405Y-26392508D01*
X16252882Y-26373461D01*
X16243358Y-26335366D01*
X16243358Y-26287747D01*
X16252882Y-26249651D01*
X16262405Y-26230604D01*
X16271929Y-26221080D01*
X16290977Y-26211556D01*
X16529072Y-26211556D02*
X16490977Y-26211556D01*
X16471929Y-26221080D01*
X16462405Y-26230604D01*
X16443358Y-26259175D01*
X16433834Y-26297270D01*
X16433834Y-26373461D01*
X16443358Y-26392508D01*
X16452882Y-26402032D01*
X16471929Y-26411556D01*
X16510024Y-26411556D01*
X16529072Y-26402032D01*
X16538596Y-26392508D01*
X16548120Y-26373461D01*
X16548120Y-26325842D01*
X16538596Y-26306794D01*
X16529072Y-26297270D01*
X16510024Y-26287747D01*
X16471929Y-26287747D01*
X16452882Y-26297270D01*
X16443358Y-26306794D01*
X16433834Y-26325842D01*
X16614786Y-26211556D02*
X16738596Y-26211556D01*
X16671929Y-26287747D01*
X16700501Y-26287747D01*
X16719548Y-26297270D01*
X16729072Y-26306794D01*
X16738596Y-26325842D01*
X16738596Y-26373461D01*
X16729072Y-26392508D01*
X16719548Y-26402032D01*
X16700501Y-26411556D01*
X16643358Y-26411556D01*
X16624310Y-26402032D01*
X16614786Y-26392508D01*
X16862406Y-26211556D02*
X16881453Y-26211556D01*
X16900501Y-26221080D01*
X16910025Y-26230604D01*
X16919548Y-26249651D01*
X16929072Y-26287747D01*
X16929072Y-26335366D01*
X16919548Y-26373461D01*
X16910025Y-26392508D01*
X16900501Y-26402032D01*
X16881453Y-26411556D01*
X16862406Y-26411556D01*
X16843358Y-26402032D01*
X16833834Y-26392508D01*
X16824310Y-26373461D01*
X16814787Y-26335366D01*
X16814787Y-26287747D01*
X16824310Y-26249651D01*
X16833834Y-26230604D01*
X16843358Y-26221080D01*
X16862406Y-26211556D01*
X17005263Y-26211556D02*
X17005263Y-26249651D01*
X17081453Y-26211556D02*
X17081453Y-26249651D01*
X17376691Y-26487747D02*
X17367167Y-26478223D01*
X17348120Y-26449651D01*
X17338596Y-26430604D01*
X17329072Y-26402032D01*
X17319548Y-26354413D01*
X17319548Y-26316318D01*
X17329072Y-26268699D01*
X17338596Y-26240128D01*
X17348120Y-26221080D01*
X17367167Y-26192508D01*
X17376691Y-26182985D01*
X17443358Y-26230604D02*
X17452882Y-26221080D01*
X17471929Y-26211556D01*
X17519548Y-26211556D01*
X17538596Y-26221080D01*
X17548120Y-26230604D01*
X17557644Y-26249651D01*
X17557644Y-26268699D01*
X17548120Y-26297270D01*
X17433834Y-26411556D01*
X17557644Y-26411556D01*
X17795739Y-26411556D02*
X17795739Y-26211556D01*
X17881453Y-26411556D02*
X17881453Y-26306794D01*
X17871929Y-26287747D01*
X17852882Y-26278223D01*
X17824310Y-26278223D01*
X17805263Y-26287747D01*
X17795739Y-26297270D01*
X18005263Y-26411556D02*
X17986215Y-26402032D01*
X17976691Y-26392508D01*
X17967167Y-26373461D01*
X17967167Y-26316318D01*
X17976691Y-26297270D01*
X17986215Y-26287747D01*
X18005263Y-26278223D01*
X18033834Y-26278223D01*
X18052882Y-26287747D01*
X18062406Y-26297270D01*
X18071929Y-26316318D01*
X18071929Y-26373461D01*
X18062406Y-26392508D01*
X18052882Y-26402032D01*
X18033834Y-26411556D01*
X18005263Y-26411556D01*
X18186215Y-26411556D02*
X18167167Y-26402032D01*
X18157644Y-26382985D01*
X18157644Y-26211556D01*
X18338596Y-26402032D02*
X18319548Y-26411556D01*
X18281453Y-26411556D01*
X18262406Y-26402032D01*
X18252882Y-26382985D01*
X18252882Y-26306794D01*
X18262406Y-26287747D01*
X18281453Y-26278223D01*
X18319548Y-26278223D01*
X18338596Y-26287747D01*
X18348120Y-26306794D01*
X18348120Y-26325842D01*
X18252882Y-26344889D01*
X18424310Y-26402032D02*
X18443358Y-26411556D01*
X18481453Y-26411556D01*
X18500501Y-26402032D01*
X18510025Y-26382985D01*
X18510025Y-26373461D01*
X18500501Y-26354413D01*
X18481453Y-26344889D01*
X18452882Y-26344889D01*
X18433834Y-26335366D01*
X18424310Y-26316318D01*
X18424310Y-26306794D01*
X18433834Y-26287747D01*
X18452882Y-26278223D01*
X18481453Y-26278223D01*
X18500501Y-26287747D01*
X18576691Y-26487747D02*
X18586215Y-26478223D01*
X18605263Y-26449651D01*
X18614786Y-26430604D01*
X18624310Y-26402032D01*
X18633834Y-26354413D01*
X18633834Y-26316318D01*
X18624310Y-26268699D01*
X18614786Y-26240128D01*
X18605263Y-26221080D01*
X18586215Y-26192508D01*
X18576691Y-26182985D01*
X13704786Y-26701080D02*
X13804786Y-26601080D01*
X13704786Y-26501080D01*
X13604786Y-26601080D01*
X13704786Y-26701080D01*
X13775498Y-26671791D02*
X13775498Y-26530369D01*
X13634075Y-26530369D01*
X13634075Y-26671791D01*
X13775498Y-26671791D01*
X14052882Y-26510604D02*
X14062405Y-26501080D01*
X14081453Y-26491556D01*
X14129072Y-26491556D01*
X14148120Y-26501080D01*
X14157644Y-26510604D01*
X14167167Y-26529651D01*
X14167167Y-26548699D01*
X14157644Y-26577270D01*
X14043358Y-26691556D01*
X14167167Y-26691556D01*
X14252882Y-26672508D02*
X14262405Y-26682032D01*
X14252882Y-26691556D01*
X14243358Y-26682032D01*
X14252882Y-26672508D01*
X14252882Y-26691556D01*
X14386215Y-26491556D02*
X14405263Y-26491556D01*
X14424310Y-26501080D01*
X14433834Y-26510604D01*
X14443358Y-26529651D01*
X14452882Y-26567747D01*
X14452882Y-26615366D01*
X14443358Y-26653461D01*
X14433834Y-26672508D01*
X14424310Y-26682032D01*
X14405263Y-26691556D01*
X14386215Y-26691556D01*
X14367167Y-26682032D01*
X14357644Y-26672508D01*
X14348120Y-26653461D01*
X14338596Y-26615366D01*
X14338596Y-26567747D01*
X14348120Y-26529651D01*
X14357644Y-26510604D01*
X14367167Y-26501080D01*
X14386215Y-26491556D01*
X14576691Y-26491556D02*
X14595739Y-26491556D01*
X14614786Y-26501080D01*
X14624310Y-26510604D01*
X14633834Y-26529651D01*
X14643358Y-26567747D01*
X14643358Y-26615366D01*
X14633834Y-26653461D01*
X14624310Y-26672508D01*
X14614786Y-26682032D01*
X14595739Y-26691556D01*
X14576691Y-26691556D01*
X14557644Y-26682032D01*
X14548120Y-26672508D01*
X14538596Y-26653461D01*
X14529072Y-26615366D01*
X14529072Y-26567747D01*
X14538596Y-26529651D01*
X14548120Y-26510604D01*
X14557644Y-26501080D01*
X14576691Y-26491556D01*
X14767167Y-26491556D02*
X14786215Y-26491556D01*
X14805263Y-26501080D01*
X14814786Y-26510604D01*
X14824310Y-26529651D01*
X14833834Y-26567747D01*
X14833834Y-26615366D01*
X14824310Y-26653461D01*
X14814786Y-26672508D01*
X14805263Y-26682032D01*
X14786215Y-26691556D01*
X14767167Y-26691556D01*
X14748120Y-26682032D01*
X14738596Y-26672508D01*
X14729072Y-26653461D01*
X14719548Y-26615366D01*
X14719548Y-26567747D01*
X14729072Y-26529651D01*
X14738596Y-26510604D01*
X14748120Y-26501080D01*
X14767167Y-26491556D01*
X14919548Y-26691556D02*
X14919548Y-26558223D01*
X14919548Y-26577270D02*
X14929072Y-26567747D01*
X14948120Y-26558223D01*
X14976691Y-26558223D01*
X14995739Y-26567747D01*
X15005263Y-26586794D01*
X15005263Y-26691556D01*
X15005263Y-26586794D02*
X15014786Y-26567747D01*
X15033834Y-26558223D01*
X15062405Y-26558223D01*
X15081453Y-26567747D01*
X15090977Y-26586794D01*
X15090977Y-26691556D01*
X15186215Y-26691556D02*
X15186215Y-26558223D01*
X15186215Y-26577270D02*
X15195739Y-26567747D01*
X15214786Y-26558223D01*
X15243358Y-26558223D01*
X15262405Y-26567747D01*
X15271929Y-26586794D01*
X15271929Y-26691556D01*
X15271929Y-26586794D02*
X15281453Y-26567747D01*
X15300501Y-26558223D01*
X15329072Y-26558223D01*
X15348120Y-26567747D01*
X15357644Y-26586794D01*
X15357644Y-26691556D01*
X15748120Y-26482032D02*
X15576691Y-26739175D01*
X16005263Y-26491556D02*
X16024310Y-26491556D01*
X16043358Y-26501080D01*
X16052882Y-26510604D01*
X16062405Y-26529651D01*
X16071929Y-26567747D01*
X16071929Y-26615366D01*
X16062405Y-26653461D01*
X16052882Y-26672508D01*
X16043358Y-26682032D01*
X16024310Y-26691556D01*
X16005263Y-26691556D01*
X15986215Y-26682032D01*
X15976691Y-26672508D01*
X15967167Y-26653461D01*
X15957644Y-26615366D01*
X15957644Y-26567747D01*
X15967167Y-26529651D01*
X15976691Y-26510604D01*
X15986215Y-26501080D01*
X16005263Y-26491556D01*
X16157644Y-26672508D02*
X16167167Y-26682032D01*
X16157644Y-26691556D01*
X16148120Y-26682032D01*
X16157644Y-26672508D01*
X16157644Y-26691556D01*
X16290977Y-26491556D02*
X16310024Y-26491556D01*
X16329072Y-26501080D01*
X16338596Y-26510604D01*
X16348120Y-26529651D01*
X16357644Y-26567747D01*
X16357644Y-26615366D01*
X16348120Y-26653461D01*
X16338596Y-26672508D01*
X16329072Y-26682032D01*
X16310024Y-26691556D01*
X16290977Y-26691556D01*
X16271929Y-26682032D01*
X16262405Y-26672508D01*
X16252882Y-26653461D01*
X16243358Y-26615366D01*
X16243358Y-26567747D01*
X16252882Y-26529651D01*
X16262405Y-26510604D01*
X16271929Y-26501080D01*
X16290977Y-26491556D01*
X16424310Y-26491556D02*
X16557644Y-26491556D01*
X16471929Y-26691556D01*
X16662405Y-26577270D02*
X16643358Y-26567747D01*
X16633834Y-26558223D01*
X16624310Y-26539175D01*
X16624310Y-26529651D01*
X16633834Y-26510604D01*
X16643358Y-26501080D01*
X16662405Y-26491556D01*
X16700501Y-26491556D01*
X16719548Y-26501080D01*
X16729072Y-26510604D01*
X16738596Y-26529651D01*
X16738596Y-26539175D01*
X16729072Y-26558223D01*
X16719548Y-26567747D01*
X16700501Y-26577270D01*
X16662405Y-26577270D01*
X16643358Y-26586794D01*
X16633834Y-26596318D01*
X16624310Y-26615366D01*
X16624310Y-26653461D01*
X16633834Y-26672508D01*
X16643358Y-26682032D01*
X16662405Y-26691556D01*
X16700501Y-26691556D01*
X16719548Y-26682032D01*
X16729072Y-26672508D01*
X16738596Y-26653461D01*
X16738596Y-26615366D01*
X16729072Y-26596318D01*
X16719548Y-26586794D01*
X16700501Y-26577270D01*
X16805263Y-26491556D02*
X16938596Y-26491556D01*
X16852882Y-26691556D01*
X17005263Y-26491556D02*
X17005263Y-26529651D01*
X17081453Y-26491556D02*
X17081453Y-26529651D01*
X17376691Y-26767747D02*
X17367167Y-26758223D01*
X17348120Y-26729651D01*
X17338596Y-26710604D01*
X17329072Y-26682032D01*
X17319548Y-26634413D01*
X17319548Y-26596318D01*
X17329072Y-26548699D01*
X17338596Y-26520128D01*
X17348120Y-26501080D01*
X17367167Y-26472508D01*
X17376691Y-26462985D01*
X17490977Y-26491556D02*
X17510025Y-26491556D01*
X17529072Y-26501080D01*
X17538596Y-26510604D01*
X17548120Y-26529651D01*
X17557644Y-26567747D01*
X17557644Y-26615366D01*
X17548120Y-26653461D01*
X17538596Y-26672508D01*
X17529072Y-26682032D01*
X17510025Y-26691556D01*
X17490977Y-26691556D01*
X17471929Y-26682032D01*
X17462406Y-26672508D01*
X17452882Y-26653461D01*
X17443358Y-26615366D01*
X17443358Y-26567747D01*
X17452882Y-26529651D01*
X17462406Y-26510604D01*
X17471929Y-26501080D01*
X17490977Y-26491556D01*
X17795739Y-26691556D02*
X17795739Y-26491556D01*
X17881453Y-26691556D02*
X17881453Y-26586794D01*
X17871929Y-26567747D01*
X17852882Y-26558223D01*
X17824310Y-26558223D01*
X17805263Y-26567747D01*
X17795739Y-26577270D01*
X18005263Y-26691556D02*
X17986215Y-26682032D01*
X17976691Y-26672508D01*
X17967167Y-26653461D01*
X17967167Y-26596318D01*
X17976691Y-26577270D01*
X17986215Y-26567747D01*
X18005263Y-26558223D01*
X18033834Y-26558223D01*
X18052882Y-26567747D01*
X18062406Y-26577270D01*
X18071929Y-26596318D01*
X18071929Y-26653461D01*
X18062406Y-26672508D01*
X18052882Y-26682032D01*
X18033834Y-26691556D01*
X18005263Y-26691556D01*
X18186215Y-26691556D02*
X18167167Y-26682032D01*
X18157644Y-26662985D01*
X18157644Y-26491556D01*
X18338596Y-26682032D02*
X18319548Y-26691556D01*
X18281453Y-26691556D01*
X18262406Y-26682032D01*
X18252882Y-26662985D01*
X18252882Y-26586794D01*
X18262406Y-26567747D01*
X18281453Y-26558223D01*
X18319548Y-26558223D01*
X18338596Y-26567747D01*
X18348120Y-26586794D01*
X18348120Y-26605842D01*
X18252882Y-26624889D01*
X18424310Y-26682032D02*
X18443358Y-26691556D01*
X18481453Y-26691556D01*
X18500501Y-26682032D01*
X18510025Y-26662985D01*
X18510025Y-26653461D01*
X18500501Y-26634413D01*
X18481453Y-26624889D01*
X18452882Y-26624889D01*
X18433834Y-26615366D01*
X18424310Y-26596318D01*
X18424310Y-26586794D01*
X18433834Y-26567747D01*
X18452882Y-26558223D01*
X18481453Y-26558223D01*
X18500501Y-26567747D01*
X18748120Y-26615366D02*
X18900501Y-26615366D01*
X18824310Y-26691556D02*
X18824310Y-26539175D01*
X19233834Y-26558223D02*
X19233834Y-26691556D01*
X19186215Y-26482032D02*
X19138596Y-26624889D01*
X19262406Y-26624889D01*
X19481453Y-26682032D02*
X19500501Y-26691556D01*
X19538596Y-26691556D01*
X19557644Y-26682032D01*
X19567167Y-26662985D01*
X19567167Y-26653461D01*
X19557644Y-26634413D01*
X19538596Y-26624889D01*
X19510025Y-26624889D01*
X19490977Y-26615366D01*
X19481453Y-26596318D01*
X19481453Y-26586794D01*
X19490977Y-26567747D01*
X19510025Y-26558223D01*
X19538596Y-26558223D01*
X19557644Y-26567747D01*
X19681453Y-26691556D02*
X19662406Y-26682032D01*
X19652882Y-26662985D01*
X19652882Y-26491556D01*
X19786215Y-26691556D02*
X19767167Y-26682032D01*
X19757644Y-26672508D01*
X19748120Y-26653461D01*
X19748120Y-26596318D01*
X19757644Y-26577270D01*
X19767167Y-26567747D01*
X19786215Y-26558223D01*
X19814786Y-26558223D01*
X19833834Y-26567747D01*
X19843358Y-26577270D01*
X19852882Y-26596318D01*
X19852882Y-26653461D01*
X19843358Y-26672508D01*
X19833834Y-26682032D01*
X19814786Y-26691556D01*
X19786215Y-26691556D01*
X19910025Y-26558223D02*
X19986215Y-26558223D01*
X19938596Y-26491556D02*
X19938596Y-26662985D01*
X19948120Y-26682032D01*
X19967167Y-26691556D01*
X19986215Y-26691556D01*
X20043358Y-26682032D02*
X20062406Y-26691556D01*
X20100501Y-26691556D01*
X20119548Y-26682032D01*
X20129072Y-26662985D01*
X20129072Y-26653461D01*
X20119548Y-26634413D01*
X20100501Y-26624889D01*
X20071929Y-26624889D01*
X20052882Y-26615366D01*
X20043358Y-26596318D01*
X20043358Y-26586794D01*
X20052882Y-26567747D01*
X20071929Y-26558223D01*
X20100501Y-26558223D01*
X20119548Y-26567747D01*
X20195739Y-26767747D02*
X20205263Y-26758223D01*
X20224310Y-26729651D01*
X20233834Y-26710604D01*
X20243358Y-26682032D01*
X20252882Y-26634413D01*
X20252882Y-26596318D01*
X20243358Y-26548699D01*
X20233834Y-26520128D01*
X20224310Y-26501080D01*
X20205263Y-26472508D01*
X20195739Y-26462985D01*
X13604786Y-26821080D02*
X13804786Y-27021080D01*
X13804786Y-26821080D02*
X13604786Y-27021080D01*
X13704786Y-26821080D02*
X13704786Y-27021080D01*
X13604786Y-26921080D02*
X13804786Y-26921080D01*
X13804786Y-26921080D02*
G75*
G03*
X13804786Y-26921080I-100000J0D01*
G01*
X14043358Y-26811556D02*
X14167167Y-26811556D01*
X14100501Y-26887747D01*
X14129072Y-26887747D01*
X14148120Y-26897270D01*
X14157644Y-26906794D01*
X14167167Y-26925842D01*
X14167167Y-26973461D01*
X14157644Y-26992508D01*
X14148120Y-27002032D01*
X14129072Y-27011556D01*
X14071929Y-27011556D01*
X14052882Y-27002032D01*
X14043358Y-26992508D01*
X14252882Y-26992508D02*
X14262405Y-27002032D01*
X14252882Y-27011556D01*
X14243358Y-27002032D01*
X14252882Y-26992508D01*
X14252882Y-27011556D01*
X14338596Y-26830604D02*
X14348120Y-26821080D01*
X14367167Y-26811556D01*
X14414786Y-26811556D01*
X14433834Y-26821080D01*
X14443358Y-26830604D01*
X14452882Y-26849651D01*
X14452882Y-26868699D01*
X14443358Y-26897270D01*
X14329072Y-27011556D01*
X14452882Y-27011556D01*
X14576691Y-26811556D02*
X14595739Y-26811556D01*
X14614786Y-26821080D01*
X14624310Y-26830604D01*
X14633834Y-26849651D01*
X14643358Y-26887747D01*
X14643358Y-26935366D01*
X14633834Y-26973461D01*
X14624310Y-26992508D01*
X14614786Y-27002032D01*
X14595739Y-27011556D01*
X14576691Y-27011556D01*
X14557644Y-27002032D01*
X14548120Y-26992508D01*
X14538596Y-26973461D01*
X14529072Y-26935366D01*
X14529072Y-26887747D01*
X14538596Y-26849651D01*
X14548120Y-26830604D01*
X14557644Y-26821080D01*
X14576691Y-26811556D01*
X14767167Y-26811556D02*
X14786215Y-26811556D01*
X14805263Y-26821080D01*
X14814786Y-26830604D01*
X14824310Y-26849651D01*
X14833834Y-26887747D01*
X14833834Y-26935366D01*
X14824310Y-26973461D01*
X14814786Y-26992508D01*
X14805263Y-27002032D01*
X14786215Y-27011556D01*
X14767167Y-27011556D01*
X14748120Y-27002032D01*
X14738596Y-26992508D01*
X14729072Y-26973461D01*
X14719548Y-26935366D01*
X14719548Y-26887747D01*
X14729072Y-26849651D01*
X14738596Y-26830604D01*
X14748120Y-26821080D01*
X14767167Y-26811556D01*
X14919548Y-27011556D02*
X14919548Y-26878223D01*
X14919548Y-26897270D02*
X14929072Y-26887747D01*
X14948120Y-26878223D01*
X14976691Y-26878223D01*
X14995739Y-26887747D01*
X15005263Y-26906794D01*
X15005263Y-27011556D01*
X15005263Y-26906794D02*
X15014786Y-26887747D01*
X15033834Y-26878223D01*
X15062405Y-26878223D01*
X15081453Y-26887747D01*
X15090977Y-26906794D01*
X15090977Y-27011556D01*
X15186215Y-27011556D02*
X15186215Y-26878223D01*
X15186215Y-26897270D02*
X15195739Y-26887747D01*
X15214786Y-26878223D01*
X15243358Y-26878223D01*
X15262405Y-26887747D01*
X15271929Y-26906794D01*
X15271929Y-27011556D01*
X15271929Y-26906794D02*
X15281453Y-26887747D01*
X15300501Y-26878223D01*
X15329072Y-26878223D01*
X15348120Y-26887747D01*
X15357644Y-26906794D01*
X15357644Y-27011556D01*
X15748120Y-26802032D02*
X15576691Y-27059175D01*
X16005263Y-26811556D02*
X16024310Y-26811556D01*
X16043358Y-26821080D01*
X16052882Y-26830604D01*
X16062405Y-26849651D01*
X16071929Y-26887747D01*
X16071929Y-26935366D01*
X16062405Y-26973461D01*
X16052882Y-26992508D01*
X16043358Y-27002032D01*
X16024310Y-27011556D01*
X16005263Y-27011556D01*
X15986215Y-27002032D01*
X15976691Y-26992508D01*
X15967167Y-26973461D01*
X15957644Y-26935366D01*
X15957644Y-26887747D01*
X15967167Y-26849651D01*
X15976691Y-26830604D01*
X15986215Y-26821080D01*
X16005263Y-26811556D01*
X16157644Y-26992508D02*
X16167167Y-27002032D01*
X16157644Y-27011556D01*
X16148120Y-27002032D01*
X16157644Y-26992508D01*
X16157644Y-27011556D01*
X16357644Y-27011556D02*
X16243358Y-27011556D01*
X16300501Y-27011556D02*
X16300501Y-26811556D01*
X16281453Y-26840128D01*
X16262405Y-26859175D01*
X16243358Y-26868699D01*
X16433834Y-26830604D02*
X16443358Y-26821080D01*
X16462405Y-26811556D01*
X16510024Y-26811556D01*
X16529072Y-26821080D01*
X16538596Y-26830604D01*
X16548120Y-26849651D01*
X16548120Y-26868699D01*
X16538596Y-26897270D01*
X16424310Y-27011556D01*
X16548120Y-27011556D01*
X16719548Y-26811556D02*
X16681453Y-26811556D01*
X16662405Y-26821080D01*
X16652882Y-26830604D01*
X16633834Y-26859175D01*
X16624310Y-26897270D01*
X16624310Y-26973461D01*
X16633834Y-26992508D01*
X16643358Y-27002032D01*
X16662405Y-27011556D01*
X16700501Y-27011556D01*
X16719548Y-27002032D01*
X16729072Y-26992508D01*
X16738596Y-26973461D01*
X16738596Y-26925842D01*
X16729072Y-26906794D01*
X16719548Y-26897270D01*
X16700501Y-26887747D01*
X16662405Y-26887747D01*
X16643358Y-26897270D01*
X16633834Y-26906794D01*
X16624310Y-26925842D01*
X16862406Y-26811556D02*
X16881453Y-26811556D01*
X16900501Y-26821080D01*
X16910025Y-26830604D01*
X16919548Y-26849651D01*
X16929072Y-26887747D01*
X16929072Y-26935366D01*
X16919548Y-26973461D01*
X16910025Y-26992508D01*
X16900501Y-27002032D01*
X16881453Y-27011556D01*
X16862406Y-27011556D01*
X16843358Y-27002032D01*
X16833834Y-26992508D01*
X16824310Y-26973461D01*
X16814787Y-26935366D01*
X16814787Y-26887747D01*
X16824310Y-26849651D01*
X16833834Y-26830604D01*
X16843358Y-26821080D01*
X16862406Y-26811556D01*
X17005263Y-26811556D02*
X17005263Y-26849651D01*
X17081453Y-26811556D02*
X17081453Y-26849651D01*
X17376691Y-27087747D02*
X17367167Y-27078223D01*
X17348120Y-27049651D01*
X17338596Y-27030604D01*
X17329072Y-27002032D01*
X17319548Y-26954413D01*
X17319548Y-26916318D01*
X17329072Y-26868699D01*
X17338596Y-26840128D01*
X17348120Y-26821080D01*
X17367167Y-26792508D01*
X17376691Y-26782985D01*
X17443358Y-26830604D02*
X17452882Y-26821080D01*
X17471929Y-26811556D01*
X17519548Y-26811556D01*
X17538596Y-26821080D01*
X17548120Y-26830604D01*
X17557644Y-26849651D01*
X17557644Y-26868699D01*
X17548120Y-26897270D01*
X17433834Y-27011556D01*
X17557644Y-27011556D01*
X17795739Y-27011556D02*
X17795739Y-26811556D01*
X17881453Y-27011556D02*
X17881453Y-26906794D01*
X17871929Y-26887747D01*
X17852882Y-26878223D01*
X17824310Y-26878223D01*
X17805263Y-26887747D01*
X17795739Y-26897270D01*
X18005263Y-27011556D02*
X17986215Y-27002032D01*
X17976691Y-26992508D01*
X17967167Y-26973461D01*
X17967167Y-26916318D01*
X17976691Y-26897270D01*
X17986215Y-26887747D01*
X18005263Y-26878223D01*
X18033834Y-26878223D01*
X18052882Y-26887747D01*
X18062406Y-26897270D01*
X18071929Y-26916318D01*
X18071929Y-26973461D01*
X18062406Y-26992508D01*
X18052882Y-27002032D01*
X18033834Y-27011556D01*
X18005263Y-27011556D01*
X18186215Y-27011556D02*
X18167167Y-27002032D01*
X18157644Y-26982985D01*
X18157644Y-26811556D01*
X18338596Y-27002032D02*
X18319548Y-27011556D01*
X18281453Y-27011556D01*
X18262406Y-27002032D01*
X18252882Y-26982985D01*
X18252882Y-26906794D01*
X18262406Y-26887747D01*
X18281453Y-26878223D01*
X18319548Y-26878223D01*
X18338596Y-26887747D01*
X18348120Y-26906794D01*
X18348120Y-26925842D01*
X18252882Y-26944889D01*
X18424310Y-27002032D02*
X18443358Y-27011556D01*
X18481453Y-27011556D01*
X18500501Y-27002032D01*
X18510025Y-26982985D01*
X18510025Y-26973461D01*
X18500501Y-26954413D01*
X18481453Y-26944889D01*
X18452882Y-26944889D01*
X18433834Y-26935366D01*
X18424310Y-26916318D01*
X18424310Y-26906794D01*
X18433834Y-26887747D01*
X18452882Y-26878223D01*
X18481453Y-26878223D01*
X18500501Y-26887747D01*
X18576691Y-27087747D02*
X18586215Y-27078223D01*
X18605263Y-27049651D01*
X18614786Y-27030604D01*
X18624310Y-27002032D01*
X18633834Y-26954413D01*
X18633834Y-26916318D01*
X18624310Y-26868699D01*
X18614786Y-26840128D01*
X18605263Y-26821080D01*
X18586215Y-26792508D01*
X18576691Y-26782985D01*
M02*
