G04 #@! TF.GenerationSoftware,KiCad,Pcbnew,(6.0.9)*
G04 #@! TF.CreationDate,2023-08-24T11:24:56+02:00*
G04 #@! TF.ProjectId,reflow_oven,7265666c-6f77-45f6-9f76-656e2e6b6963,rev?*
G04 #@! TF.SameCoordinates,Original*
G04 #@! TF.FileFunction,Legend,Bot*
G04 #@! TF.FilePolarity,Positive*
%FSLAX46Y46*%
G04 Gerber Fmt 4.6, Leading zero omitted, Abs format (unit mm)*
G04 Created by KiCad (PCBNEW (6.0.9)) date 2023-08-24 11:24:56*
%MOMM*%
%LPD*%
G01*
G04 APERTURE LIST*
G04 Aperture macros list*
%AMHorizOval*
0 Thick line with rounded ends*
0 $1 width*
0 $2 $3 position (X,Y) of the first rounded end (center of the circle)*
0 $4 $5 position (X,Y) of the second rounded end (center of the circle)*
0 Add line between two ends*
20,1,$1,$2,$3,$4,$5,0*
0 Add two circle primitives to create the rounded ends*
1,1,$1,$2,$3*
1,1,$1,$4,$5*%
G04 Aperture macros list end*
%ADD10C,0.200000*%
%ADD11C,0.300000*%
%ADD12C,0.120000*%
%ADD13R,3.000000X3.000000*%
%ADD14C,3.000000*%
%ADD15C,1.100000*%
%ADD16R,2.200000X2.200000*%
%ADD17C,2.200000*%
%ADD18C,1.800000*%
%ADD19C,2.524000*%
%ADD20R,1.725000X1.725000*%
%ADD21C,1.725000*%
%ADD22C,2.286000*%
%ADD23R,1.180000X1.180000*%
%ADD24C,1.180000*%
%ADD25C,2.400000*%
%ADD26C,1.500000*%
%ADD27R,1.300000X1.300000*%
%ADD28C,1.300000*%
%ADD29C,0.600000*%
%ADD30O,0.900000X1.700000*%
%ADD31O,0.900000X2.000000*%
%ADD32C,4.000000*%
%ADD33R,1.600000X1.600000*%
%ADD34C,1.600000*%
%ADD35R,1.500000X1.500000*%
%ADD36C,0.800000*%
%ADD37HorizOval,0.800000X0.000000X0.000000X0.000000X0.000000X0*%
%ADD38O,9.000000X6.000000*%
%ADD39HorizOval,0.800000X0.000000X0.000000X0.000000X0.000000X0*%
%ADD40R,1.950000X1.950000*%
%ADD41C,1.950000*%
%ADD42R,1.700000X1.700000*%
%ADD43O,1.700000X1.700000*%
G04 APERTURE END LIST*
D10*
X255987523Y-97008904D02*
X256254190Y-96627952D01*
X256444666Y-97008904D02*
X256444666Y-96208904D01*
X256139904Y-96208904D01*
X256063714Y-96247000D01*
X256025619Y-96285095D01*
X255987523Y-96361285D01*
X255987523Y-96475571D01*
X256025619Y-96551761D01*
X256063714Y-96589857D01*
X256139904Y-96627952D01*
X256444666Y-96627952D01*
X255720857Y-96208904D02*
X255530380Y-97008904D01*
X255378000Y-96437476D01*
X255225619Y-97008904D01*
X255035142Y-96208904D01*
X249142190Y-96932714D02*
X249180285Y-96970809D01*
X249294571Y-97008904D01*
X249370761Y-97008904D01*
X249485047Y-96970809D01*
X249561238Y-96894619D01*
X249599333Y-96818428D01*
X249637428Y-96666047D01*
X249637428Y-96551761D01*
X249599333Y-96399380D01*
X249561238Y-96323190D01*
X249485047Y-96247000D01*
X249370761Y-96208904D01*
X249294571Y-96208904D01*
X249180285Y-96247000D01*
X249142190Y-96285095D01*
X248418380Y-97008904D02*
X248799333Y-97008904D01*
X248799333Y-96208904D01*
X248151714Y-97008904D02*
X248151714Y-96208904D01*
X247694571Y-97008904D02*
X248037428Y-96551761D01*
X247694571Y-96208904D02*
X248151714Y-96666047D01*
X249104095Y-99548904D02*
X249370761Y-99167952D01*
X249561238Y-99548904D02*
X249561238Y-98748904D01*
X249256476Y-98748904D01*
X249180285Y-98787000D01*
X249142190Y-98825095D01*
X249104095Y-98901285D01*
X249104095Y-99015571D01*
X249142190Y-99091761D01*
X249180285Y-99129857D01*
X249256476Y-99167952D01*
X249561238Y-99167952D01*
X248799333Y-99510809D02*
X248685047Y-99548904D01*
X248494571Y-99548904D01*
X248418380Y-99510809D01*
X248380285Y-99472714D01*
X248342190Y-99396523D01*
X248342190Y-99320333D01*
X248380285Y-99244142D01*
X248418380Y-99206047D01*
X248494571Y-99167952D01*
X248646952Y-99129857D01*
X248723142Y-99091761D01*
X248761238Y-99053666D01*
X248799333Y-98977476D01*
X248799333Y-98901285D01*
X248761238Y-98825095D01*
X248723142Y-98787000D01*
X248646952Y-98748904D01*
X248456476Y-98748904D01*
X248342190Y-98787000D01*
X248113619Y-98748904D02*
X247656476Y-98748904D01*
X247885047Y-99548904D02*
X247885047Y-98748904D01*
X255784333Y-99472714D02*
X255822428Y-99510809D01*
X255936714Y-99548904D01*
X256012904Y-99548904D01*
X256127190Y-99510809D01*
X256203380Y-99434619D01*
X256241476Y-99358428D01*
X256279571Y-99206047D01*
X256279571Y-99091761D01*
X256241476Y-98939380D01*
X256203380Y-98863190D01*
X256127190Y-98787000D01*
X256012904Y-98748904D01*
X255936714Y-98748904D01*
X255822428Y-98787000D01*
X255784333Y-98825095D01*
X255479571Y-99510809D02*
X255365285Y-99548904D01*
X255174809Y-99548904D01*
X255098619Y-99510809D01*
X255060523Y-99472714D01*
X255022428Y-99396523D01*
X255022428Y-99320333D01*
X255060523Y-99244142D01*
X255098619Y-99206047D01*
X255174809Y-99167952D01*
X255327190Y-99129857D01*
X255403380Y-99091761D01*
X255441476Y-99053666D01*
X255479571Y-98977476D01*
X255479571Y-98901285D01*
X255441476Y-98825095D01*
X255403380Y-98787000D01*
X255327190Y-98748904D01*
X255136714Y-98748904D01*
X255022428Y-98787000D01*
X256876428Y-102050809D02*
X256762142Y-102088904D01*
X256571666Y-102088904D01*
X256495476Y-102050809D01*
X256457380Y-102012714D01*
X256419285Y-101936523D01*
X256419285Y-101860333D01*
X256457380Y-101784142D01*
X256495476Y-101746047D01*
X256571666Y-101707952D01*
X256724047Y-101669857D01*
X256800238Y-101631761D01*
X256838333Y-101593666D01*
X256876428Y-101517476D01*
X256876428Y-101441285D01*
X256838333Y-101365095D01*
X256800238Y-101327000D01*
X256724047Y-101288904D01*
X256533571Y-101288904D01*
X256419285Y-101327000D01*
X256076428Y-102088904D02*
X256076428Y-101288904D01*
X255885952Y-101288904D01*
X255771666Y-101327000D01*
X255695476Y-101403190D01*
X255657380Y-101479380D01*
X255619285Y-101631761D01*
X255619285Y-101746047D01*
X255657380Y-101898428D01*
X255695476Y-101974619D01*
X255771666Y-102050809D01*
X255885952Y-102088904D01*
X256076428Y-102088904D01*
X255314523Y-101860333D02*
X254933571Y-101860333D01*
X255390714Y-102088904D02*
X255124047Y-101288904D01*
X254857380Y-102088904D01*
X249618380Y-102050809D02*
X249504095Y-102088904D01*
X249313619Y-102088904D01*
X249237428Y-102050809D01*
X249199333Y-102012714D01*
X249161238Y-101936523D01*
X249161238Y-101860333D01*
X249199333Y-101784142D01*
X249237428Y-101746047D01*
X249313619Y-101707952D01*
X249466000Y-101669857D01*
X249542190Y-101631761D01*
X249580285Y-101593666D01*
X249618380Y-101517476D01*
X249618380Y-101441285D01*
X249580285Y-101365095D01*
X249542190Y-101327000D01*
X249466000Y-101288904D01*
X249275523Y-101288904D01*
X249161238Y-101327000D01*
X248361238Y-102012714D02*
X248399333Y-102050809D01*
X248513619Y-102088904D01*
X248589809Y-102088904D01*
X248704095Y-102050809D01*
X248780285Y-101974619D01*
X248818380Y-101898428D01*
X248856476Y-101746047D01*
X248856476Y-101631761D01*
X248818380Y-101479380D01*
X248780285Y-101403190D01*
X248704095Y-101327000D01*
X248589809Y-101288904D01*
X248513619Y-101288904D01*
X248399333Y-101327000D01*
X248361238Y-101365095D01*
X247637428Y-102088904D02*
X248018380Y-102088904D01*
X248018380Y-101288904D01*
X246233809Y-101669857D02*
X246119523Y-101707952D01*
X246081428Y-101746047D01*
X246043333Y-101822238D01*
X246043333Y-101936523D01*
X246081428Y-102012714D01*
X246119523Y-102050809D01*
X246195714Y-102088904D01*
X246500476Y-102088904D01*
X246500476Y-101288904D01*
X246233809Y-101288904D01*
X246157619Y-101327000D01*
X246119523Y-101365095D01*
X246081428Y-101441285D01*
X246081428Y-101517476D01*
X246119523Y-101593666D01*
X246157619Y-101631761D01*
X246233809Y-101669857D01*
X246500476Y-101669857D01*
X245700476Y-101288904D02*
X245700476Y-101936523D01*
X245662380Y-102012714D01*
X245624285Y-102050809D01*
X245548095Y-102088904D01*
X245395714Y-102088904D01*
X245319523Y-102050809D01*
X245281428Y-102012714D01*
X245243333Y-101936523D01*
X245243333Y-101288904D01*
X244938571Y-101288904D02*
X244405238Y-101288904D01*
X244938571Y-102088904D01*
X244405238Y-102088904D01*
X244176666Y-101288904D02*
X243643333Y-101288904D01*
X244176666Y-102088904D01*
X243643333Y-102088904D01*
X244278142Y-99548904D02*
X244659095Y-99548904D01*
X244659095Y-98748904D01*
X244125761Y-98748904D02*
X243668619Y-98748904D01*
X243897190Y-99548904D02*
X243897190Y-98748904D01*
X244278142Y-97008904D02*
X244544809Y-96627952D01*
X244735285Y-97008904D02*
X244735285Y-96208904D01*
X244430523Y-96208904D01*
X244354333Y-96247000D01*
X244316238Y-96285095D01*
X244278142Y-96361285D01*
X244278142Y-96475571D01*
X244316238Y-96551761D01*
X244354333Y-96589857D01*
X244430523Y-96627952D01*
X244735285Y-96627952D01*
X244049571Y-96208904D02*
X243592428Y-96208904D01*
X243821000Y-97008904D02*
X243821000Y-96208904D01*
X256514523Y-103867000D02*
X256590714Y-103828904D01*
X256705000Y-103828904D01*
X256819285Y-103867000D01*
X256895476Y-103943190D01*
X256933571Y-104019380D01*
X256971666Y-104171761D01*
X256971666Y-104286047D01*
X256933571Y-104438428D01*
X256895476Y-104514619D01*
X256819285Y-104590809D01*
X256705000Y-104628904D01*
X256628809Y-104628904D01*
X256514523Y-104590809D01*
X256476428Y-104552714D01*
X256476428Y-104286047D01*
X256628809Y-104286047D01*
X256133571Y-104628904D02*
X256133571Y-103828904D01*
X255676428Y-104628904D01*
X255676428Y-103828904D01*
X255295476Y-104628904D02*
X255295476Y-103828904D01*
X255105000Y-103828904D01*
X254990714Y-103867000D01*
X254914523Y-103943190D01*
X254876428Y-104019380D01*
X254838333Y-104171761D01*
X254838333Y-104286047D01*
X254876428Y-104438428D01*
X254914523Y-104514619D01*
X254990714Y-104590809D01*
X255105000Y-104628904D01*
X255295476Y-104628904D01*
X249148523Y-103867000D02*
X249224714Y-103828904D01*
X249339000Y-103828904D01*
X249453285Y-103867000D01*
X249529476Y-103943190D01*
X249567571Y-104019380D01*
X249605666Y-104171761D01*
X249605666Y-104286047D01*
X249567571Y-104438428D01*
X249529476Y-104514619D01*
X249453285Y-104590809D01*
X249339000Y-104628904D01*
X249262809Y-104628904D01*
X249148523Y-104590809D01*
X249110428Y-104552714D01*
X249110428Y-104286047D01*
X249262809Y-104286047D01*
X248767571Y-104628904D02*
X248767571Y-103828904D01*
X248310428Y-104628904D01*
X248310428Y-103828904D01*
X247929476Y-104628904D02*
X247929476Y-103828904D01*
X247739000Y-103828904D01*
X247624714Y-103867000D01*
X247548523Y-103943190D01*
X247510428Y-104019380D01*
X247472333Y-104171761D01*
X247472333Y-104286047D01*
X247510428Y-104438428D01*
X247548523Y-104514619D01*
X247624714Y-104590809D01*
X247739000Y-104628904D01*
X247929476Y-104628904D01*
X256895476Y-93668904D02*
X256400238Y-93668904D01*
X256666904Y-93973666D01*
X256552619Y-93973666D01*
X256476428Y-94011761D01*
X256438333Y-94049857D01*
X256400238Y-94126047D01*
X256400238Y-94316523D01*
X256438333Y-94392714D01*
X256476428Y-94430809D01*
X256552619Y-94468904D01*
X256781190Y-94468904D01*
X256857380Y-94430809D01*
X256895476Y-94392714D01*
X256171666Y-93668904D02*
X255905000Y-94468904D01*
X255638333Y-93668904D01*
X255447857Y-93668904D02*
X254952619Y-93668904D01*
X255219285Y-93973666D01*
X255105000Y-93973666D01*
X255028809Y-94011761D01*
X254990714Y-94049857D01*
X254952619Y-94126047D01*
X254952619Y-94316523D01*
X254990714Y-94392714D01*
X255028809Y-94430809D01*
X255105000Y-94468904D01*
X255333571Y-94468904D01*
X255409761Y-94430809D01*
X255447857Y-94392714D01*
X249656476Y-93668904D02*
X249161238Y-93668904D01*
X249427904Y-93973666D01*
X249313619Y-93973666D01*
X249237428Y-94011761D01*
X249199333Y-94049857D01*
X249161238Y-94126047D01*
X249161238Y-94316523D01*
X249199333Y-94392714D01*
X249237428Y-94430809D01*
X249313619Y-94468904D01*
X249542190Y-94468904D01*
X249618380Y-94430809D01*
X249656476Y-94392714D01*
X248932666Y-93668904D02*
X248666000Y-94468904D01*
X248399333Y-93668904D01*
X248208857Y-93668904D02*
X247713619Y-93668904D01*
X247980285Y-93973666D01*
X247866000Y-93973666D01*
X247789809Y-94011761D01*
X247751714Y-94049857D01*
X247713619Y-94126047D01*
X247713619Y-94316523D01*
X247751714Y-94392714D01*
X247789809Y-94430809D01*
X247866000Y-94468904D01*
X248094571Y-94468904D01*
X248170761Y-94430809D01*
X248208857Y-94392714D01*
X245592476Y-93668904D02*
X245097238Y-93668904D01*
X245363904Y-93973666D01*
X245249619Y-93973666D01*
X245173428Y-94011761D01*
X245135333Y-94049857D01*
X245097238Y-94126047D01*
X245097238Y-94316523D01*
X245135333Y-94392714D01*
X245173428Y-94430809D01*
X245249619Y-94468904D01*
X245478190Y-94468904D01*
X245554380Y-94430809D01*
X245592476Y-94392714D01*
X244868666Y-93668904D02*
X244602000Y-94468904D01*
X244335333Y-93668904D01*
X244144857Y-93668904D02*
X243649619Y-93668904D01*
X243916285Y-93973666D01*
X243802000Y-93973666D01*
X243725809Y-94011761D01*
X243687714Y-94049857D01*
X243649619Y-94126047D01*
X243649619Y-94316523D01*
X243687714Y-94392714D01*
X243725809Y-94430809D01*
X243802000Y-94468904D01*
X244030571Y-94468904D01*
X244106761Y-94430809D01*
X244144857Y-94392714D01*
X238226476Y-93541904D02*
X237731238Y-93541904D01*
X237997904Y-93846666D01*
X237883619Y-93846666D01*
X237807428Y-93884761D01*
X237769333Y-93922857D01*
X237731238Y-93999047D01*
X237731238Y-94189523D01*
X237769333Y-94265714D01*
X237807428Y-94303809D01*
X237883619Y-94341904D01*
X238112190Y-94341904D01*
X238188380Y-94303809D01*
X238226476Y-94265714D01*
X237502666Y-93541904D02*
X237236000Y-94341904D01*
X236969333Y-93541904D01*
X236778857Y-93541904D02*
X236283619Y-93541904D01*
X236550285Y-93846666D01*
X236436000Y-93846666D01*
X236359809Y-93884761D01*
X236321714Y-93922857D01*
X236283619Y-93999047D01*
X236283619Y-94189523D01*
X236321714Y-94265714D01*
X236359809Y-94303809D01*
X236436000Y-94341904D01*
X236664571Y-94341904D01*
X236740761Y-94303809D01*
X236778857Y-94265714D01*
X245211523Y-103867000D02*
X245287714Y-103828904D01*
X245402000Y-103828904D01*
X245516285Y-103867000D01*
X245592476Y-103943190D01*
X245630571Y-104019380D01*
X245668666Y-104171761D01*
X245668666Y-104286047D01*
X245630571Y-104438428D01*
X245592476Y-104514619D01*
X245516285Y-104590809D01*
X245402000Y-104628904D01*
X245325809Y-104628904D01*
X245211523Y-104590809D01*
X245173428Y-104552714D01*
X245173428Y-104286047D01*
X245325809Y-104286047D01*
X244830571Y-104628904D02*
X244830571Y-103828904D01*
X244373428Y-104628904D01*
X244373428Y-103828904D01*
X243992476Y-104628904D02*
X243992476Y-103828904D01*
X243802000Y-103828904D01*
X243687714Y-103867000D01*
X243611523Y-103943190D01*
X243573428Y-104019380D01*
X243535333Y-104171761D01*
X243535333Y-104286047D01*
X243573428Y-104438428D01*
X243611523Y-104514619D01*
X243687714Y-104590809D01*
X243802000Y-104628904D01*
X243992476Y-104628904D01*
X237845523Y-103867000D02*
X237921714Y-103828904D01*
X238036000Y-103828904D01*
X238150285Y-103867000D01*
X238226476Y-103943190D01*
X238264571Y-104019380D01*
X238302666Y-104171761D01*
X238302666Y-104286047D01*
X238264571Y-104438428D01*
X238226476Y-104514619D01*
X238150285Y-104590809D01*
X238036000Y-104628904D01*
X237959809Y-104628904D01*
X237845523Y-104590809D01*
X237807428Y-104552714D01*
X237807428Y-104286047D01*
X237959809Y-104286047D01*
X237464571Y-104628904D02*
X237464571Y-103828904D01*
X237007428Y-104628904D01*
X237007428Y-103828904D01*
X236626476Y-104628904D02*
X236626476Y-103828904D01*
X236436000Y-103828904D01*
X236321714Y-103867000D01*
X236245523Y-103943190D01*
X236207428Y-104019380D01*
X236169333Y-104171761D01*
X236169333Y-104286047D01*
X236207428Y-104438428D01*
X236245523Y-104514619D01*
X236321714Y-104590809D01*
X236436000Y-104628904D01*
X236626476Y-104628904D01*
X238093190Y-101288904D02*
X237940809Y-101288904D01*
X237864619Y-101327000D01*
X237788428Y-101403190D01*
X237750333Y-101555571D01*
X237750333Y-101822238D01*
X237788428Y-101974619D01*
X237864619Y-102050809D01*
X237940809Y-102088904D01*
X238093190Y-102088904D01*
X238169380Y-102050809D01*
X238245571Y-101974619D01*
X238283666Y-101822238D01*
X238283666Y-101555571D01*
X238245571Y-101403190D01*
X238169380Y-101327000D01*
X238093190Y-101288904D01*
X237407476Y-102088904D02*
X237407476Y-101288904D01*
X236950333Y-102088904D02*
X237293190Y-101631761D01*
X236950333Y-101288904D02*
X237407476Y-101746047D01*
X238321714Y-99548904D02*
X238321714Y-98748904D01*
X238131238Y-98748904D01*
X238016952Y-98787000D01*
X237940761Y-98863190D01*
X237902666Y-98939380D01*
X237864571Y-99091761D01*
X237864571Y-99206047D01*
X237902666Y-99358428D01*
X237940761Y-99434619D01*
X238016952Y-99510809D01*
X238131238Y-99548904D01*
X238321714Y-99548904D01*
X237597904Y-98748904D02*
X237407428Y-99548904D01*
X237255047Y-98977476D01*
X237102666Y-99548904D01*
X236912190Y-98748904D01*
X236607428Y-99548904D02*
X236607428Y-98748904D01*
X236150285Y-99548904D01*
X236150285Y-98748904D01*
X238372571Y-96208904D02*
X238372571Y-96856523D01*
X238334476Y-96932714D01*
X238296380Y-96970809D01*
X238220190Y-97008904D01*
X238067809Y-97008904D01*
X237991619Y-96970809D01*
X237953523Y-96932714D01*
X237915428Y-96856523D01*
X237915428Y-96208904D01*
X237534476Y-97008904D02*
X237534476Y-96208904D01*
X237229714Y-96208904D01*
X237153523Y-96247000D01*
X237115428Y-96285095D01*
X237077333Y-96361285D01*
X237077333Y-96475571D01*
X237115428Y-96551761D01*
X237153523Y-96589857D01*
X237229714Y-96627952D01*
X237534476Y-96627952D01*
X215836476Y-94621333D02*
X215455523Y-94621333D01*
X215912666Y-94849904D02*
X215646000Y-94049904D01*
X215379333Y-94849904D01*
X216985857Y-100526857D02*
X216871571Y-100564952D01*
X216833476Y-100603047D01*
X216795380Y-100679238D01*
X216795380Y-100793523D01*
X216833476Y-100869714D01*
X216871571Y-100907809D01*
X216947761Y-100945904D01*
X217252523Y-100945904D01*
X217252523Y-100145904D01*
X216985857Y-100145904D01*
X216909666Y-100184000D01*
X216871571Y-100222095D01*
X216833476Y-100298285D01*
X216833476Y-100374476D01*
X216871571Y-100450666D01*
X216909666Y-100488761D01*
X216985857Y-100526857D01*
X217252523Y-100526857D01*
X223240523Y-100311000D02*
X223316714Y-100272904D01*
X223431000Y-100272904D01*
X223545285Y-100311000D01*
X223621476Y-100387190D01*
X223659571Y-100463380D01*
X223697666Y-100615761D01*
X223697666Y-100730047D01*
X223659571Y-100882428D01*
X223621476Y-100958619D01*
X223545285Y-101034809D01*
X223431000Y-101072904D01*
X223354809Y-101072904D01*
X223240523Y-101034809D01*
X223202428Y-100996714D01*
X223202428Y-100730047D01*
X223354809Y-100730047D01*
X222859571Y-101072904D02*
X222859571Y-100272904D01*
X222402428Y-101072904D01*
X222402428Y-100272904D01*
X222021476Y-101072904D02*
X222021476Y-100272904D01*
X221831000Y-100272904D01*
X221716714Y-100311000D01*
X221640523Y-100387190D01*
X221602428Y-100463380D01*
X221564333Y-100615761D01*
X221564333Y-100730047D01*
X221602428Y-100882428D01*
X221640523Y-100958619D01*
X221716714Y-101034809D01*
X221831000Y-101072904D01*
X222021476Y-101072904D01*
D11*
X159687865Y-134548880D02*
X151559865Y-139496800D01*
X141653865Y-127050800D02*
X172133865Y-127050800D01*
X151559865Y-139496800D02*
X159687865Y-144708880D01*
X159687865Y-134548880D02*
X159687865Y-144708880D01*
X141653865Y-132130800D02*
X172133865Y-132130800D01*
G36*
X155877865Y-138734800D02*
G01*
X156893865Y-139750800D01*
X159017305Y-138866880D01*
X156477305Y-140898880D01*
X155623865Y-139750800D01*
X154353865Y-140766800D01*
X154353865Y-138480800D01*
X155877865Y-138734800D01*
G37*
D12*
X155877865Y-138734800D02*
X156893865Y-139750800D01*
X159017305Y-138866880D01*
X156477305Y-140898880D01*
X155623865Y-139750800D01*
X154353865Y-140766800D01*
X154353865Y-138480800D01*
X155877865Y-138734800D01*
%LPC*%
D13*
X225364865Y-215472200D03*
D14*
X230444865Y-215472200D03*
D15*
X280591865Y-100888800D03*
X280591865Y-103428800D03*
D16*
X278051865Y-103428800D03*
D17*
X278051865Y-100888800D03*
D18*
X156445865Y-166674800D03*
X163945865Y-166674800D03*
D19*
X144393865Y-149840800D03*
X156893865Y-149840800D03*
X169393865Y-149840800D03*
X168393865Y-109340800D03*
X145393865Y-109340800D03*
D15*
X141210865Y-99364800D03*
X141210865Y-101904800D03*
D16*
X143750865Y-99364800D03*
D17*
X143750865Y-101904800D03*
D13*
X271775865Y-215472200D03*
D14*
X276855865Y-215472200D03*
D20*
X239697865Y-94030800D03*
D21*
X242237865Y-94030800D03*
X239697865Y-96570800D03*
X242237865Y-96570800D03*
X239697865Y-99110800D03*
X242237865Y-99110800D03*
X239697865Y-101650800D03*
X242237865Y-101650800D03*
X239697865Y-104190800D03*
X242237865Y-104190800D03*
D15*
X280591865Y-93141800D03*
X280591865Y-95681800D03*
D16*
X278051865Y-95681800D03*
D17*
X278051865Y-93141800D03*
D22*
X204550865Y-215446800D03*
X199950865Y-215446800D03*
D15*
X141210865Y-92506800D03*
X141210865Y-95046800D03*
D16*
X143750865Y-92506800D03*
D17*
X143750865Y-95046800D03*
D23*
X183388865Y-209360800D03*
D24*
X183388865Y-204260800D03*
X175138865Y-204260800D03*
X175138865Y-209360800D03*
D18*
X166545865Y-189474800D03*
X166545865Y-181974800D03*
D25*
X155115865Y-197024800D03*
X155115865Y-174424800D03*
D26*
X236850865Y-185552800D03*
X249550865Y-185552800D03*
X249550865Y-175552800D03*
X236850865Y-175552800D03*
D13*
X259075865Y-215446800D03*
D14*
X264155865Y-215446800D03*
D22*
X250834865Y-215446800D03*
X246234865Y-215446800D03*
D27*
X167695865Y-159054800D03*
D28*
X152695865Y-159054800D03*
D15*
X280591865Y-117652800D03*
X280591865Y-120192800D03*
D16*
X278051865Y-120192800D03*
D17*
X278051865Y-117652800D03*
D15*
X280591865Y-159308800D03*
X280591865Y-156768800D03*
D16*
X278051865Y-159308800D03*
D17*
X278051865Y-156768800D03*
D15*
X280591865Y-138988800D03*
X280591865Y-136448800D03*
D16*
X278051865Y-138988800D03*
D17*
X278051865Y-136448800D03*
D15*
X280591865Y-109397800D03*
X280591865Y-111937800D03*
D16*
X278051865Y-111937800D03*
D17*
X278051865Y-109397800D03*
D15*
X280591865Y-127812800D03*
X280591865Y-130352800D03*
D16*
X278051865Y-130352800D03*
D17*
X278051865Y-127812800D03*
D29*
X193946865Y-93956800D03*
X188166865Y-93956800D03*
D30*
X195376865Y-90266800D03*
D31*
X186736865Y-94436800D03*
X195376865Y-94436800D03*
D30*
X186736865Y-90266800D03*
D13*
X212664865Y-215446800D03*
D14*
X217744865Y-215446800D03*
D15*
X280591865Y-148132800D03*
X280591865Y-150672800D03*
D16*
X278051865Y-150672800D03*
D17*
X278051865Y-148132800D03*
D20*
X251000865Y-94081600D03*
D21*
X253540865Y-94081600D03*
X251000865Y-96621600D03*
X253540865Y-96621600D03*
X251000865Y-99161600D03*
X253540865Y-99161600D03*
X251000865Y-101701600D03*
X253540865Y-101701600D03*
X251000865Y-104241600D03*
X253540865Y-104241600D03*
D26*
X190566865Y-185552800D03*
X203266865Y-185552800D03*
X203266865Y-175552800D03*
X190566865Y-175552800D03*
D32*
X229581865Y-97487600D03*
X204581865Y-97487600D03*
D33*
X211541865Y-98907600D03*
D34*
X214311865Y-98907600D03*
X217081865Y-98907600D03*
X219851865Y-98907600D03*
X222621865Y-98907600D03*
X212926865Y-96067600D03*
X215696865Y-96067600D03*
X218466865Y-96067600D03*
X221236865Y-96067600D03*
D35*
X223302465Y-175656400D03*
D26*
X221392465Y-175656400D03*
X219482465Y-175656400D03*
D36*
X214392465Y-199106400D03*
X214392465Y-195006400D03*
D37*
X220342465Y-196426400D03*
D36*
X215722465Y-195006400D03*
D38*
X216392465Y-197056400D03*
D36*
X213192465Y-195396400D03*
X218392465Y-199106400D03*
X215722465Y-199106400D03*
D39*
X220342465Y-197686400D03*
D36*
X212442465Y-196426400D03*
X217062465Y-195006400D03*
X217062465Y-199106400D03*
X219592465Y-195396400D03*
X219592465Y-198716400D03*
X218392465Y-195006400D03*
X213192465Y-198716400D03*
X212442465Y-197686400D03*
D39*
X222442465Y-196426400D03*
D36*
X223192465Y-198716400D03*
D37*
X222442465Y-197686400D03*
D36*
X224392465Y-195006400D03*
X225722465Y-199106400D03*
X228392465Y-199106400D03*
X228392465Y-195006400D03*
X227062465Y-195006400D03*
X224392465Y-199106400D03*
X223192465Y-195396400D03*
X227062465Y-199106400D03*
X225722465Y-195006400D03*
X229592465Y-195396400D03*
D38*
X226392465Y-197056400D03*
D36*
X230342465Y-196426400D03*
X229592465Y-198716400D03*
X230342465Y-197686400D03*
D40*
X144955865Y-213556800D03*
D41*
X150035865Y-213556800D03*
X155115865Y-213556800D03*
D22*
X162231865Y-204016800D03*
X166831865Y-204016800D03*
D42*
X197533865Y-123240800D03*
D43*
X200073865Y-123240800D03*
X202613865Y-123240800D03*
X205153865Y-123240800D03*
X207693865Y-123240800D03*
X210233865Y-123240800D03*
D35*
X269738865Y-175656400D03*
D26*
X267828865Y-175656400D03*
X265918865Y-175656400D03*
D38*
X262828865Y-197056400D03*
D36*
X263498865Y-199106400D03*
X266028865Y-195396400D03*
X264828865Y-195006400D03*
D39*
X266778865Y-197686400D03*
D36*
X259628865Y-198716400D03*
X266028865Y-198716400D03*
X262158865Y-195006400D03*
X258878865Y-196426400D03*
X263498865Y-195006400D03*
X264828865Y-199106400D03*
D37*
X266778865Y-196426400D03*
D36*
X260828865Y-195006400D03*
X260828865Y-199106400D03*
X259628865Y-195396400D03*
X258878865Y-197686400D03*
X262158865Y-199106400D03*
X273498865Y-195006400D03*
X276778865Y-196426400D03*
X272158865Y-199106400D03*
X270828865Y-195006400D03*
X273498865Y-199106400D03*
X272158865Y-195006400D03*
D37*
X268878865Y-197686400D03*
D38*
X272828865Y-197056400D03*
D36*
X269628865Y-195396400D03*
X276028865Y-198716400D03*
X269628865Y-198716400D03*
X274828865Y-195006400D03*
X274828865Y-199106400D03*
X270828865Y-199106400D03*
X276778865Y-197686400D03*
X276028865Y-195396400D03*
D39*
X268878865Y-196426400D03*
M02*
